Yantramanav-Bold.ufo
<glyph name="exclam" format="1">
  <advance width="735"/>
  <unicode hex="0021"/>
  <outline>
    <contour>
      <point x="495" y="453" type="line"/>
      <point x="231" y="453" type="line"/>
      <point x="231" y="1310" type="line"/>
      <point x="495" y="1310" type="line"/>
    </contour>
    <contour>
      <point x="495" y="0" type="line"/>
      <point x="231" y="0" type="line"/>
      <point x="231" y="232" type="line"/>
      <point x="495" y="232" type="line"/>
    </contour>
  </outline>
</glyph>
<glyph name="quotedbl" format="1">
  <advance width="987"/>
  <unicode hex="0022"/>
  <outline>
    <contour>
      <point x="437" y="1098" type="line"/>
      <point x="315" y="886" type="line"/>
      <point x="201" y="886" type="line"/>
      <point x="174" y="1085" type="line"/>
      <point x="174" y="1404" type="line"/>
      <point x="437" y="1404" type="line"/>
    </contour>
    <contour>
      <point x="793" y="1098" type="line"/>
      <point x="671" y="886" type="line"/>
      <point x="557" y="886" type="line"/>
      <point x="529" y="1097" type="line"/>
      <point x="529" y="1404" type="line"/>
      <point x="793" y="1404" type="line"/>
    </contour>
  </outline>
</glyph>
<glyph name="numbersign" format="1">
  <advance width="1096"/>
  <unicode hex="0023"/>
  <outline>
    <contour>
      <point x="584" y="369" type="line"/>
      <point x="412" y="369" type="line"/>
      <point x="348" y="0" type="line"/>
      <point x="183" y="0" type="line"/>
      <point x="247" y="369" type="line"/>
      <point x="43" y="369" type="line"/>
      <point x="43" y="521" type="line"/>
      <point x="273" y="521" type="line"/>
      <point x="320" y="783" type="line"/>
      <point x="111" y="783" type="line"/>
      <point x="111" y="936" type="line"/>
      <point x="347" y="936" type="line"/>
      <point x="412" y="1310" type="line"/>
      <point x="577" y="1310" type="line"/>
      <point x="512" y="936" type="line"/>
      <point x="684" y="936" type="line"/>
      <point x="750" y="1310" type="line"/>
      <point x="915" y="1310" type="line"/>
      <point x="849" y="936" type="line"/>
      <point x="1047" y="936" type="line"/>
      <point x="1047" y="783" type="line"/>
      <point x="823" y="783" type="line"/>
      <point x="776" y="521" type="line"/>
      <point x="979" y="521" type="line"/>
      <point x="979" y="369" type="line"/>
      <point x="750" y="369" type="line"/>
      <point x="686" y="0" type="line"/>
      <point x="520" y="0" type="line"/>
    </contour>
    <contour>
      <point x="438" y="521" type="line"/>
      <point x="611" y="521" type="line"/>
      <point x="657" y="783" type="line"/>
      <point x="485" y="783" type="line"/>
    </contour>
  </outline>
</glyph>
<glyph name="dollar" format="1">
  <advance width="1058"/>
  <unicode hex="0024"/>
  <outline>
    <contour>
      <point x="711" y="320" type="qcurve" smooth="yes"/>
      <point x="711" y="398"/>
      <point x="631" y="486"/>
      <point x="526" y="529" type="qcurve" smooth="yes"/>
      <point x="317" y="610"/>
      <point x="127" y="780"/>
      <point x="127" y="945" type="qcurve" smooth="yes"/>
      <point x="127" y="1097"/>
      <point x="330" y="1291"/>
      <point x="499" y="1305" type="qcurve"/>
      <point x="499" y="1492" type="line"/>
      <point x="627" y="1492" type="line"/>
      <point x="627" y="1302" type="line"/>
      <point x="789" y="1281"/>
      <point x="977" y="1065"/>
      <point x="974" y="894" type="qcurve"/>
      <point x="972" y="890" type="line"/>
      <point x="715" y="890" type="line"/>
      <point x="715" y="996"/>
      <point x="625" y="1108"/>
      <point x="547" y="1108" type="qcurve" smooth="yes"/>
      <point x="468" y="1108"/>
      <point x="390" y="1015"/>
      <point x="390" y="945" type="qcurve" smooth="yes"/>
      <point x="390" y="874"/>
      <point x="466" y="786"/>
      <point x="574" y="743" type="qcurve" smooth="yes"/>
      <point x="780" y="656"/>
      <point x="973" y="483"/>
      <point x="973" y="321" type="qcurve" smooth="yes"/>
      <point x="973" y="167"/>
      <point x="778" y="-22"/>
      <point x="613" y="-37" type="qcurve"/>
      <point x="613" y="-216" type="line"/>
      <point x="485" y="-216" type="line"/>
      <point x="485" y="-37" type="line"/>
      <point x="311" y="-21"/>
      <point x="82" y="184"/>
      <point x="85" y="385" type="qcurve"/>
      <point x="88" y="391" type="line"/>
      <point x="342" y="391" type="line"/>
      <point x="342" y="268"/>
      <point x="459" y="160"/>
      <point x="549" y="160" type="qcurve" smooth="yes"/>
      <point x="626" y="160"/>
      <point x="711" y="249"/>
    </contour>
  </outline>
</glyph>
<glyph name="percent" format="1">
  <advance width="1362"/>
  <unicode hex="0025"/>
  <outline>
    <contour>
      <point x="86" y="1058" type="line"/>
      <point x="86" y="1174"/>
      <point x="236" y="1329"/>
      <point x="370" y="1329" type="qcurve"/>
      <point x="506" y="1329"/>
      <point x="655" y="1175"/>
      <point x="655" y="1058" type="qcurve"/>
      <point x="655" y="989" type="line"/>
      <point x="655" y="873"/>
      <point x="506" y="720"/>
      <point x="371" y="720" type="qcurve"/>
      <point x="237" y="720"/>
      <point x="86" y="874"/>
      <point x="86" y="989" type="qcurve"/>
    </contour>
    <contour>
      <point x="259" y="989" type="line"/>
      <point x="259" y="937"/>
      <point x="318" y="866"/>
      <point x="371" y="866" type="qcurve"/>
      <point x="424" y="866"/>
      <point x="481" y="937"/>
      <point x="481" y="989" type="qcurve"/>
      <point x="481" y="1058" type="line"/>
      <point x="481" y="1110"/>
      <point x="423" y="1183"/>
      <point x="370" y="1183" type="qcurve"/>
      <point x="317" y="1183"/>
      <point x="259" y="1110"/>
      <point x="259" y="1058" type="qcurve"/>
    </contour>
    <contour>
      <point x="712" y="321" type="line"/>
      <point x="712" y="437"/>
      <point x="863" y="591"/>
      <point x="997" y="591" type="qcurve"/>
      <point x="1132" y="591"/>
      <point x="1282" y="437"/>
      <point x="1282" y="321" type="qcurve"/>
      <point x="1282" y="252" type="line"/>
      <point x="1282" y="135"/>
      <point x="1133" y="-18"/>
      <point x="999" y="-18" type="qcurve"/>
      <point x="864" y="-18"/>
      <point x="712" y="135"/>
      <point x="712" y="252" type="qcurve"/>
    </contour>
    <contour>
      <point x="886" y="252" type="line"/>
      <point x="886" y="201"/>
      <point x="949" y="128"/>
      <point x="999" y="128" type="qcurve"/>
      <point x="1058" y="128"/>
      <point x="1108" y="196"/>
      <point x="1108" y="252" type="qcurve"/>
      <point x="1108" y="321" type="line"/>
      <point x="1108" y="372"/>
      <point x="1049" y="445"/>
      <point x="997" y="445" type="qcurve"/>
      <point x="943" y="445"/>
      <point x="886" y="372"/>
      <point x="886" y="321" type="qcurve"/>
    </contour>
    <contour>
      <point x="419" y="98" type="line"/>
      <point x="292" y="166" type="line"/>
      <point x="932" y="1190" type="line"/>
      <point x="1059" y="1122" type="line"/>
    </contour>
  </outline>
</glyph>
<glyph name="ampersand" format="1">
  <advance width="1211"/>
  <unicode hex="0026"/>
  <outline>
    <contour>
      <point x="0" y="0" type="line"/>
      <point x="1211" y="0" type="line"/>
      <point x="1211" y="20" type="line"/>
      <point x="0" y="20" type="line"/>
    </contour>
  </outline>
</glyph>
<glyph name="quotesingle" format="1">
  <advance width="632"/>
  <unicode hex="0027"/>
  <outline>
    <contour>
      <point x="437" y="1170" type="line"/>
      <point x="315" y="908" type="line"/>
      <point x="201" y="908" type="line"/>
      <point x="174" y="1146" type="line"/>
      <point x="174" y="1404" type="line"/>
      <point x="437" y="1404" type="line"/>
    </contour>
  </outline>
</glyph>
<glyph name="parenleft" format="1">
  <advance width="884"/>
  <unicode hex="0028"/>
  <outline>
    <contour>
      <point x="219" y="533" type="line"/>
      <point x="219" y="884"/>
      <point x="491" y="1376"/>
      <point x="664" y="1450" type="qcurve"/>
      <point x="670" y="1449" type="line"/>
      <point x="718" y="1319" type="line"/>
      <point x="600" y="1231"/>
      <point x="440" y="837"/>
      <point x="440" y="535" type="qcurve"/>
      <point x="440" y="511" type="line"/>
      <point x="440" y="207"/>
      <point x="599" y="-185"/>
      <point x="718" y="-277" type="qcurve"/>
      <point x="670" y="-405" type="line"/>
      <point x="664" y="-405" type="line"/>
      <point x="491" y="-330"/>
      <point x="219" y="161"/>
      <point x="219" y="513" type="qcurve"/>
    </contour>
  </outline>
</glyph>
<glyph name="parenright" format="1">
  <advance width="883"/>
  <unicode hex="0029"/>
  <outline>
    <contour>
      <point x="679" y="513" type="line"/>
      <point x="679" y="170"/>
      <point x="395" y="-331"/>
      <point x="220" y="-405" type="qcurve"/>
      <point x="214" y="-405" type="line"/>
      <point x="166" y="-277" type="line"/>
      <point x="282" y="-188"/>
      <point x="444" y="207"/>
      <point x="444" y="511" type="qcurve"/>
      <point x="444" y="535" type="line"/>
      <point x="444" y="836"/>
      <point x="280" y="1232"/>
      <point x="166" y="1322" type="qcurve"/>
      <point x="214" y="1450" type="line"/>
      <point x="220" y="1450" type="line"/>
      <point x="395" y="1377"/>
      <point x="679" y="874"/>
      <point x="679" y="533" type="qcurve"/>
    </contour>
  </outline>
</glyph>
<glyph name="asterisk" format="1">
  <advance width="817"/>
  <unicode hex="002A"/>
  <outline>
    <contour>
      <point x="297" y="927" type="line"/>
      <point x="24" y="1008" type="line"/>
      <point x="75" y="1167" type="line"/>
      <point x="343" y="1056" type="line"/>
      <point x="327" y="1368" type="line"/>
      <point x="496" y="1368" type="line"/>
      <point x="477" y="1050" type="line"/>
      <point x="740" y="1159" type="line"/>
      <point x="790" y="998" type="line"/>
      <point x="514" y="917" type="line"/>
      <point x="695" y="677" type="line"/>
      <point x="559" y="579" type="line"/>
      <point x="401" y="841" type="line"/>
      <point x="246" y="587" type="line"/>
      <point x="108" y="682" type="line"/>
    </contour>
  </outline>
</glyph>
<glyph name="plus" format="1">
  <advance width="1005"/>
  <unicode hex="002B"/>
  <outline>
    <contour>
      <point x="625" y="745" type="line"/>
      <point x="948" y="745" type="line"/>
      <point x="948" y="518" type="line"/>
      <point x="625" y="518" type="line"/>
      <point x="625" y="146" type="line"/>
      <point x="375" y="146" type="line"/>
      <point x="375" y="518" type="line"/>
      <point x="50" y="518" type="line"/>
      <point x="50" y="745" type="line"/>
      <point x="375" y="745" type="line"/>
      <point x="375" y="1100" type="line"/>
      <point x="625" y="1100" type="line"/>
    </contour>
  </outline>
</glyph>
<glyph name="comma" format="1">
  <advance width="447"/>
  <unicode hex="002C"/>
  <outline>
    <contour>
      <point x="346" y="-21" type="line"/>
      <point x="204" y="-304" type="line"/>
      <point x="48" y="-304" type="line"/>
      <point x="111" y="-13" type="line"/>
      <point x="111" y="189" type="line"/>
      <point x="346" y="189" type="line"/>
    </contour>
  </outline>
</glyph>
<glyph name="hyphen" format="1">
  <advance width="724"/>
  <unicode hex="002D"/>
  <outline>
    <contour>
      <point x="611" y="510" type="line"/>
      <point x="103" y="510" type="line"/>
      <point x="103" y="714" type="line"/>
      <point x="611" y="714" type="line"/>
    </contour>
  </outline>
</glyph>
<glyph name="slash" format="1">
  <advance width="685"/>
  <unicode hex="002F"/>
  <outline>
    <contour>
      <point x="182" y="-125" type="line"/>
      <point x="-13" y="-125" type="line"/>
      <point x="467" y="1298" type="line"/>
      <point x="661" y="1298" type="line"/>
    </contour>
  </outline>
</glyph>
<glyph name="zero" format="1">
  <advance width="1058"/>
  <unicode hex="0030"/>
  <outline>
    <contour>
      <point x="972" y="509" type="line"/>
      <point x="972" y="249"/>
      <point x="734" y="-21"/>
      <point x="530" y="-21" type="qcurve" smooth="yes"/>
      <point x="325" y="-21"/>
      <point x="85" y="249"/>
      <point x="85" y="509" type="qcurve" smooth="yes"/>
      <point x="85" y="797" type="line"/>
      <point x="85" y="1057"/>
      <point x="323" y="1327"/>
      <point x="528" y="1327" type="qcurve" smooth="yes"/>
      <point x="733" y="1327"/>
      <point x="972" y="1056"/>
      <point x="972" y="797" type="qcurve" smooth="yes"/>
    </contour>
    <contour>
      <point x="710" y="823" type="line"/>
      <point x="710" y="980"/>
      <point x="617" y="1124"/>
      <point x="528" y="1124" type="qcurve" smooth="yes"/>
      <point x="439" y="1124"/>
      <point x="348" y="980"/>
      <point x="348" y="823" type="qcurve" smooth="yes"/>
      <point x="348" y="485" type="line"/>
      <point x="348" y="327"/>
      <point x="440" y="182"/>
      <point x="530" y="182" type="qcurve" smooth="yes"/>
      <point x="618" y="182"/>
      <point x="710" y="326"/>
      <point x="710" y="485" type="qcurve" smooth="yes"/>
    </contour>
  </outline>
</glyph>
<glyph name="one" format="1">
  <advance width="1058"/>
  <unicode hex="0031"/>
  <outline>
    <contour>
      <point x="689" y="0" type="line"/>
      <point x="427" y="0" type="line"/>
      <point x="427" y="1048" type="line"/>
      <point x="142" y="1047" type="line"/>
      <point x="142" y="1233" type="line"/>
      <point x="689" y="1311" type="line"/>
    </contour>
  </outline>
</glyph>
<glyph name="two" format="1">
  <advance width="1058"/>
  <unicode hex="0032"/>
  <outline>
    <contour>
      <point x="984" y="0" type="line"/>
      <point x="88" y="0" type="line"/>
      <point x="88" y="173" type="line"/>
      <point x="512" y="627" type="line"/>
      <point x="604" y="731"/>
      <point x="682" y="877"/>
      <point x="682" y="939" type="qcurve" smooth="yes"/>
      <point x="682" y="1022"/>
      <point x="593" y="1126"/>
      <point x="511" y="1126" type="qcurve" smooth="yes"/>
      <point x="420" y="1126"/>
      <point x="325" y="1002"/>
      <point x="325" y="900" type="qcurve"/>
      <point x="69" y="900" type="line"/>
      <point x="68" y="906" type="line"/>
      <point x="63" y="1083"/>
      <point x="306" y="1329"/>
      <point x="511" y="1329" type="qcurve" smooth="yes"/>
      <point x="714" y="1329"/>
      <point x="945" y="1119"/>
      <point x="945" y="942" type="qcurve" smooth="yes"/>
      <point x="945" y="824"/>
      <point x="817" y="625"/>
      <point x="664" y="458" type="qcurve" smooth="yes"/>
      <point x="431" y="208" type="line"/>
      <point x="434" y="203" type="line"/>
      <point x="984" y="203" type="line"/>
    </contour>
  </outline>
</glyph>
<glyph name="three" format="1">
  <advance width="1058"/>
  <unicode hex="0033"/>
  <outline>
    <contour>
      <point x="354" y="767" type="line"/>
      <point x="501" y="767" type="line"/>
      <point x="595" y="767"/>
      <point x="686" y="865"/>
      <point x="686" y="953" type="qcurve"/>
      <point x="686" y="1031"/>
      <point x="597" y="1126"/>
      <point x="510" y="1126" type="qcurve"/>
      <point x="437" y="1126"/>
      <point x="335" y="1040"/>
      <point x="335" y="971" type="qcurve"/>
      <point x="81" y="971" type="line"/>
      <point x="79" y="976" type="line"/>
      <point x="74" y="1130"/>
      <point x="320" y="1329"/>
      <point x="503" y="1329" type="qcurve"/>
      <point x="706" y="1329"/>
      <point x="949" y="1135"/>
      <point x="949" y="956" type="qcurve"/>
      <point x="949" y="869"/>
      <point x="842" y="715"/>
      <point x="748" y="673" type="qcurve"/>
      <point x="857" y="634"/>
      <point x="969" y="474"/>
      <point x="969" y="366" type="qcurve"/>
      <point x="969" y="187"/>
      <point x="707" y="-19"/>
      <point x="503" y="-19" type="qcurve"/>
      <point x="320" y="-19"/>
      <point x="57" y="175"/>
      <point x="62" y="352" type="qcurve"/>
      <point x="64" y="358" type="line"/>
      <point x="319" y="358" type="line"/>
      <point x="319" y="282"/>
      <point x="427" y="184"/>
      <point x="510" y="184" type="qcurve"/>
      <point x="601" y="184"/>
      <point x="707" y="285"/>
      <point x="707" y="369" type="qcurve"/>
      <point x="707" y="474"/>
      <point x="602" y="570"/>
      <point x="501" y="570" type="qcurve"/>
      <point x="354" y="570" type="line"/>
    </contour>
  </outline>
</glyph>
<glyph name="four" format="1">
  <advance width="1058"/>
  <unicode hex="0034"/>
  <outline>
    <contour>
      <point x="853" y="465" type="line"/>
      <point x="1002" y="465" type="line"/>
      <point x="1002" y="265" type="line"/>
      <point x="853" y="265" type="line"/>
      <point x="853" y="0" type="line"/>
      <point x="590" y="0" type="line"/>
      <point x="590" y="265" type="line"/>
      <point x="34" y="265" type="line"/>
      <point x="34" y="414" type="line"/>
      <point x="578" y="1310" type="line"/>
      <point x="853" y="1310" type="line"/>
    </contour>
    <contour>
      <point x="300" y="465" type="line"/>
      <point x="590" y="465" type="line"/>
      <point x="590" y="930" type="line"/>
      <point x="585" y="931" type="line"/>
      <point x="604" y="934" type="line"/>
    </contour>
  </outline>
</glyph>
<glyph name="five" format="1">
  <advance width="1058"/>
  <unicode hex="0035"/>
  <outline>
    <contour>
      <point x="121" y="581" type="line"/>
      <point x="197" y="1310" type="line"/>
      <point x="930" y="1310" type="line"/>
      <point x="930" y="1100" type="line"/>
      <point x="413" y="1100" type="line"/>
      <point x="376" y="796" type="line"/>
      <point x="413" y="824"/>
      <point x="515" y="859"/>
      <point x="578" y="861" type="qcurve"/>
      <point x="767" y="864"/>
      <point x="975" y="629"/>
      <point x="975" y="421" type="qcurve"/>
      <point x="975" y="232"/>
      <point x="747" y="-19"/>
      <point x="532" y="-19" type="qcurve"/>
      <point x="352" y="-19"/>
      <point x="94" y="180"/>
      <point x="98" y="352" type="qcurve"/>
      <point x="100" y="358" type="line"/>
      <point x="353" y="370" type="line"/>
      <point x="353" y="282"/>
      <point x="452" y="184"/>
      <point x="532" y="184" type="qcurve"/>
      <point x="625" y="184"/>
      <point x="712" y="314"/>
      <point x="712" y="419" type="qcurve"/>
      <point x="712" y="533"/>
      <point x="619" y="669"/>
      <point x="526" y="669" type="qcurve"/>
      <point x="451" y="669"/>
      <point x="370" y="613"/>
      <point x="354" y="566" type="qcurve"/>
    </contour>
  </outline>
</glyph>
<glyph name="six" format="1">
  <advance width="1058"/>
  <unicode hex="0036"/>
  <outline>
    <contour>
      <point x="615" y="1327" type="qcurve" smooth="yes"/>
      <point x="690" y="1327"/>
      <point x="814" y="1300"/>
      <point x="877" y="1272" type="qcurve"/>
      <point x="831" y="1079" type="line"/>
      <point x="774" y="1099"/>
      <point x="679" y="1121"/>
      <point x="617" y="1121" type="qcurve" smooth="yes"/>
      <point x="498" y="1121"/>
      <point x="354" y="945"/>
      <point x="356" y="788" type="qcurve" smooth="yes"/>
      <point x="358" y="778" type="line"/>
      <point x="404" y="825"/>
      <point x="540" y="877"/>
      <point x="625" y="877" type="qcurve" smooth="yes"/>
      <point x="800" y="877"/>
      <point x="999" y="628"/>
      <point x="999" y="434" type="qcurve" smooth="yes"/>
      <point x="999" y="237"/>
      <point x="753" y="-21"/>
      <point x="557" y="-21" type="qcurve" smooth="yes"/>
      <point x="349" y="-21"/>
      <point x="89" y="261"/>
      <point x="89" y="509" type="qcurve" smooth="yes"/>
      <point x="89" y="768" type="line"/>
      <point x="89" y="1025"/>
      <point x="387" y="1327"/>
    </contour>
    <contour>
      <point x="555" y="678" type="qcurve" smooth="yes"/>
      <point x="483" y="678"/>
      <point x="380" y="630"/>
      <point x="352" y="590" type="qcurve"/>
      <point x="352" y="503" type="line"/>
      <point x="352" y="348"/>
      <point x="464" y="182"/>
      <point x="557" y="182" type="qcurve" smooth="yes"/>
      <point x="639" y="182"/>
      <point x="737" y="330"/>
      <point x="737" y="434" type="qcurve" smooth="yes"/>
      <point x="737" y="544"/>
      <point x="638" y="678"/>
    </contour>
  </outline>
</glyph>
<glyph name="seven" format="1">
  <advance width="1058"/>
  <unicode hex="0037"/>
  <outline>
    <contour>
      <point x="980" y="1107" type="line"/>
      <point x="771" y="864"/>
      <point x="615" y="434"/>
      <point x="583" y="132" type="qcurve"/>
      <point x="570" y="0" type="line"/>
      <point x="307" y="0" type="line"/>
      <point x="319" y="132" type="line"/>
      <point x="349" y="422"/>
      <point x="550" y="905"/>
      <point x="727" y="1107" type="qcurve"/>
      <point x="54" y="1107" type="line"/>
      <point x="54" y="1310" type="line"/>
      <point x="980" y="1310" type="line"/>
    </contour>
  </outline>
</glyph>
<glyph name="eight" format="1">
  <advance width="1058"/>
  <unicode hex="0038"/>
  <outline>
    <contour>
      <point x="945" y="963" type="qcurve"/>
      <point x="945" y="865"/>
      <point x="841" y="713"/>
      <point x="751" y="671" type="qcurve"/>
      <point x="855" y="628"/>
      <point x="975" y="464"/>
      <point x="975" y="359" type="qcurve"/>
      <point x="975" y="176"/>
      <point x="728" y="-19"/>
      <point x="530" y="-19" type="qcurve"/>
      <point x="330" y="-19"/>
      <point x="82" y="176"/>
      <point x="82" y="359" type="qcurve"/>
      <point x="82" y="464"/>
      <point x="202" y="628"/>
      <point x="306" y="671" type="qcurve"/>
      <point x="214" y="713"/>
      <point x="111" y="865"/>
      <point x="111" y="963" type="qcurve"/>
      <point x="111" y="1138"/>
      <point x="341" y="1329"/>
      <point x="528" y="1329" type="qcurve"/>
      <point x="715" y="1329"/>
      <point x="945" y="1138"/>
    </contour>
    <contour>
      <point x="714" y="376" type="qcurve"/>
      <point x="714" y="464"/>
      <point x="610" y="570"/>
      <point x="528" y="570" type="qcurve"/>
      <point x="445" y="570"/>
      <point x="345" y="464"/>
      <point x="345" y="376" type="qcurve"/>
      <point x="345" y="287"/>
      <point x="445" y="184"/>
      <point x="530" y="184" type="qcurve"/>
      <point x="612" y="184"/>
      <point x="714" y="287"/>
    </contour>
    <contour>
      <point x="683" y="951" type="qcurve"/>
      <point x="683" y="1030"/>
      <point x="600" y="1126"/>
      <point x="528" y="1126" type="qcurve"/>
      <point x="456" y="1126"/>
      <point x="376" y="1032"/>
      <point x="376" y="951" type="qcurve"/>
      <point x="376" y="870"/>
      <point x="457" y="773"/>
      <point x="530" y="773" type="qcurve"/>
      <point x="602" y="773"/>
      <point x="683" y="869"/>
    </contour>
  </outline>
</glyph>
<glyph name="nine" format="1">
  <advance width="1058"/>
  <unicode hex="0039"/>
  <outline>
    <contour>
      <point x="468" y="184" type="qcurve"/>
      <point x="571" y="184"/>
      <point x="702" y="336"/>
      <point x="702" y="477" type="qcurve"/>
      <point x="702" y="535" type="line"/>
      <point x="658" y="477"/>
      <point x="536" y="419"/>
      <point x="465" y="419" type="qcurve"/>
      <point x="282" y="419"/>
      <point x="74" y="659"/>
      <point x="74" y="867" type="qcurve"/>
      <point x="74" y="1064"/>
      <point x="322" y="1329"/>
      <point x="514" y="1329" type="qcurve"/>
      <point x="714" y="1329"/>
      <point x="965" y="1053"/>
      <point x="965" y="803" type="qcurve"/>
      <point x="965" y="491" type="line"/>
      <point x="965" y="255"/>
      <point x="684" y="-19"/>
      <point x="468" y="-19" type="qcurve"/>
      <point x="400" y="-19"/>
      <point x="255" y="10"/>
      <point x="192" y="37" type="qcurve"/>
      <point x="223" y="227" type="line"/>
      <point x="282" y="204"/>
      <point x="395" y="184"/>
    </contour>
    <contour>
      <point x="510" y="612" type="qcurve"/>
      <point x="577" y="612"/>
      <point x="674" y="663"/>
      <point x="702" y="706" type="qcurve"/>
      <point x="702" y="834" type="line"/>
      <point x="702" y="977"/>
      <point x="602" y="1126"/>
      <point x="515" y="1126" type="qcurve"/>
      <point x="436" y="1126"/>
      <point x="336" y="973"/>
      <point x="336" y="867" type="qcurve"/>
      <point x="336" y="750"/>
      <point x="426" y="612"/>
    </contour>
  </outline>
</glyph>
<glyph name="less" format="1">
  <advance width="928"/>
  <unicode hex="003C"/>
  <outline>
    <contour>
      <point x="338" y="498" type="line"/>
      <point x="282" y="493" type="line"/>
      <point x="282" y="487" type="line"/>
      <point x="338" y="480" type="line"/>
      <point x="778" y="321" type="line"/>
      <point x="778" y="54" type="line"/>
      <point x="57" y="395" type="line"/>
      <point x="57" y="589" type="line"/>
      <point x="778" y="929" type="line"/>
      <point x="778" y="663" type="line"/>
    </contour>
  </outline>
</glyph>
<glyph name="equal" format="1">
  <advance width="1064"/>
  <unicode hex="003D"/>
  <outline>
    <contour>
      <point x="929" y="718" type="line"/>
      <point x="122" y="718" type="line"/>
      <point x="122" y="924" type="line"/>
      <point x="929" y="924" type="line"/>
    </contour>
    <contour>
      <point x="929" y="330" type="line"/>
      <point x="122" y="330" type="line"/>
      <point x="122" y="536" type="line"/>
      <point x="929" y="536" type="line"/>
    </contour>
  </outline>
</glyph>
<glyph name="greater" format="1">
  <advance width="976"/>
  <unicode hex="003E"/>
  <outline>
    <contour>
      <point x="135" y="665" type="line"/>
      <point x="135" y="924" type="line"/>
      <point x="919" y="583" type="line"/>
      <point x="919" y="389" type="line"/>
      <point x="135" y="48" type="line"/>
      <point x="135" y="308" type="line"/>
      <point x="637" y="480" type="line"/>
      <point x="692" y="483" type="line"/>
      <point x="692" y="490" type="line"/>
      <point x="637" y="497" type="line"/>
    </contour>
  </outline>
</glyph>
<glyph name="question" format="1">
  <advance width="1180"/>
  <unicode hex="003F"/>
  <outline>
    <contour>
      <point x="427" y="372" type="line"/>
      <point x="428" y="499"/>
      <point x="502" y="617"/>
      <point x="611" y="699" type="qcurve"/>
      <point x="681" y="759"/>
      <point x="752" y="872"/>
      <point x="752" y="947" type="qcurve"/>
      <point x="752" y="1028"/>
      <point x="664" y="1123"/>
      <point x="583" y="1123" type="qcurve"/>
      <point x="516" y="1123"/>
      <point x="424" y="1044"/>
      <point x="423" y="967" type="qcurve"/>
      <point x="168" y="967" type="line"/>
      <point x="166" y="972" type="line"/>
      <point x="163" y="1146"/>
      <point x="395" y="1329"/>
      <point x="583" y="1329" type="qcurve"/>
      <point x="785" y="1329"/>
      <point x="1015" y="1124"/>
      <point x="1015" y="948" type="qcurve"/>
      <point x="1015" y="834"/>
      <point x="883" y="644"/>
      <point x="779" y="575" type="qcurve"/>
      <point x="725" y="533"/>
      <point x="691" y="450"/>
      <point x="691" y="372" type="qcurve"/>
    </contour>
    <contour>
      <point x="692" y="0" type="line"/>
      <point x="428" y="0" type="line"/>
      <point x="428" y="225" type="line"/>
      <point x="692" y="225" type="line"/>
    </contour>
  </outline>
</glyph>
<glyph name="at" format="1">
  <advance width="1635"/>
  <unicode hex="0040"/>
  <outline>
    <contour>
      <point x="0" y="0" type="line"/>
      <point x="1635" y="0" type="line"/>
      <point x="1635" y="20" type="line"/>
      <point x="0" y="20" type="line"/>
    </contour>
  </outline>
</glyph>
<glyph name="A" format="1">
  <advance width="1177"/>
  <unicode hex="0041"/>
  <outline>
    <contour>
      <point x="823" y="282" type="line"/>
      <point x="366" y="282" type="line"/>
      <point x="275" y="0" type="line"/>
      <point x="10" y="0" type="line"/>
      <point x="460" y="1310" type="line"/>
      <point x="730" y="1310" type="line"/>
      <point x="1178" y="0" type="line"/>
      <point x="913" y="0" type="line"/>
    </contour>
    <contour>
      <point x="429" y="488" type="line"/>
      <point x="760" y="488" type="line"/>
      <point x="598" y="999" type="line"/>
      <point x="593" y="999" type="line"/>
    </contour>
  </outline>
</glyph>
<glyph name="B" format="1">
  <advance width="1181"/>
  <unicode hex="0042"/>
  <outline>
    <contour>
      <point x="122" y="0" type="line"/>
      <point x="122" y="1310" type="line"/>
      <point x="565" y="1310" type="line"/>
      <point x="796" y="1310"/>
      <point x="1056" y="1130"/>
      <point x="1056" y="952" type="qcurve"/>
      <point x="1056" y="861"/>
      <point x="960" y="718"/>
      <point x="869" y="681" type="qcurve"/>
      <point x="985" y="656"/>
      <point x="1103" y="490"/>
      <point x="1103" y="382" type="qcurve"/>
      <point x="1103" y="194"/>
      <point x="854" y="0"/>
      <point x="626" y="0" type="qcurve"/>
    </contour>
    <contour>
      <point x="386" y="579" type="line"/>
      <point x="386" y="203" type="line"/>
      <point x="626" y="203" type="line"/>
      <point x="732" y="203"/>
      <point x="841" y="293"/>
      <point x="841" y="383" type="qcurve"/>
      <point x="841" y="478"/>
      <point x="748" y="579"/>
      <point x="646" y="579" type="qcurve"/>
    </contour>
    <contour>
      <point x="386" y="760" type="line"/>
      <point x="581" y="760" type="line"/>
      <point x="682" y="762"/>
      <point x="793" y="849"/>
      <point x="793" y="930" type="qcurve"/>
      <point x="793" y="1021"/>
      <point x="679" y="1107"/>
      <point x="565" y="1107" type="qcurve"/>
      <point x="386" y="1107" type="line"/>
    </contour>
  </outline>
</glyph>
<glyph name="C" format="1">
  <advance width="1178"/>
  <unicode hex="0043"/>
  <outline>
    <contour>
      <point x="1112" y="445" type="line"/>
      <point x="1114" y="439" type="line"/>
      <point x="1109" y="224"/>
      <point x="850" y="-21"/>
      <point x="615" y="-21" type="qcurve" smooth="yes"/>
      <point x="379" y="-21"/>
      <point x="83" y="283"/>
      <point x="83" y="523" type="qcurve" smooth="yes"/>
      <point x="83" y="783" type="line"/>
      <point x="83" y="1022"/>
      <point x="372" y="1327"/>
      <point x="602" y="1327" type="qcurve" smooth="yes"/>
      <point x="842" y="1327"/>
      <point x="1105" y="1082"/>
      <point x="1115" y="863" type="qcurve"/>
      <point x="1113" y="857" type="line"/>
      <point x="858" y="857" type="line"/>
      <point x="854" y="988"/>
      <point x="732" y="1124"/>
      <point x="602" y="1124" type="qcurve" smooth="yes"/>
      <point x="484" y="1124"/>
      <point x="346" y="934"/>
      <point x="346" y="785" type="qcurve" smooth="yes"/>
      <point x="346" y="523" type="line"/>
      <point x="346" y="373"/>
      <point x="491" y="182"/>
      <point x="615" y="182" type="qcurve" smooth="yes"/>
      <point x="738" y="182"/>
      <point x="853" y="313"/>
      <point x="857" y="445" type="qcurve"/>
    </contour>
  </outline>
</glyph>
<glyph name="D" format="1">
  <advance width="1207"/>
  <unicode hex="0044"/>
  <outline>
    <contour>
      <point x="122" y="0" type="line"/>
      <point x="122" y="1310" type="line"/>
      <point x="572" y="1310" type="line"/>
      <point x="812" y="1310"/>
      <point x="1124" y="1004"/>
      <point x="1124" y="764" type="qcurve" smooth="yes"/>
      <point x="1124" y="546" type="line"/>
      <point x="1124" y="305"/>
      <point x="812" y="0"/>
      <point x="572" y="0" type="qcurve" smooth="yes"/>
    </contour>
    <contour>
      <point x="386" y="1107" type="line"/>
      <point x="386" y="203" type="line"/>
      <point x="558" y="203" type="line"/>
      <point x="699" y="203"/>
      <point x="860" y="394"/>
      <point x="860" y="546" type="qcurve" smooth="yes"/>
      <point x="860" y="766" type="line"/>
      <point x="860" y="918"/>
      <point x="699" y="1107"/>
      <point x="558" y="1107" type="qcurve" smooth="yes"/>
    </contour>
  </outline>
</glyph>
<glyph name="E" format="1">
  <advance width="1058"/>
  <unicode hex="0045"/>
  <outline>
    <contour>
      <point x="928" y="576" type="line"/>
      <point x="386" y="576" type="line"/>
      <point x="386" y="203" type="line"/>
      <point x="1019" y="203" type="line"/>
      <point x="1019" y="0" type="line"/>
      <point x="122" y="0" type="line"/>
      <point x="122" y="1310" type="line"/>
      <point x="1017" y="1310" type="line"/>
      <point x="1017" y="1107" type="line"/>
      <point x="386" y="1107" type="line"/>
      <point x="386" y="779" type="line"/>
      <point x="928" y="779" type="line"/>
    </contour>
  </outline>
</glyph>
<glyph name="F" format="1">
  <advance width="1064"/>
  <unicode hex="0046"/>
  <outline>
    <contour>
      <point x="934" y="544" type="line"/>
      <point x="386" y="544" type="line"/>
      <point x="386" y="0" type="line"/>
      <point x="122" y="0" type="line"/>
      <point x="122" y="1310" type="line"/>
      <point x="1026" y="1310" type="line"/>
      <point x="1026" y="1107" type="line"/>
      <point x="386" y="1107" type="line"/>
      <point x="386" y="747" type="line"/>
      <point x="934" y="747" type="line"/>
    </contour>
  </outline>
</glyph>
<glyph name="G" format="1">
  <advance width="1232"/>
  <unicode hex="0047"/>
  <outline>
    <contour>
      <point x="1129" y="179" type="line"/>
      <point x="1069" y="102"/>
      <point x="822" y="-19"/>
      <point x="633" y="-19" type="qcurve"/>
      <point x="393" y="-19"/>
      <point x="88" y="281"/>
      <point x="88" y="519" type="qcurve"/>
      <point x="88" y="791" type="line"/>
      <point x="88" y="1029"/>
      <point x="381" y="1329"/>
      <point x="612" y="1329" type="qcurve"/>
      <point x="856" y="1329"/>
      <point x="1109" y="1099"/>
      <point x="1122" y="906" type="qcurve"/>
      <point x="1121" y="900" type="line"/>
      <point x="873" y="900" type="line"/>
      <point x="860" y="1008"/>
      <point x="739" y="1126"/>
      <point x="619" y="1126" type="qcurve"/>
      <point x="498" y="1126"/>
      <point x="351" y="939"/>
      <point x="351" y="793" type="qcurve"/>
      <point x="351" y="519" type="line"/>
      <point x="351" y="370"/>
      <point x="504" y="184"/>
      <point x="633" y="184" type="qcurve"/>
      <point x="726" y="184"/>
      <point x="837" y="222"/>
      <point x="865" y="249" type="qcurve"/>
      <point x="865" y="486" type="line"/>
      <point x="633" y="486" type="line"/>
      <point x="633" y="667" type="line"/>
      <point x="1129" y="667" type="line"/>
    </contour>
  </outline>
</glyph>
<glyph name="H" format="1">
  <advance width="1305"/>
  <unicode hex="0048"/>
  <outline>
    <contour>
      <point x="1182" y="0" type="line"/>
      <point x="920" y="0" type="line"/>
      <point x="920" y="544" type="line"/>
      <point x="386" y="544" type="line"/>
      <point x="386" y="0" type="line"/>
      <point x="122" y="0" type="line"/>
      <point x="122" y="1310" type="line"/>
      <point x="386" y="1310" type="line"/>
      <point x="386" y="747" type="line"/>
      <point x="920" y="747" type="line"/>
      <point x="920" y="1310" type="line"/>
      <point x="1182" y="1310" type="line"/>
    </contour>
  </outline>
</glyph>
<glyph name="I" format="1">
  <advance width="541"/>
  <unicode hex="0049"/>
  <outline>
    <contour>
      <point x="402" y="0" type="line"/>
      <point x="139" y="0" type="line"/>
      <point x="139" y="1310" type="line"/>
      <point x="402" y="1310" type="line"/>
    </contour>
  </outline>
</glyph>
<glyph name="J" format="1">
  <advance width="1052"/>
  <unicode hex="004A"/>
  <outline>
    <contour>
      <point x="671" y="1308" type="line"/>
      <point x="935" y="1308" type="line"/>
      <point x="935" y="393" type="line"/>
      <point x="935" y="203"/>
      <point x="687" y="-21"/>
      <point x="497" y="-21" type="qcurve" smooth="yes"/>
      <point x="292" y="-21"/>
      <point x="52" y="180"/>
      <point x="56" y="375" type="qcurve"/>
      <point x="58" y="380" type="line"/>
      <point x="314" y="380" type="line"/>
      <point x="314" y="276"/>
      <point x="414" y="182"/>
      <point x="497" y="182" type="qcurve" smooth="yes"/>
      <point x="570" y="182"/>
      <point x="671" y="295"/>
      <point x="671" y="393" type="qcurve" smooth="yes"/>
    </contour>
  </outline>
</glyph>
<glyph name="K" format="1">
  <advance width="1195"/>
  <unicode hex="004B"/>
  <outline>
    <contour>
      <point x="535" y="558" type="line"/>
      <point x="413" y="558" type="line"/>
      <point x="413" y="0" type="line"/>
      <point x="150" y="0" type="line"/>
      <point x="150" y="1310" type="line"/>
      <point x="413" y="1310" type="line"/>
      <point x="413" y="760" type="line"/>
      <point x="498" y="760" type="line"/>
      <point x="909" y="1310" type="line"/>
      <point x="1198" y="1310" type="line"/>
      <point x="1202" y="1306" type="line"/>
      <point x="738" y="691" type="line"/>
      <point x="1236" y="5" type="line"/>
      <point x="1233" y="0" type="line"/>
      <point x="918" y="0" type="line"/>
    </contour>
  </outline>
</glyph>
<glyph name="L" format="1">
  <advance width="997"/>
  <unicode hex="004C"/>
  <outline>
    <contour>
      <point x="386" y="203" type="line"/>
      <point x="968" y="203" type="line"/>
      <point x="968" y="0" type="line"/>
      <point x="122" y="0" type="line"/>
      <point x="122" y="1310" type="line"/>
      <point x="386" y="1310" type="line"/>
    </contour>
  </outline>
</glyph>
<glyph name="M" format="1">
  <advance width="1608"/>
  <unicode hex="004D"/>
  <outline>
    <contour>
      <point x="465" y="1310" type="line"/>
      <point x="799" y="345" type="line"/>
      <point x="805" y="345" type="line"/>
      <point x="1141" y="1310" type="line"/>
      <point x="1485" y="1310" type="line"/>
      <point x="1485" y="0" type="line"/>
      <point x="1222" y="0" type="line"/>
      <point x="1222" y="388" type="line"/>
      <point x="1247" y="965" type="line"/>
      <point x="1242" y="966" type="line"/>
      <point x="891" y="0" type="line"/>
      <point x="714" y="0" type="line"/>
      <point x="365" y="959" type="line"/>
      <point x="360" y="959" type="line"/>
      <point x="386" y="388" type="line"/>
      <point x="386" y="0" type="line"/>
      <point x="122" y="0" type="line"/>
      <point x="122" y="1310" type="line"/>
    </contour>
  </outline>
</glyph>
<glyph name="N" format="1">
  <advance width="1305"/>
  <unicode hex="004E"/>
  <outline>
    <contour>
      <point x="1182" y="0" type="line"/>
      <point x="920" y="0" type="line"/>
      <point x="391" y="893" type="line"/>
      <point x="386" y="891" type="line"/>
      <point x="386" y="0" type="line"/>
      <point x="122" y="0" type="line"/>
      <point x="122" y="1310" type="line"/>
      <point x="386" y="1310" type="line"/>
      <point x="914" y="418" type="line"/>
      <point x="920" y="420" type="line"/>
      <point x="920" y="1310" type="line"/>
      <point x="1182" y="1310" type="line"/>
    </contour>
  </outline>
</glyph>
<glyph name="O" format="1">
  <advance width="1259"/>
  <unicode hex="004F"/>
  <outline>
    <contour>
      <point x="1176" y="537" type="line"/>
      <point x="1176" y="296"/>
      <point x="872" y="-19"/>
      <point x="627" y="-19" type="qcurve"/>
      <point x="384" y="-19"/>
      <point x="82" y="296"/>
      <point x="82" y="537" type="qcurve"/>
      <point x="82" y="772" type="line"/>
      <point x="82" y="1013"/>
      <point x="384" y="1329"/>
      <point x="626" y="1329" type="qcurve"/>
      <point x="870" y="1329"/>
      <point x="1176" y="1013"/>
      <point x="1176" y="772" type="qcurve"/>
    </contour>
    <contour>
      <point x="913" y="774" type="line"/>
      <point x="913" y="927"/>
      <point x="761" y="1124"/>
      <point x="626" y="1124" type="qcurve"/>
      <point x="493" y="1124"/>
      <point x="344" y="928"/>
      <point x="344" y="774" type="qcurve"/>
      <point x="344" y="537" type="line"/>
      <point x="344" y="382"/>
      <point x="493" y="186"/>
      <point x="627" y="186" type="qcurve"/>
      <point x="761" y="186"/>
      <point x="913" y="382"/>
      <point x="913" y="537" type="qcurve"/>
    </contour>
  </outline>
</glyph>
<glyph name="P" format="1">
  <advance width="1201"/>
  <unicode hex="0050"/>
  <outline>
    <contour>
      <point x="386" y="474" type="line"/>
      <point x="386" y="0" type="line"/>
      <point x="122" y="0" type="line"/>
      <point x="122" y="1310" type="line"/>
      <point x="644" y="1310" type="line"/>
      <point x="870" y="1310"/>
      <point x="1129" y="1079"/>
      <point x="1129" y="892" type="qcurve" smooth="yes"/>
      <point x="1129" y="703"/>
      <point x="870" y="474"/>
      <point x="644" y="474" type="qcurve" smooth="yes"/>
    </contour>
    <contour>
      <point x="386" y="677" type="line"/>
      <point x="644" y="677" type="line"/>
      <point x="754" y="677"/>
      <point x="867" y="797"/>
      <point x="867" y="890" type="qcurve" smooth="yes"/>
      <point x="867" y="985"/>
      <point x="754" y="1107"/>
      <point x="644" y="1107" type="qcurve" smooth="yes"/>
      <point x="386" y="1107" type="line"/>
    </contour>
  </outline>
</glyph>
<glyph name="Q" format="1">
  <advance width="1290"/>
  <unicode hex="0051"/>
  <outline>
    <contour>
      <point x="1180" y="514" type="line"/>
      <point x="1180" y="396"/>
      <point x="1102" y="191"/>
      <point x="1030" y="117" type="qcurve"/>
      <point x="1251" y="-95" type="line"/>
      <point x="1086" y="-234" type="line"/>
      <point x="846" y="-4" type="line"/>
      <point x="797" y="-23"/>
      <point x="690" y="-42"/>
      <point x="632" y="-42" type="qcurve" smooth="yes"/>
      <point x="390" y="-42"/>
      <point x="87" y="273"/>
      <point x="87" y="514" type="qcurve" smooth="yes"/>
      <point x="87" y="749" type="line"/>
      <point x="87" y="990"/>
      <point x="389" y="1306"/>
      <point x="631" y="1306" type="qcurve" smooth="yes"/>
      <point x="875" y="1306"/>
      <point x="1180" y="990"/>
      <point x="1180" y="749" type="qcurve" smooth="yes"/>
    </contour>
    <contour>
      <point x="918" y="751" type="line"/>
      <point x="918" y="904"/>
      <point x="766" y="1101"/>
      <point x="631" y="1101" type="qcurve" smooth="yes"/>
      <point x="498" y="1101"/>
      <point x="349" y="905"/>
      <point x="349" y="751" type="qcurve" smooth="yes"/>
      <point x="349" y="514" type="line"/>
      <point x="349" y="359"/>
      <point x="499" y="163"/>
      <point x="632" y="163" type="qcurve" smooth="yes"/>
      <point x="767" y="163"/>
      <point x="918" y="359"/>
      <point x="918" y="514" type="qcurve" smooth="yes"/>
    </contour>
  </outline>
</glyph>
<glyph name="R" format="1">
  <advance width="1218"/>
  <unicode hex="0052"/>
  <outline>
    <contour>
      <point x="386" y="523" type="line"/>
      <point x="386" y="0" type="line"/>
      <point x="122" y="0" type="line"/>
      <point x="122" y="1310" type="line"/>
      <point x="616" y="1310" type="line"/>
      <point x="840" y="1310"/>
      <point x="1094" y="1106"/>
      <point x="1094" y="924" type="qcurve"/>
      <point x="1094" y="822"/>
      <point x="987" y="676"/>
      <point x="883" y="630" type="qcurve"/>
      <point x="1000" y="595"/>
      <point x="1102" y="437"/>
      <point x="1102" y="318" type="qcurve"/>
      <point x="1102" y="223" type="line"/>
      <point x="1102" y="168"/>
      <point x="1132" y="48"/>
      <point x="1167" y="19" type="qcurve"/>
      <point x="1167" y="0" type="line"/>
      <point x="897" y="0" type="line"/>
      <point x="861" y="29"/>
      <point x="840" y="163"/>
      <point x="840" y="224" type="qcurve"/>
      <point x="840" y="317" type="line"/>
      <point x="840" y="414"/>
      <point x="733" y="523"/>
      <point x="634" y="523" type="qcurve"/>
    </contour>
    <contour>
      <point x="386" y="727" type="line"/>
      <point x="611" y="727" type="line"/>
      <point x="722" y="727"/>
      <point x="831" y="821"/>
      <point x="831" y="911" type="qcurve"/>
      <point x="831" y="1001"/>
      <point x="721" y="1107"/>
      <point x="616" y="1107" type="qcurve"/>
      <point x="386" y="1107" type="line"/>
    </contour>
  </outline>
</glyph>
<glyph name="S" format="1">
  <advance width="1159"/>
  <unicode hex="0053"/>
  <outline>
    <contour>
      <point x="823" y="341" type="qcurve"/>
      <point x="823" y="418"/>
      <point x="717" y="508"/>
      <point x="582" y="551" type="qcurve"/>
      <point x="346" y="620"/>
      <point x="109" y="803"/>
      <point x="109" y="964" type="qcurve"/>
      <point x="109" y="1125"/>
      <point x="383" y="1329"/>
      <point x="597" y="1329" type="qcurve"/>
      <point x="814" y="1329"/>
      <point x="1084" y="1101"/>
      <point x="1079" y="932" type="qcurve"/>
      <point x="1077" y="926" type="line"/>
      <point x="823" y="926" type="line"/>
      <point x="823" y="1017"/>
      <point x="702" y="1129"/>
      <point x="593" y="1129" type="qcurve"/>
      <point x="488" y="1129"/>
      <point x="371" y="1036"/>
      <point x="371" y="964" type="qcurve"/>
      <point x="371" y="897"/>
      <point x="492" y="813"/>
      <point x="646" y="764" type="qcurve"/>
      <point x="864" y="703"/>
      <point x="1086" y="506"/>
      <point x="1086" y="343" type="qcurve"/>
      <point x="1086" y="175"/>
      <point x="820" y="-19"/>
      <point x="603" y="-19" type="qcurve"/>
      <point x="388" y="-19"/>
      <point x="70" y="201"/>
      <point x="75" y="402" type="qcurve"/>
      <point x="76" y="407" type="line"/>
      <point x="331" y="407" type="line"/>
      <point x="331" y="289"/>
      <point x="474" y="181"/>
      <point x="603" y="181" type="qcurve"/>
      <point x="710" y="181"/>
      <point x="823" y="269"/>
    </contour>
  </outline>
</glyph>
<glyph name="T" format="1">
  <advance width="1052"/>
  <unicode hex="0054"/>
  <outline>
    <contour>
      <point x="1027" y="1107" type="line"/>
      <point x="657" y="1107" type="line"/>
      <point x="657" y="0" type="line"/>
      <point x="394" y="0" type="line"/>
      <point x="394" y="1107" type="line"/>
      <point x="26" y="1107" type="line"/>
      <point x="26" y="1310" type="line"/>
      <point x="1027" y="1310" type="line"/>
    </contour>
  </outline>
</glyph>
<glyph name="U" format="1">
  <advance width="1266"/>
  <unicode hex="0055"/>
  <outline>
    <contour>
      <point x="1159" y="1308" type="line"/>
      <point x="1159" y="440" type="line"/>
      <point x="1159" y="220"/>
      <point x="868" y="-21"/>
      <point x="632" y="-21" type="qcurve" smooth="yes"/>
      <point x="397" y="-21"/>
      <point x="108" y="220"/>
      <point x="108" y="440" type="qcurve" smooth="yes"/>
      <point x="108" y="1308" type="line"/>
      <point x="371" y="1308" type="line"/>
      <point x="371" y="440" type="line"/>
      <point x="371" y="310"/>
      <point x="511" y="182"/>
      <point x="632" y="182" type="qcurve" smooth="yes"/>
      <point x="756" y="182"/>
      <point x="895" y="310"/>
      <point x="895" y="440" type="qcurve" smooth="yes"/>
      <point x="895" y="1308" type="line"/>
    </contour>
  </outline>
</glyph>
<glyph name="V" format="1">
  <advance width="1171"/>
  <unicode hex="0056"/>
  <outline>
    <contour>
      <point x="566" y="346" type="line"/>
      <point x="581" y="280" type="line"/>
      <point x="587" y="280" type="line"/>
      <point x="603" y="344" type="line"/>
      <point x="889" y="1310" type="line"/>
      <point x="1166" y="1310" type="line"/>
      <point x="721" y="0" type="line"/>
      <point x="450" y="0" type="line"/>
      <point x="6" y="1310" type="line"/>
      <point x="283" y="1310" type="line"/>
    </contour>
  </outline>
</glyph>
<glyph name="W" format="1">
  <advance width="1600"/>
  <unicode hex="0057"/>
  <outline>
    <contour>
      <point x="455" y="560" type="line"/>
      <point x="457" y="424" type="line"/>
      <point x="463" y="423" type="line"/>
      <point x="483" y="560" type="line"/>
      <point x="677" y="1310" type="line"/>
      <point x="903" y="1310" type="line"/>
      <point x="1101" y="560" type="line"/>
      <point x="1123" y="416" type="line"/>
      <point x="1128" y="416" type="line"/>
      <point x="1132" y="560" type="line"/>
      <point x="1276" y="1310" type="line"/>
      <point x="1539" y="1310" type="line"/>
      <point x="1248" y="0" type="line"/>
      <point x="1018" y="0" type="line"/>
      <point x="806" y="785" type="line"/>
      <point x="796" y="895" type="line"/>
      <point x="789" y="895" type="line"/>
      <point x="781" y="785" type="line"/>
      <point x="561" y="0" type="line"/>
      <point x="334" y="0" type="line"/>
      <point x="45" y="1310" type="line"/>
      <point x="303" y="1310" type="line"/>
    </contour>
  </outline>
</glyph>
<glyph name="Y" format="1">
  <advance width="1161"/>
  <unicode hex="0059"/>
  <outline>
    <contour>
      <point x="0" y="0" type="line"/>
      <point x="1161" y="0" type="line"/>
      <point x="1161" y="20" type="line"/>
      <point x="0" y="20" type="line"/>
    </contour>
  </outline>
</glyph>
<glyph name="Z" format="1">
  <advance width="1085"/>
  <unicode hex="005A"/>
  <outline>
    <contour>
      <point x="387" y="203" type="line"/>
      <point x="1027" y="203" type="line"/>
      <point x="1027" y="0" type="line"/>
      <point x="69" y="0" type="line"/>
      <point x="69" y="135" type="line"/>
      <point x="692" y="1107" type="line"/>
      <point x="71" y="1107" type="line"/>
      <point x="71" y="1310" type="line"/>
      <point x="1012" y="1310" type="line"/>
      <point x="1012" y="1181" type="line"/>
    </contour>
  </outline>
</glyph>
<glyph name="bracketleft" format="1">
  <advance width="753"/>
  <unicode hex="005B"/>
  <outline>
    <contour>
      <point x="605" y="1328" type="line"/>
      <point x="478" y="1328" type="line"/>
      <point x="478" y="-109" type="line"/>
      <point x="605" y="-109" type="line"/>
      <point x="605" y="-303" type="line"/>
      <point x="215" y="-303" type="line"/>
      <point x="215" y="1523" type="line"/>
      <point x="605" y="1523" type="line"/>
    </contour>
  </outline>
</glyph>
<glyph name="bracketright" format="1">
  <advance width="753"/>
  <unicode hex="005D"/>
  <outline>
    <contour>
      <point x="149" y="1523" type="line"/>
      <point x="539" y="1523" type="line"/>
      <point x="539" y="-303" type="line"/>
      <point x="149" y="-303" type="line"/>
      <point x="149" y="-109" type="line"/>
      <point x="277" y="-109" type="line"/>
      <point x="277" y="1328" type="line"/>
      <point x="149" y="1328" type="line"/>
    </contour>
  </outline>
</glyph>
<glyph name="asciicircum" format="1">
  <advance width="806"/>
  <unicode hex="005E"/>
  <outline>
    <contour>
      <point x="247" y="656" type="line"/>
      <point x="39" y="656" type="line"/>
      <point x="308" y="1310" type="line"/>
      <point x="500" y="1310" type="line"/>
      <point x="769" y="656" type="line"/>
      <point x="561" y="656" type="line"/>
      <point x="412" y="1030" type="line"/>
      <point x="406" y="1061" type="line"/>
      <point x="400" y="1061" type="line"/>
      <point x="393" y="1030" type="line"/>
    </contour>
  </outline>
</glyph>
<glyph name="underscore" format="1">
  <advance width="822"/>
  <unicode hex="005F"/>
  <outline>
    <contour>
      <point x="820" y="-219" type="line"/>
      <point x="1" y="-219" type="line"/>
      <point x="1" y="-22" type="line"/>
      <point x="820" y="-22" type="line"/>
    </contour>
  </outline>
</glyph>
<glyph name="grave" format="1">
  <advance width="610"/>
  <unicode hex="0060"/>
  <outline>
    <contour>
      <point x="527" y="1212" type="line"/>
      <point x="313" y="1212" type="line"/>
      <point x="69" y="1446" type="line"/>
      <point x="71" y="1451" type="line"/>
      <point x="349" y="1451" type="line"/>
    </contour>
  </outline>
</glyph>
<glyph name="a" format="1">
  <advance width="989"/>
  <unicode hex="0061"/>
  <outline>
    <contour>
      <point x="672" y="-1" type="line"/>
      <point x="661" y="29"/>
      <point x="644" y="90"/>
      <point x="639" y="121" type="qcurve"/>
      <point x="594" y="58"/>
      <point x="459" y="-21"/>
      <point x="371" y="-21" type="qcurve" smooth="yes"/>
      <point x="227" y="-21"/>
      <point x="59" y="138"/>
      <point x="59" y="272" type="qcurve" smooth="yes"/>
      <point x="59" y="415"/>
      <point x="278" y="573"/>
      <point x="491" y="573" type="qcurve" smooth="yes"/>
      <point x="628" y="573" type="line"/>
      <point x="628" y="651" type="line"/>
      <point x="628" y="720"/>
      <point x="554" y="798"/>
      <point x="482" y="798" type="qcurve" smooth="yes"/>
      <point x="419" y="798"/>
      <point x="349" y="736"/>
      <point x="349" y="681" type="qcurve"/>
      <point x="96" y="682" type="line"/>
      <point x="94" y="687" type="line"/>
      <point x="88" y="812"/>
      <point x="315" y="990"/>
      <point x="500" y="990" type="qcurve" smooth="yes"/>
      <point x="675" y="990"/>
      <point x="892" y="814"/>
      <point x="892" y="649" type="qcurve" smooth="yes"/>
      <point x="892" y="249" type="line"/>
      <point x="892" y="179"/>
      <point x="913" y="58"/>
      <point x="935" y="-2" type="qcurve"/>
    </contour>
    <contour>
      <point x="442" y="174" type="qcurve" smooth="yes"/>
      <point x="503" y="174"/>
      <point x="604" y="230"/>
      <point x="628" y="270" type="qcurve"/>
      <point x="628" y="425" type="line"/>
      <point x="491" y="425" type="line"/>
      <point x="407" y="425"/>
      <point x="321" y="342"/>
      <point x="321" y="282" type="qcurve" smooth="yes"/>
      <point x="321" y="233"/>
      <point x="386" y="174"/>
    </contour>
  </outline>
</glyph>
<glyph name="b" format="1">
  <advance width="1040"/>
  <unicode hex="0062"/>
  <outline>
    <contour>
      <point x="979" y="461" type="line"/>
      <point x="979" y="242"/>
      <point x="784" y="-19"/>
      <point x="600" y="-19" type="qcurve"/>
      <point x="515" y="-19"/>
      <point x="389" y="52"/>
      <point x="346" y="120" type="qcurve"/>
      <point x="325" y="0" type="line"/>
      <point x="100" y="0" type="line"/>
      <point x="100" y="1404" type="line"/>
      <point x="363" y="1404" type="line"/>
      <point x="363" y="873" type="line"/>
      <point x="405" y="930"/>
      <point x="522" y="992"/>
      <point x="599" y="992" type="qcurve"/>
      <point x="784" y="992"/>
      <point x="979" y="712"/>
      <point x="979" y="480" type="qcurve"/>
    </contour>
    <contour>
      <point x="717" y="480" type="line"/>
      <point x="717" y="622"/>
      <point x="633" y="787"/>
      <point x="533" y="787" type="qcurve"/>
      <point x="472" y="787"/>
      <point x="388" y="736"/>
      <point x="363" y="691" type="qcurve"/>
      <point x="363" y="277" type="line"/>
      <point x="389" y="233"/>
      <point x="472" y="186"/>
      <point x="534" y="186" type="qcurve"/>
      <point x="636" y="186"/>
      <point x="717" y="328"/>
      <point x="717" y="461" type="qcurve"/>
    </contour>
  </outline>
</glyph>
<glyph name="c" format="1">
  <advance width="953"/>
  <unicode hex="0063"/>
  <outline>
    <contour>
      <point x="509" y="184" type="qcurve"/>
      <point x="579" y="184"/>
      <point x="663" y="265"/>
      <point x="663" y="334" type="qcurve"/>
      <point x="903" y="334" type="line"/>
      <point x="905" y="328" type="line"/>
      <point x="908" y="180"/>
      <point x="679" y="-19"/>
      <point x="509" y="-19" type="qcurve"/>
      <point x="291" y="-19"/>
      <point x="55" y="257"/>
      <point x="55" y="473" type="qcurve"/>
      <point x="55" y="500" type="line"/>
      <point x="55" y="715"/>
      <point x="291" y="992"/>
      <point x="507" y="992" type="qcurve"/>
      <point x="689" y="992"/>
      <point x="908" y="787"/>
      <point x="905" y="619" type="qcurve"/>
      <point x="903" y="613" type="line"/>
      <point x="663" y="613" type="line"/>
      <point x="663" y="689"/>
      <point x="581" y="789"/>
      <point x="507" y="789" type="qcurve"/>
      <point x="404" y="789"/>
      <point x="318" y="628"/>
      <point x="318" y="500" type="qcurve"/>
      <point x="318" y="473" type="line"/>
      <point x="318" y="343"/>
      <point x="404" y="184"/>
    </contour>
  </outline>
</glyph>
<glyph name="d" format="1">
  <advance width="1040"/>
  <unicode hex="0064"/>
  <outline>
    <contour>
      <point x="60" y="480" type="line"/>
      <point x="60" y="710"/>
      <point x="259" y="992"/>
      <point x="440" y="992" type="qcurve"/>
      <point x="513" y="992"/>
      <point x="630" y="930"/>
      <point x="674" y="871" type="qcurve"/>
      <point x="674" y="1404" type="line"/>
      <point x="937" y="1404" type="line"/>
      <point x="937" y="0" type="line"/>
      <point x="712" y="0" type="line"/>
      <point x="691" y="120" type="line"/>
      <point x="645" y="52"/>
      <point x="519" y="-19"/>
      <point x="438" y="-19" type="qcurve"/>
      <point x="259" y="-19"/>
      <point x="60" y="244"/>
      <point x="60" y="461" type="qcurve"/>
    </contour>
    <contour>
      <point x="322" y="461" type="line"/>
      <point x="322" y="332"/>
      <point x="408" y="186"/>
      <point x="505" y="186" type="qcurve"/>
      <point x="563" y="186"/>
      <point x="647" y="233"/>
      <point x="674" y="277" type="qcurve"/>
      <point x="674" y="690" type="line"/>
      <point x="647" y="736"/>
      <point x="563" y="787"/>
      <point x="507" y="787" type="qcurve"/>
      <point x="411" y="787"/>
      <point x="322" y="617"/>
      <point x="322" y="480" type="qcurve"/>
    </contour>
  </outline>
</glyph>
<glyph name="e" format="1">
  <advance width="975"/>
  <unicode hex="0065"/>
  <outline>
    <contour>
      <point x="532" y="-19" type="qcurve"/>
      <point x="320" y="-19"/>
      <point x="69" y="251"/>
      <point x="69" y="459" type="qcurve"/>
      <point x="69" y="495" type="line"/>
      <point x="69" y="712"/>
      <point x="307" y="993"/>
      <point x="508" y="992" type="qcurve"/>
      <point x="706" y="992"/>
      <point x="923" y="754"/>
      <point x="923" y="553" type="qcurve"/>
      <point x="923" y="409" type="line"/>
      <point x="343" y="409" type="line"/>
      <point x="340" y="404" type="line"/>
      <point x="348" y="308"/>
      <point x="462" y="184"/>
      <point x="559" y="184" type="qcurve"/>
      <point x="647" y="184"/>
      <point x="761" y="219"/>
      <point x="830" y="256" type="qcurve"/>
      <point x="901" y="94" type="line"/>
      <point x="842" y="45"/>
      <point x="649" y="-19"/>
    </contour>
    <contour>
      <point x="508" y="789" type="qcurve"/>
      <point x="435" y="789"/>
      <point x="350" y="676"/>
      <point x="340" y="587" type="qcurve"/>
      <point x="342" y="582" type="line"/>
      <point x="665" y="582" type="line"/>
      <point x="665" y="606" type="line"/>
      <point x="665" y="690"/>
      <point x="588" y="789"/>
    </contour>
  </outline>
</glyph>
<glyph name="f" format="1">
  <advance width="658"/>
  <unicode hex="0066"/>
  <outline>
    <contour>
      <point x="168" y="0" type="line"/>
      <point x="168" y="789" type="line"/>
      <point x="24" y="789" type="line"/>
      <point x="24" y="974" type="line"/>
      <point x="168" y="974" type="line"/>
      <point x="168" y="1082" type="line"/>
      <point x="168" y="1246"/>
      <point x="357" y="1423"/>
      <point x="529" y="1423" type="qcurve" smooth="yes"/>
      <point x="562" y="1423"/>
      <point x="631" y="1413"/>
      <point x="673" y="1404" type="qcurve"/>
      <point x="650" y="1209" type="line"/>
      <point x="629" y="1213"/>
      <point x="588" y="1218"/>
      <point x="561" y="1218" type="qcurve" smooth="yes"/>
      <point x="498" y="1218"/>
      <point x="431" y="1148"/>
      <point x="431" y="1082" type="qcurve" smooth="yes"/>
      <point x="431" y="974" type="line"/>
      <point x="625" y="974" type="line"/>
      <point x="625" y="789" type="line"/>
      <point x="431" y="789" type="line"/>
      <point x="431" y="0" type="line"/>
    </contour>
  </outline>
</glyph>
<glyph name="g" format="1">
  <advance width="1040"/>
  <unicode hex="0067"/>
  <outline>
    <contour>
      <point x="60" y="436" type="line"/>
      <point x="60" y="666"/>
      <point x="261" y="948"/>
      <point x="442" y="948" type="qcurve" smooth="yes"/>
      <point x="524" y="948"/>
      <point x="648" y="874"/>
      <point x="693" y="806" type="qcurve"/>
      <point x="713" y="930" type="line"/>
      <point x="939" y="930" type="line"/>
      <point x="939" y="-20" type="line"/>
      <point x="939" y="-212"/>
      <point x="687" y="-437"/>
      <point x="468" y="-437" type="qcurve" smooth="yes"/>
      <point x="394" y="-437"/>
      <point x="229" y="-397"/>
      <point x="158" y="-362" type="qcurve"/>
      <point x="206" y="-166" type="line"/>
      <point x="267" y="-193"/>
      <point x="392" y="-223"/>
      <point x="466" y="-223" type="qcurve" smooth="yes"/>
      <point x="571" y="-223"/>
      <point x="676" y="-117"/>
      <point x="676" y="-19" type="qcurve" smooth="yes"/>
      <point x="676" y="50" type="line"/>
      <point x="633" y="-5"/>
      <point x="515" y="-63"/>
      <point x="440" y="-63" type="qcurve" smooth="yes"/>
      <point x="260" y="-63"/>
      <point x="60" y="202"/>
      <point x="60" y="417" type="qcurve" smooth="yes"/>
    </contour>
    <contour>
      <point x="322" y="417" type="line"/>
      <point x="322" y="290"/>
      <point x="410" y="142"/>
      <point x="506" y="142" type="qcurve" smooth="yes"/>
      <point x="566" y="142"/>
      <point x="649" y="186"/>
      <point x="676" y="230" type="qcurve"/>
      <point x="676" y="651" type="line"/>
      <point x="650" y="694"/>
      <point x="566" y="743"/>
      <point x="508" y="743" type="qcurve" smooth="yes"/>
      <point x="412" y="743"/>
      <point x="322" y="574"/>
      <point x="322" y="436" type="qcurve" smooth="yes"/>
    </contour>
  </outline>
</glyph>
<glyph name="h" format="1">
  <advance width="1040"/>
  <unicode hex="0068"/>
  <outline>
    <contour>
      <point x="357" y="850" type="line"/>
      <point x="403" y="917"/>
      <point x="537" y="992"/>
      <point x="617" y="992" type="qcurve" smooth="yes"/>
      <point x="770" y="992"/>
      <point x="943" y="789"/>
      <point x="943" y="576" type="qcurve" smooth="yes"/>
      <point x="943" y="0" type="line"/>
      <point x="680" y="0" type="line"/>
      <point x="680" y="578" type="line"/>
      <point x="680" y="693"/>
      <point x="601" y="787"/>
      <point x="520" y="787" type="qcurve" smooth="yes"/>
      <point x="467" y="787"/>
      <point x="384" y="747"/>
      <point x="357" y="712" type="qcurve"/>
      <point x="357" y="0" type="line"/>
      <point x="94" y="0" type="line"/>
      <point x="94" y="1404" type="line"/>
      <point x="357" y="1404" type="line"/>
    </contour>
  </outline>
</glyph>
<glyph name="j" format="1">
  <advance width="488"/>
  <unicode hex="006A"/>
  <outline>
    <contour>
      <point x="384" y="974" type="line"/>
      <point x="384" y="-35" type="line"/>
      <point x="384" y="-206"/>
      <point x="202" y="-393"/>
      <point x="40" y="-393" type="qcurve"/>
      <point x="4" y="-393"/>
      <point x="-55" y="-386"/>
      <point x="-89" y="-378" type="qcurve"/>
      <point x="-77" y="-178" type="line"/>
      <point x="-55" y="-183"/>
      <point x="-15" y="-188"/>
      <point x="9" y="-188" type="qcurve"/>
      <point x="62" y="-188"/>
      <point x="120" y="-113"/>
      <point x="120" y="-35" type="qcurve"/>
      <point x="120" y="974" type="line"/>
    </contour>
    <contour>
      <point x="379" y="1209" type="line"/>
      <point x="115" y="1209" type="line"/>
      <point x="115" y="1404" type="line"/>
      <point x="379" y="1404" type="line"/>
    </contour>
  </outline>
</glyph>
<glyph name="k" format="1">
  <advance width="987"/>
  <unicode hex="006B"/>
  <outline>
    <contour>
      <point x="436" y="407" type="line"/>
      <point x="364" y="407" type="line"/>
      <point x="364" y="0" type="line"/>
      <point x="100" y="0" type="line"/>
      <point x="100" y="1404" type="line"/>
      <point x="364" y="1404" type="line"/>
      <point x="364" y="608" type="line"/>
      <point x="427" y="608" type="line"/>
      <point x="655" y="974" type="line"/>
      <point x="958" y="974" type="line"/>
      <point x="646" y="533" type="line"/>
      <point x="1006" y="0" type="line"/>
      <point x="704" y="0" type="line"/>
    </contour>
  </outline>
</glyph>
<glyph name="l" format="1">
  <advance width="492"/>
  <unicode hex="006C"/>
  <outline>
    <contour>
      <point x="377" y="0" type="line"/>
      <point x="114" y="0" type="line"/>
      <point x="114" y="1404" type="line"/>
      <point x="377" y="1404" type="line"/>
    </contour>
  </outline>
</glyph>
<glyph name="m" format="1">
  <advance width="1598"/>
  <unicode hex="006D"/>
  <outline>
    <contour>
      <point x="343" y="974" type="line"/>
      <point x="352" y="833" type="line"/>
      <point x="398" y="909"/>
      <point x="542" y="992"/>
      <point x="637" y="992" type="qcurve" smooth="yes"/>
      <point x="733" y="992"/>
      <point x="869" y="905"/>
      <point x="901" y="815" type="qcurve"/>
      <point x="945" y="899"/>
      <point x="1093" y="992"/>
      <point x="1193" y="992" type="qcurve" smooth="yes"/>
      <point x="1338" y="992"/>
      <point x="1501" y="795"/>
      <point x="1501" y="587" type="qcurve" smooth="yes"/>
      <point x="1501" y="0" type="line"/>
      <point x="1238" y="0" type="line"/>
      <point x="1238" y="587" type="line"/>
      <point x="1238" y="701"/>
      <point x="1165" y="788"/>
      <point x="1095" y="788" type="qcurve" smooth="yes"/>
      <point x="1033" y="788"/>
      <point x="951" y="731"/>
      <point x="928" y="684" type="qcurve"/>
      <point x="928" y="668"/>
      <point x="930" y="646"/>
      <point x="930" y="634" type="qcurve" smooth="yes"/>
      <point x="930" y="0" type="line"/>
      <point x="667" y="0" type="line"/>
      <point x="667" y="587" type="line"/>
      <point x="667" y="701"/>
      <point x="594" y="788"/>
      <point x="523" y="788" type="qcurve" smooth="yes"/>
      <point x="464" y="788"/>
      <point x="382" y="733"/>
      <point x="359" y="686" type="qcurve"/>
      <point x="359" y="0" type="line"/>
      <point x="96" y="0" type="line"/>
      <point x="96" y="974" type="line"/>
    </contour>
  </outline>
</glyph>
<glyph name="n" format="1">
  <advance width="1040"/>
  <unicode hex="006E"/>
  <outline>
    <contour>
      <point x="340" y="974" type="line"/>
      <point x="353" y="834" type="line"/>
      <point x="401" y="909"/>
      <point x="543" y="992"/>
      <point x="632" y="992" type="qcurve"/>
      <point x="780" y="992"/>
      <point x="945" y="806"/>
      <point x="945" y="608" type="qcurve"/>
      <point x="945" y="0" type="line"/>
      <point x="681" y="0" type="line"/>
      <point x="681" y="607" type="line"/>
      <point x="681" y="705"/>
      <point x="602" y="787"/>
      <point x="522" y="787" type="qcurve"/>
      <point x="468" y="787"/>
      <point x="386" y="742"/>
      <point x="359" y="703" type="qcurve"/>
      <point x="359" y="0" type="line"/>
      <point x="97" y="0" type="line"/>
      <point x="97" y="974" type="line"/>
    </contour>
  </outline>
</glyph>
<glyph name="o" format="1">
  <advance width="1040"/>
  <unicode hex="006F"/>
  <outline>
    <contour>
      <point x="59" y="494" type="line"/>
      <point x="59" y="712"/>
      <point x="303" y="990"/>
      <point x="519" y="990" type="qcurve" smooth="yes"/>
      <point x="735" y="990"/>
      <point x="979" y="712"/>
      <point x="979" y="494" type="qcurve" smooth="yes"/>
      <point x="979" y="475" type="line"/>
      <point x="979" y="255"/>
      <point x="735" y="-21"/>
      <point x="520" y="-21" type="qcurve" smooth="yes"/>
      <point x="303" y="-21"/>
      <point x="59" y="255"/>
      <point x="59" y="475" type="qcurve" smooth="yes"/>
    </contour>
    <contour>
      <point x="322" y="475" type="line"/>
      <point x="322" y="342"/>
      <point x="417" y="182"/>
      <point x="520" y="182" type="qcurve" smooth="yes"/>
      <point x="622" y="182"/>
      <point x="717" y="342"/>
      <point x="717" y="475" type="qcurve" smooth="yes"/>
      <point x="717" y="494" type="line"/>
      <point x="717" y="624"/>
      <point x="622" y="787"/>
      <point x="519" y="787" type="qcurve" smooth="yes"/>
      <point x="417" y="787"/>
      <point x="322" y="623"/>
      <point x="322" y="494" type="qcurve" smooth="yes"/>
    </contour>
  </outline>
</glyph>
<glyph name="p" format="1">
  <advance width="1040"/>
  <unicode hex="0070"/>
  <outline>
    <contour>
      <point x="978" y="461" type="line"/>
      <point x="978" y="244"/>
      <point x="779" y="-19"/>
      <point x="600" y="-19" type="qcurve"/>
      <point x="524" y="-19"/>
      <point x="406" y="37"/>
      <point x="363" y="91" type="qcurve"/>
      <point x="363" y="-374" type="line"/>
      <point x="100" y="-374" type="line"/>
      <point x="100" y="974" type="line"/>
      <point x="337" y="974" type="line"/>
      <point x="353" y="861" type="line"/>
      <point x="396" y="924"/>
      <point x="518" y="992"/>
      <point x="598" y="992" type="qcurve"/>
      <point x="779" y="992"/>
      <point x="978" y="710"/>
      <point x="978" y="480" type="qcurve"/>
    </contour>
    <contour>
      <point x="716" y="480" type="line"/>
      <point x="716" y="616"/>
      <point x="625" y="787"/>
      <point x="531" y="787" type="qcurve"/>
      <point x="471" y="787"/>
      <point x="388" y="739"/>
      <point x="363" y="695" type="qcurve"/>
      <point x="363" y="267" type="line"/>
      <point x="388" y="227"/>
      <point x="471" y="184"/>
      <point x="532" y="184" type="qcurve"/>
      <point x="628" y="184"/>
      <point x="716" y="333"/>
      <point x="716" y="461" type="qcurve"/>
    </contour>
  </outline>
</glyph>
<glyph name="q" format="1">
  <advance width="1040"/>
  <unicode hex="0071"/>
  <outline>
    <contour>
      <point x="60" y="438" type="line"/>
      <point x="60" y="668"/>
      <point x="259" y="950"/>
      <point x="440" y="950" type="qcurve" smooth="yes"/>
      <point x="521" y="950"/>
      <point x="644" y="879"/>
      <point x="688" y="813" type="qcurve"/>
      <point x="713" y="932" type="line"/>
      <point x="934" y="932" type="line"/>
      <point x="934" y="-416" type="line"/>
      <point x="672" y="-416" type="line"/>
      <point x="672" y="49" type="line"/>
      <point x="629" y="-5"/>
      <point x="512" y="-60"/>
      <point x="438" y="-60" type="qcurve" smooth="yes"/>
      <point x="259" y="-60"/>
      <point x="60" y="203"/>
      <point x="60" y="419" type="qcurve" smooth="yes"/>
    </contour>
    <contour>
      <point x="323" y="419" type="line"/>
      <point x="323" y="291"/>
      <point x="409" y="143"/>
      <point x="505" y="143" type="qcurve" smooth="yes"/>
      <point x="563" y="143"/>
      <point x="645" y="185"/>
      <point x="672" y="225" type="qcurve"/>
      <point x="672" y="659" type="line"/>
      <point x="645" y="701"/>
      <point x="564" y="747"/>
      <point x="507" y="747" type="qcurve" smooth="yes"/>
      <point x="411" y="747"/>
      <point x="323" y="576"/>
      <point x="323" y="438" type="qcurve" smooth="yes"/>
    </contour>
  </outline>
</glyph>
<glyph name="r" format="1">
  <advance width="665"/>
  <unicode hex="0072"/>
  <outline>
    <contour>
      <point x="621" y="742" type="line"/>
      <point x="517" y="745" type="line"/>
      <point x="458" y="745"/>
      <point x="383" y="699"/>
      <point x="363" y="658" type="qcurve"/>
      <point x="363" y="0" type="line"/>
      <point x="100" y="0" type="line"/>
      <point x="100" y="974" type="line"/>
      <point x="345" y="974" type="line"/>
      <point x="357" y="831" type="line"/>
      <point x="392" y="907"/>
      <point x="499" y="992"/>
      <point x="570" y="992" type="qcurve" smooth="yes"/>
      <point x="592" y="992"/>
      <point x="634" y="986"/>
      <point x="649" y="981" type="qcurve"/>
    </contour>
  </outline>
</glyph>
<glyph name="s" format="1">
  <advance width="950"/>
  <unicode hex="0073"/>
  <outline>
    <contour>
      <point x="627" y="269" type="qcurve"/>
      <point x="627" y="312"/>
      <point x="543" y="374"/>
      <point x="429" y="399" type="qcurve"/>
      <point x="257" y="434"/>
      <point x="82" y="571"/>
      <point x="82" y="691" type="qcurve"/>
      <point x="82" y="817"/>
      <point x="293" y="992"/>
      <point x="471" y="992" type="qcurve"/>
      <point x="657" y="992"/>
      <point x="877" y="818"/>
      <point x="873" y="684" type="qcurve"/>
      <point x="871" y="679" type="line"/>
      <point x="617" y="679" type="line"/>
      <point x="617" y="739"/>
      <point x="543" y="812"/>
      <point x="470" y="812" type="qcurve"/>
      <point x="407" y="812"/>
      <point x="333" y="749"/>
      <point x="333" y="703" type="qcurve"/>
      <point x="333" y="658"/>
      <point x="410" y="601"/>
      <point x="527" y="577" type="qcurve"/>
      <point x="708" y="541"/>
      <point x="881" y="402"/>
      <point x="881" y="279" type="qcurve"/>
      <point x="881" y="148"/>
      <point x="656" y="-19"/>
      <point x="472" y="-19" type="qcurve"/>
      <point x="277" y="-19"/>
      <point x="51" y="179"/>
      <point x="57" y="303" type="qcurve"/>
      <point x="59" y="308" type="line"/>
      <point x="299" y="308" type="line"/>
      <point x="302" y="231"/>
      <point x="399" y="162"/>
      <point x="477" y="162" type="qcurve"/>
      <point x="550" y="162"/>
      <point x="627" y="218"/>
    </contour>
  </outline>
</glyph>
<glyph name="t" format="1">
  <advance width="658"/>
  <unicode hex="0074"/>
  <outline>
    <contour>
      <point x="419" y="1212" type="line"/>
      <point x="419" y="972" type="line"/>
      <point x="590" y="972" type="line"/>
      <point x="590" y="787" type="line"/>
      <point x="419" y="787" type="line"/>
      <point x="419" y="294" type="line"/>
      <point x="419" y="236"/>
      <point x="466" y="187"/>
      <point x="506" y="187" type="qcurve" smooth="yes"/>
      <point x="531" y="187"/>
      <point x="565" y="191"/>
      <point x="587" y="197" type="qcurve"/>
      <point x="609" y="6" type="line"/>
      <point x="568" y="-7"/>
      <point x="489" y="-21"/>
      <point x="439" y="-21" type="qcurve" smooth="yes"/>
      <point x="303" y="-21"/>
      <point x="157" y="130"/>
      <point x="157" y="292" type="qcurve" smooth="yes"/>
      <point x="157" y="787" type="line"/>
      <point x="14" y="787" type="line"/>
      <point x="14" y="972" type="line"/>
      <point x="157" y="972" type="line"/>
      <point x="157" y="1212" type="line"/>
    </contour>
  </outline>
</glyph>
<glyph name="u" format="1">
  <advance width="1040"/>
  <unicode hex="0075"/>
  <outline>
    <contour>
      <point x="695" y="124" type="line"/>
      <point x="649" y="55"/>
      <point x="510" y="-19"/>
      <point x="422" y="-19" type="qcurve"/>
      <point x="268" y="-19"/>
      <point x="94" y="178"/>
      <point x="94" y="387" type="qcurve"/>
      <point x="94" y="974" type="line"/>
      <point x="356" y="974" type="line"/>
      <point x="356" y="385" type="line"/>
      <point x="356" y="278"/>
      <point x="428" y="186"/>
      <point x="498" y="186" type="qcurve"/>
      <point x="562" y="186"/>
      <point x="652" y="229"/>
      <point x="680" y="270" type="qcurve"/>
      <point x="680" y="974" type="line"/>
      <point x="943" y="974" type="line"/>
      <point x="943" y="0" type="line"/>
      <point x="712" y="0" type="line"/>
    </contour>
  </outline>
</glyph>
<glyph name="v" format="1">
  <advance width="941"/>
  <unicode hex="0076"/>
  <outline>
    <contour>
      <point x="452" y="364" type="line"/>
      <point x="469" y="272" type="line"/>
      <point x="474" y="272" type="line"/>
      <point x="493" y="364" type="line"/>
      <point x="653" y="974" type="line"/>
      <point x="927" y="974" type="line"/>
      <point x="597" y="0" type="line"/>
      <point x="345" y="0" type="line"/>
      <point x="13" y="974" type="line"/>
      <point x="288" y="974" type="line"/>
    </contour>
  </outline>
</glyph>
<glyph name="w" format="1">
  <advance width="1395"/>
  <unicode hex="0077"/>
  <outline>
    <contour>
      <point x="411" y="404" type="line"/>
      <point x="412" y="342" type="line"/>
      <point x="417" y="342" type="line"/>
      <point x="416" y="404" type="line"/>
      <point x="594" y="974" type="line"/>
      <point x="799" y="974" type="line"/>
      <point x="979" y="404" type="line"/>
      <point x="983" y="319" type="line"/>
      <point x="989" y="318" type="line"/>
      <point x="997" y="404" type="line"/>
      <point x="1120" y="974" type="line"/>
      <point x="1377" y="974" type="line"/>
      <point x="1094" y="0" type="line"/>
      <point x="888" y="0" type="line"/>
      <point x="735" y="499" type="line"/>
      <point x="697" y="667" type="line"/>
      <point x="691" y="665" type="line"/>
      <point x="658" y="499" type="line"/>
      <point x="507" y="0" type="line"/>
      <point x="300" y="0" type="line"/>
      <point x="18" y="974" type="line"/>
      <point x="275" y="974" type="line"/>
    </contour>
  </outline>
</glyph>
<glyph name="x" format="1">
  <advance width="959"/>
  <unicode hex="0078"/>
  <outline>
    <contour>
      <point x="472" y="664" type="line"/>
      <point x="609" y="974" type="line"/>
      <point x="914" y="974" type="line"/>
      <point x="616" y="487" type="line"/>
      <point x="917" y="0" type="line"/>
      <point x="618" y="0" type="line"/>
      <point x="479" y="308" type="line"/>
      <point x="339" y="0" type="line"/>
      <point x="35" y="0" type="line"/>
      <point x="336" y="487" type="line"/>
      <point x="38" y="974" type="line"/>
      <point x="340" y="974" type="line"/>
    </contour>
  </outline>
</glyph>
<glyph name="y" format="1">
  <advance width="941"/>
  <unicode hex="0079"/>
  <outline>
    <contour>
      <point x="452" y="364" type="line"/>
      <point x="462" y="319" type="line"/>
      <point x="468" y="319" type="line"/>
      <point x="654" y="930" type="line"/>
      <point x="937" y="930" type="line"/>
      <point x="542" y="-190" type="line"/>
      <point x="500" y="-295"/>
      <point x="359" y="-437"/>
      <point x="217" y="-437" type="qcurve" smooth="yes"/>
      <point x="182" y="-437"/>
      <point x="127" y="-427"/>
      <point x="85" y="-417" type="qcurve"/>
      <point x="116" y="-225" type="line"/>
      <point x="123" y="-226"/>
      <point x="155" y="-230"/>
      <point x="165" y="-230" type="qcurve" smooth="yes"/>
      <point x="232" y="-230"/>
      <point x="301" y="-169"/>
      <point x="319" y="-120" type="qcurve" smooth="yes"/>
      <point x="349" y="-44" type="line"/>
      <point x="4" y="930" type="line"/>
      <point x="287" y="930" type="line"/>
    </contour>
  </outline>
</glyph>
<glyph name="z" format="1">
  <advance width="941"/>
  <unicode hex="007A"/>
  <outline>
    <contour>
      <point x="395" y="203" type="line"/>
      <point x="877" y="203" type="line"/>
      <point x="877" y="0" type="line"/>
      <point x="67" y="0" type="line"/>
      <point x="67" y="154" type="line"/>
      <point x="530" y="770" type="line"/>
      <point x="82" y="770" type="line"/>
      <point x="82" y="974" type="line"/>
      <point x="861" y="974" type="line"/>
      <point x="861" y="824" type="line"/>
    </contour>
  </outline>
</glyph>
<glyph name="braceleft" format="1">
  <advance width="850"/>
  <unicode hex="007B"/>
  <outline>
    <contour>
      <point x="633" y="-325" type="line"/>
      <point x="457" y="-276"/>
      <point x="310" y="-60"/>
      <point x="310" y="94" type="qcurve"/>
      <point x="310" y="277" type="line"/>
      <point x="310" y="366"/>
      <point x="231" y="465"/>
      <point x="150" y="465" type="qcurve"/>
      <point x="150" y="647" type="line"/>
      <point x="231" y="647"/>
      <point x="310" y="745"/>
      <point x="310" y="835" type="qcurve"/>
      <point x="310" y="1019" type="line"/>
      <point x="310" y="1173"/>
      <point x="457" y="1388"/>
      <point x="633" y="1437" type="qcurve"/>
      <point x="683" y="1296" type="line"/>
      <point x="607" y="1268"/>
      <point x="545" y="1126"/>
      <point x="545" y="1019" type="qcurve"/>
      <point x="545" y="835" type="line"/>
      <point x="545" y="741"/>
      <point x="464" y="597"/>
      <point x="382" y="556" type="qcurve"/>
      <point x="464" y="514"/>
      <point x="545" y="369"/>
      <point x="545" y="277" type="qcurve"/>
      <point x="545" y="94" type="line"/>
      <point x="545" y="-12"/>
      <point x="607" y="-155"/>
      <point x="683" y="-183" type="qcurve"/>
    </contour>
  </outline>
</glyph>
<glyph name="asciitilde" format="1">
  <advance width="1193"/>
  <unicode hex="007E"/>
  <outline>
    <contour>
      <point x="1097" y="684" type="line"/>
      <point x="1097" y="538"/>
      <point x="938" y="340"/>
      <point x="817" y="340" type="qcurve"/>
      <point x="740" y="340"/>
      <point x="611" y="396"/>
      <point x="540" y="460" type="qcurve"/>
      <point x="494" y="500"/>
      <point x="426" y="536"/>
      <point x="387" y="536" type="qcurve"/>
      <point x="341" y="536"/>
      <point x="276" y="444"/>
      <point x="276" y="379" type="qcurve"/>
      <point x="95" y="403" type="line"/>
      <point x="95" y="549"/>
      <point x="250" y="743"/>
      <point x="373" y="743" type="qcurve"/>
      <point x="448" y="743"/>
      <point x="583" y="683"/>
      <point x="652" y="624" type="qcurve"/>
      <point x="695" y="583"/>
      <point x="764" y="547"/>
      <point x="803" y="547" type="qcurve"/>
      <point x="848" y="547"/>
      <point x="914" y="641"/>
      <point x="914" y="708" type="qcurve"/>
    </contour>
  </outline>
</glyph>
<glyph name="exclamdown" format="1">
  <advance width="520"/>
  <unicode hex="00A1"/>
  <outline>
    <contour>
      <point x="154" y="542" type="line"/>
      <point x="369" y="542" type="line"/>
      <point x="398" y="-368" type="line"/>
      <point x="123" y="-368" type="line"/>
    </contour>
    <contour>
      <point x="406" y="822" type="qcurve" smooth="yes"/>
      <point x="406" y="763"/>
      <point x="326" y="687"/>
      <point x="261" y="687" type="qcurve" smooth="yes" name="inserted"/>
      <point x="197" y="687"/>
      <point x="116" y="763"/>
      <point x="116" y="822" type="qcurve" smooth="yes" name="inserted"/>
      <point x="116" y="879"/>
      <point x="197" y="955"/>
      <point x="261" y="955" type="qcurve" smooth="yes" name="inserted"/>
      <point x="326" y="955"/>
      <point x="406" y="879"/>
    </contour>
  </outline>
</glyph>
<glyph name="cent" format="1">
  <advance width="1014"/>
  <unicode hex="00A2"/>
  <outline>
    <contour>
      <point x="533" y="152" type="qcurve" smooth="yes"/>
      <point x="594" y="152"/>
      <point x="702" y="239"/>
      <point x="709" y="289" type="qcurve"/>
      <point x="939" y="289" type="line"/>
      <point x="936" y="191"/>
      <point x="765" y="3"/>
      <point x="641" y="-30" type="qcurve"/>
      <point x="641" y="-245" type="line"/>
      <point x="397" y="-245" type="line"/>
      <point x="397" y="-29" type="line"/>
      <point x="243" y="16"/>
      <point x="77" y="268"/>
      <point x="77" y="451" type="qcurve" smooth="yes"/>
      <point x="77" y="481" type="line"/>
      <point x="77" y="655"/>
      <point x="245" y="910"/>
      <point x="397" y="953" type="qcurve"/>
      <point x="397" y="1162" type="line"/>
      <point x="641" y="1162" type="line"/>
      <point x="641" y="958" type="line"/>
      <point x="769" y="929"/>
      <point x="935" y="733"/>
      <point x="939" y="606" type="qcurve"/>
      <point x="709" y="606" type="line"/>
      <point x="702" y="675"/>
      <point x="601" y="772"/>
      <point x="534" y="772" type="qcurve" smooth="yes"/>
      <point x="433" y="772"/>
      <point x="323" y="624"/>
      <point x="323" y="475" type="qcurve" smooth="yes"/>
      <point x="323" y="444" type="line"/>
      <point x="323" y="299"/>
      <point x="431" y="152"/>
    </contour>
  </outline>
</glyph>
<glyph name="sterling" format="1">
  <advance width="1095"/>
  <unicode hex="00A3"/>
  <outline>
    <contour>
      <point x="509" y="523" type="line"/>
      <point x="514" y="390" type="line"/>
      <point x="514" y="334" name="inserted"/>
      <point x="487" y="243"/>
      <point x="460" y="210" type="qcurve"/>
      <point x="1044" y="210" type="line"/>
      <point x="1044" y="0" type="line"/>
      <point x="92" y="0" type="line"/>
      <point x="92" y="210" type="line"/>
      <point x="177" y="210" type="line"/>
      <point x="207" y="217"/>
      <point x="239" y="287"/>
      <point x="241" y="342" type="qcurve" smooth="yes"/>
      <point x="241" y="376" type="line"/>
      <point x="236" y="523" type="line"/>
      <point x="89" y="523" type="line"/>
      <point x="89" y="727" type="line"/>
      <point x="229" y="727" type="line"/>
      <point x="223" y="935" type="line"/>
      <point x="223" y="1118"/>
      <point x="443" y="1328"/>
      <point x="629" y="1328" type="qcurve" smooth="yes"/>
      <point x="821" y="1328"/>
      <point x="1038" y="1127"/>
      <point x="1038" y="954" type="qcurve"/>
      <point x="782" y="954" type="line"/>
      <point x="782" y="1034"/>
      <point x="704" y="1118"/>
      <point x="630" y="1118" type="qcurve" smooth="yes"/>
      <point x="568" y="1118"/>
      <point x="493" y="1024"/>
      <point x="493" y="935" type="qcurve" smooth="yes"/>
      <point x="501" y="727" type="line"/>
      <point x="780" y="727" type="line"/>
      <point x="780" y="523" type="line"/>
    </contour>
  </outline>
</glyph>
<glyph name="currency" format="1">
  <advance width="1288"/>
  <unicode hex="00A4"/>
  <outline>
    <contour>
      <point x="959" y="71" type="line"/>
      <point x="888" y="23"/>
      <point x="740" y="-21"/>
      <point x="656" y="-21" type="qcurve" smooth="yes" name="inserted"/>
      <point x="572" y="-21"/>
      <point x="427" y="22"/>
      <point x="356" y="69" type="qcurve"/>
      <point x="261" y="-26" type="line"/>
      <point x="90" y="153" type="line"/>
      <point x="190" y="255" type="line"/>
      <point x="155" y="321" name="inserted"/>
      <point x="121" y="465"/>
      <point x="121" y="545" type="qcurve" smooth="yes"/>
      <point x="121" y="625" name="inserted"/>
      <point x="158" y="774"/>
      <point x="196" y="844" type="qcurve"/>
      <point x="90" y="954" type="line"/>
      <point x="261" y="1135" type="line"/>
      <point x="368" y="1026" type="line"/>
      <point x="435" y="1067" name="inserted"/>
      <point x="579" y="1108"/>
      <point x="656" y="1108" type="qcurve" smooth="yes"/>
      <point x="732" y="1108"/>
      <point x="874" y="1069"/>
      <point x="946" y="1025" type="qcurve"/>
      <point x="1054" y="1136" type="line"/>
      <point x="1229" y="954" type="line"/>
      <point x="1118" y="841" type="line"/>
      <point x="1155" y="773" name="inserted"/>
      <point x="1192" y="624"/>
      <point x="1192" y="545" type="qcurve" smooth="yes"/>
      <point x="1192" y="467" name="inserted"/>
      <point x="1157" y="325"/>
      <point x="1123" y="258" type="qcurve"/>
      <point x="1229" y="153" type="line"/>
      <point x="1054" y="-27" type="line"/>
    </contour>
    <contour>
      <point x="345" y="545" type="qcurve" smooth="yes"/>
      <point x="345" y="453"/>
      <point x="428" y="296"/>
      <point x="502" y="250" type="qcurve" smooth="yes" name="inserted"/>
      <point x="611" y="182" name="inserted"/>
      <point x="869" y="205"/>
      <point x="973" y="298" type="qcurve" smooth="yes"/>
      <point x="1035" y="390"/>
      <point x="1052" y="616"/>
      <point x="1008" y="721" type="qcurve" smooth="yes" name="inserted"/>
      <point x="986" y="862" name="inserted"/>
      <point x="794" y="1093"/>
      <point x="644" y="1138" type="qcurve" smooth="yes"/>
      <point x="571" y="1091"/>
      <point x="500" y="975"/>
      <point x="493" y="928" type="qcurve" smooth="yes" name="inserted"/>
      <point x="398" y="881"/>
      <point x="276" y="700"/>
      <point x="267" y="588" type="qcurve" smooth="yes" name="inserted"/>
      <point x="301" y="554"/>
      <point x="345" y="543"/>
    </contour>
  </outline>
</glyph>
<glyph name="yen" format="1">
  <advance width="1127"/>
  <unicode hex="00A5"/>
  <outline>
    <contour>
      <point x="564" y="763" type="line"/>
      <point x="814" y="1310" type="line"/>
      <point x="1108" y="1310" type="line"/>
      <point x="766" y="666" type="line"/>
      <point x="981" y="666" type="line"/>
      <point x="981" y="514" type="line"/>
      <point x="695" y="514" type="line"/>
      <point x="695" y="405" type="line"/>
      <point x="981" y="405" type="line"/>
      <point x="981" y="254" type="line"/>
      <point x="695" y="254" type="line"/>
      <point x="695" y="0" type="line"/>
      <point x="427" y="0" type="line"/>
      <point x="427" y="254" type="line"/>
      <point x="122" y="254" type="line"/>
      <point x="122" y="405" type="line"/>
      <point x="427" y="405" type="line"/>
      <point x="427" y="514" type="line"/>
      <point x="122" y="514" type="line"/>
      <point x="122" y="666" type="line"/>
      <point x="361" y="666" type="line"/>
      <point x="19" y="1310" type="line"/>
      <point x="314" y="1310" type="line"/>
    </contour>
  </outline>
</glyph>
<glyph name="dieresis" format="1">
  <advance width="866"/>
  <unicode hex="00A8"/>
  <outline>
    <contour>
      <point x="178" y="1435" type="qcurve" smooth="yes"/>
      <point x="216" y="1448"/>
      <point x="285" y="1419"/>
      <point x="301" y="1386" type="qcurve" smooth="yes" name="inserted"/>
      <point x="317" y="1352"/>
      <point x="280" y="1287"/>
      <point x="242" y="1274" type="qcurve" smooth="yes" name="inserted"/>
      <point x="203" y="1261"/>
      <point x="134" y="1290"/>
      <point x="118" y="1324" type="qcurve" smooth="yes" name="inserted"/>
      <point x="103" y="1357"/>
      <point x="139" y="1422"/>
    </contour>
    <contour>
      <point x="619" y="1435" type="qcurve" smooth="yes"/>
      <point x="657" y="1448"/>
      <point x="726" y="1419"/>
      <point x="742" y="1385" type="qcurve" smooth="yes" name="inserted"/>
      <point x="758" y="1352"/>
      <point x="721" y="1286"/>
      <point x="683" y="1273" type="qcurve" smooth="yes" name="inserted"/>
      <point x="644" y="1260"/>
      <point x="575" y="1290"/>
      <point x="559" y="1323" type="qcurve" smooth="yes" name="inserted"/>
      <point x="544" y="1356"/>
      <point x="580" y="1421"/>
    </contour>
  </outline>
</glyph>
<glyph name="copyright" format="1">
  <advance width="1446"/>
  <unicode hex="00A9"/>
  <outline>
    <contour>
      <point x="998" y="536" type="line"/>
      <point x="1000" y="531" type="line"/>
      <point x="1004" y="395"/>
      <point x="845" y="254"/>
      <point x="704" y="254" type="qcurve"/>
      <point x="560" y="254"/>
      <point x="390" y="445"/>
      <point x="390" y="602" type="qcurve"/>
      <point x="390" y="709" type="line"/>
      <point x="390" y="865"/>
      <point x="560" y="1057"/>
      <point x="704" y="1057" type="qcurve"/>
      <point x="845" y="1057"/>
      <point x="1004" y="914"/>
      <point x="1001" y="780" type="qcurve"/>
      <point x="999" y="775" type="line"/>
      <point x="866" y="775" type="line"/>
      <point x="866" y="860"/>
      <point x="785" y="937"/>
      <point x="704" y="937" type="qcurve"/>
      <point x="619" y="937"/>
      <point x="528" y="812"/>
      <point x="528" y="710" type="qcurve"/>
      <point x="528" y="602" type="line"/>
      <point x="528" y="498"/>
      <point x="619" y="374"/>
      <point x="704" y="374" type="qcurve"/>
      <point x="785" y="374"/>
      <point x="865" y="449"/>
      <point x="865" y="536" type="qcurve"/>
    </contour>
    <contour>
      <point x="187" y="656" type="qcurve"/>
      <point x="187" y="418"/>
      <point x="496" y="93"/>
      <point x="716" y="93" type="qcurve"/>
      <point x="936" y="93"/>
      <point x="1245" y="418"/>
      <point x="1245" y="656" type="qcurve"/>
      <point x="1245" y="893"/>
      <point x="936" y="1217"/>
      <point x="716" y="1217" type="qcurve"/>
      <point x="495" y="1217"/>
      <point x="187" y="893"/>
    </contour>
    <contour>
      <point x="77" y="656" type="qcurve"/>
      <point x="77" y="940"/>
      <point x="450" y="1328"/>
      <point x="716" y="1328" type="qcurve"/>
      <point x="982" y="1328"/>
      <point x="1355" y="940"/>
      <point x="1355" y="656" type="qcurve"/>
      <point x="1355" y="372"/>
      <point x="981" y="-19"/>
      <point x="716" y="-19" type="qcurve"/>
      <point x="450" y="-19"/>
      <point x="77" y="372"/>
    </contour>
  </outline>
</glyph>
<glyph name="ordfeminine" format="1">
  <advance width="817"/>
  <unicode hex="00AA"/>
  <outline>
    <contour>
      <point x="545" y="704" type="line"/>
      <point x="541" y="717" name="inserted"/>
      <point x="533" y="748"/>
      <point x="530" y="766" type="qcurve"/>
      <point x="495" y="729"/>
      <point x="405" y="691"/>
      <point x="348" y="691" type="qcurve" smooth="yes"/>
      <point x="242" y="691"/>
      <point x="124" y="802"/>
      <point x="124" y="896" type="qcurve" smooth="yes"/>
      <point x="124" y="995"/>
      <point x="275" y="1104"/>
      <point x="430" y="1104" type="qcurve" smooth="yes"/>
      <point x="524" y="1104" type="line"/>
      <point x="524" y="1150" type="line"/>
      <point x="524" y="1208"/>
      <point x="470" y="1267"/>
      <point x="417" y="1267" type="qcurve" smooth="yes"/>
      <point x="358" y="1267"/>
      <point x="290" y="1220"/>
      <point x="290" y="1176" type="qcurve"/>
      <point x="138" y="1188" type="line"/>
      <point x="138" y="1281"/>
      <point x="295" y="1398"/>
      <point x="417" y="1398" type="qcurve" smooth="yes"/>
      <point x="538" y="1398"/>
      <point x="678" y="1268"/>
      <point x="678" y="1148" type="qcurve" smooth="yes"/>
      <point x="678" y="864" type="line"/>
      <point x="678" y="820" name="inserted"/>
      <point x="690" y="740"/>
      <point x="701" y="704" type="qcurve"/>
    </contour>
    <contour>
      <point x="386" y="819" type="qcurve" smooth="yes"/>
      <point x="423" y="819"/>
      <point x="499" y="853"/>
      <point x="524" y="876" type="qcurve"/>
      <point x="524" y="1000" type="line"/>
      <point x="427" y="1000" type="line"/>
      <point x="356" y="999" name="inserted"/>
      <point x="278" y="944"/>
      <point x="278" y="900" type="qcurve" smooth="yes"/>
      <point x="278" y="859" name="inserted"/>
      <point x="332" y="819"/>
    </contour>
  </outline>
</glyph>
<glyph name="logicalnot" format="1">
  <advance width="1015"/>
  <unicode hex="00AC"/>
  <outline>
    <contour>
      <point x="863" y="374" type="line"/>
      <point x="688" y="374" type="line"/>
      <point x="688" y="610" type="line"/>
      <point x="113" y="610" type="line"/>
      <point x="113" y="761" type="line"/>
      <point x="863" y="761" type="line"/>
    </contour>
  </outline>
</glyph>
<glyph name="macron" format="1">
  <advance width="922"/>
  <unicode hex="00AF"/>
  <outline>
    <contour>
      <point x="788" y="1294" type="line"/>
      <point x="133" y="1294" type="line"/>
      <point x="133" y="1441" type="line"/>
      <point x="788" y="1441" type="line"/>
    </contour>
  </outline>
</glyph>
<glyph name="degree" format="1">
  <advance width="718"/>
  <unicode hex="00B0"/>
  <outline>
    <contour>
      <point x="114" y="1174" type="qcurve" smooth="yes"/>
      <point x="114" y="1277"/>
      <point x="259" y="1421"/>
      <point x="359" y="1421" type="qcurve" smooth="yes"/>
      <point x="458" y="1421"/>
      <point x="600" y="1277"/>
      <point x="600" y="1174" type="qcurve" smooth="yes"/>
      <point x="600" y="1073"/>
      <point x="459" y="932"/>
      <point x="359" y="932" type="qcurve" smooth="yes"/>
      <point x="258" y="932"/>
      <point x="114" y="1073"/>
    </contour>
    <contour>
      <point x="359" y="1062" type="qcurve" smooth="yes"/>
      <point x="407" y="1062"/>
      <point x="470" y="1127"/>
      <point x="470" y="1174" type="qcurve" smooth="yes"/>
      <point x="470" y="1223"/>
      <point x="407" y="1292"/>
      <point x="359" y="1292" type="qcurve" smooth="yes"/>
      <point x="311" y="1292"/>
      <point x="245" y="1223"/>
      <point x="245" y="1174" type="qcurve" smooth="yes"/>
      <point x="245" y="1127"/>
      <point x="313" y="1062"/>
    </contour>
  </outline>
</glyph>
<glyph name="plusminus" format="1">
  <advance width="990"/>
  <unicode hex="00B1"/>
  <outline>
    <contour>
      <point x="608" y="842" type="line"/>
      <point x="904" y="842" type="line"/>
      <point x="904" y="633" type="line"/>
      <point x="608" y="633" type="line"/>
      <point x="608" y="301" type="line"/>
      <point x="381" y="301" type="line"/>
      <point x="381" y="633" type="line"/>
      <point x="80" y="633" type="line"/>
      <point x="80" y="842" type="line"/>
      <point x="381" y="842" type="line"/>
      <point x="381" y="1156" type="line"/>
      <point x="608" y="1156" type="line"/>
    </contour>
    <contour>
      <point x="878" y="1" type="line"/>
      <point x="101" y="1" type="line"/>
      <point x="101" y="206" type="line"/>
      <point x="878" y="206" type="line"/>
    </contour>
  </outline>
</glyph>
<glyph name="acute" format="1">
  <advance width="608"/>
  <unicode hex="00B4"/>
  <outline>
    <contour>
      <point x="266" y="1505" type="line"/>
      <point x="549" y="1505" type="line"/>
      <point x="302" y="1228" type="line"/>
      <point x="91" y="1228" type="line"/>
    </contour>
  </outline>
</glyph>
<glyph name="uni00B5" format="1">
  <advance width="1137"/>
  <unicode hex="00B5"/>
  <outline>
    <contour>
      <point x="385" y="932" type="line"/>
      <point x="385" y="363" type="line"/>
      <point x="386" y="250"/>
      <point x="459" y="144"/>
      <point x="548" y="144" type="qcurve" smooth="yes"/>
      <point x="616" y="144"/>
      <point x="709" y="194"/>
      <point x="735" y="244" type="qcurve"/>
      <point x="735" y="932" type="line"/>
      <point x="993" y="932" type="line"/>
      <point x="993" y="-42" type="line"/>
      <point x="752" y="-42" type="line"/>
      <point x="746" y="24" type="line"/>
      <point x="706" y="-18" name="inserted"/>
      <point x="604" y="-60"/>
      <point x="542" y="-60" type="qcurve" smooth="yes"/>
      <point x="495" y="-60"/>
      <point x="416" y="-39"/>
      <point x="385" y="-18" type="qcurve"/>
      <point x="385" y="-416" type="line"/>
      <point x="126" y="-416" type="line"/>
      <point x="126" y="932" type="line"/>
    </contour>
  </outline>
</glyph>
<glyph name="paragraph" format="1">
  <advance width="901"/>
  <unicode hex="00B6"/>
  <outline>
    <contour>
      <point x="588" y="0" type="line"/>
      <point x="588" y="468" type="line"/>
      <point x="515" y="468" type="line"/>
      <point x="308" y="468"/>
      <point x="69" y="697"/>
      <point x="69" y="889" type="qcurve" smooth="yes"/>
      <point x="69" y="1081"/>
      <point x="309" y="1310"/>
      <point x="516" y="1310" type="qcurve" smooth="yes"/>
      <point x="781" y="1310" type="line"/>
      <point x="781" y="0" type="line"/>
    </contour>
  </outline>
</glyph>
<glyph name="periodcentered" format="1">
  <advance width="555"/>
  <unicode hex="00B7"/>
  <outline>
    <contour>
      <point x="240" y="787" type="qcurve" smooth="yes"/>
      <point x="289" y="801"/>
      <point x="370" y="762"/>
      <point x="386" y="717" type="qcurve" smooth="yes" name="inserted"/>
      <point x="403" y="673"/>
      <point x="357" y="596"/>
      <point x="307" y="582" type="qcurve" smooth="yes" name="inserted"/>
      <point x="259" y="568"/>
      <point x="177" y="608"/>
      <point x="160" y="652" type="qcurve" smooth="yes" name="inserted"/>
      <point x="144" y="697"/>
      <point x="191" y="773"/>
    </contour>
  </outline>
</glyph>
<glyph name="cedilla" format="1">
  <advance width="494"/>
  <unicode hex="00B8"/>
  <outline>
    <contour>
      <point x="310" y="-40" type="line"/>
      <point x="301" y="-92" type="line"/>
      <point x="368" y="-105" name="inserted"/>
      <point x="436" y="-183"/>
      <point x="436" y="-248" type="qcurve" smooth="yes"/>
      <point x="436" y="-347"/>
      <point x="269" y="-460"/>
      <point x="120" y="-460" type="qcurve"/>
      <point x="114" y="-316" type="line"/>
      <point x="164" y="-316"/>
      <point x="216" y="-277"/>
      <point x="216" y="-240" type="qcurve" smooth="yes"/>
      <point x="216" y="-204"/>
      <point x="159" y="-173"/>
      <point x="87" y="-168" type="qcurve"/>
      <point x="115" y="-40" type="line"/>
    </contour>
  </outline>
</glyph>
<glyph name="ordmasculine" format="1">
  <advance width="842"/>
  <unicode hex="00BA"/>
  <outline>
    <contour>
      <point x="107" y="1079" type="line"/>
      <point x="107" y="1222"/>
      <point x="278" y="1397"/>
      <point x="417" y="1397" type="qcurve" smooth="yes" name="inserted"/>
      <point x="556" y="1397"/>
      <point x="728" y="1223"/>
      <point x="728" y="1073" type="qcurve" smooth="yes"/>
      <point x="728" y="1009" type="line"/>
      <point x="728" y="866"/>
      <point x="559" y="690"/>
      <point x="419" y="690" type="qcurve" smooth="yes"/>
      <point x="278" y="690"/>
      <point x="107" y="866"/>
      <point x="107" y="1013" type="qcurve" smooth="yes"/>
    </contour>
    <contour>
      <point x="261" y="1009" type="line"/>
      <point x="261" y="919"/>
      <point x="346" y="819"/>
      <point x="419" y="819" type="qcurve" smooth="yes"/>
      <point x="491" y="819"/>
      <point x="574" y="919"/>
      <point x="575" y="1007" type="qcurve" smooth="yes"/>
      <point x="575" y="1079" type="line"/>
      <point x="575" y="1166"/>
      <point x="489" y="1266"/>
      <point x="417" y="1266" type="qcurve" smooth="yes"/>
      <point x="346" y="1266"/>
      <point x="261" y="1168"/>
      <point x="261" y="1078" type="qcurve" smooth="yes"/>
    </contour>
  </outline>
</glyph>
<glyph name="questiondown" format="1">
  <advance width="917"/>
  <unicode hex="00BF"/>
  <outline>
    <contour>
      <point x="0" y="0" type="line"/>
      <point x="917" y="0" type="line"/>
      <point x="917" y="20" type="line"/>
      <point x="0" y="20" type="line"/>
    </contour>
  </outline>
</glyph>
<glyph name="AE" format="1">
  <advance width="1730"/>
  <unicode hex="00C6"/>
  <outline>
    <contour>
      <point x="1674" y="0" type="line"/>
      <point x="871" y="0" type="line"/>
      <point x="858" y="303" type="line"/>
      <point x="461" y="303" type="line"/>
      <point x="308" y="0" type="line"/>
      <point x="5" y="0" type="line"/>
      <point x="709" y="1310" type="line"/>
      <point x="1619" y="1310" type="line"/>
      <point x="1619" y="1106" type="line"/>
      <point x="1083" y="1106" type="line"/>
      <point x="1097" y="776" type="line"/>
      <point x="1546" y="776" type="line"/>
      <point x="1546" y="571" type="line"/>
      <point x="1106" y="571" type="line"/>
      <point x="1121" y="205" type="line"/>
      <point x="1674" y="205" type="line"/>
    </contour>
    <contour>
      <point x="567" y="518" type="line"/>
      <point x="849" y="518" type="line"/>
      <point x="827" y="1028" type="line"/>
    </contour>
  </outline>
</glyph>
<glyph name="multiply" format="1">
  <advance width="979"/>
  <unicode hex="00D7"/>
  <outline>
    <contour>
      <point x="58" y="334" type="line"/>
      <point x="335" y="617" type="line"/>
      <point x="58" y="901" type="line"/>
      <point x="212" y="1048" type="line"/>
      <point x="485" y="769" type="line"/>
      <point x="759" y="1048" type="line"/>
      <point x="913" y="901" type="line"/>
      <point x="634" y="617" type="line"/>
      <point x="913" y="334" type="line"/>
      <point x="759" y="186" type="line"/>
      <point x="485" y="464" type="line"/>
      <point x="212" y="186" type="line"/>
    </contour>
  </outline>
</glyph>
<glyph name="Oslash" format="1">
  <advance width="1268"/>
  <unicode hex="00D8"/>
  <outline>
    <contour>
      <point x="1200" y="614" type="line"/>
      <point x="1200" y="422"/>
      <point x="1061" y="129"/>
      <point x="934" y="51" type="qcurve" smooth="yes" name="inserted"/>
      <point x="871" y="12" name="inserted"/>
      <point x="725" y="-28"/>
      <point x="643" y="-28" type="qcurve" smooth="yes"/>
      <point x="569" y="-28" name="inserted"/>
      <point x="436" y="5"/>
      <point x="377" y="36" type="qcurve"/>
      <point x="299" y="-94" type="line"/>
      <point x="132" y="-94" type="line"/>
      <point x="260" y="122" type="line"/>
      <point x="172" y="210" name="inserted"/>
      <point x="84" y="460"/>
      <point x="84" y="621" type="qcurve" smooth="yes"/>
      <point x="84" y="677" type="line"/>
      <point x="84" y="868"/>
      <point x="222" y="1161"/>
      <point x="349" y="1240" type="qcurve" smooth="yes" name="inserted"/>
      <point x="413" y="1280" name="inserted"/>
      <point x="559" y="1319"/>
      <point x="641" y="1319" type="qcurve" smooth="yes"/>
      <point x="720" y="1319" name="inserted"/>
      <point x="860" y="1281"/>
      <point x="922" y="1243" type="qcurve"/>
      <point x="989" y="1356" type="line"/>
      <point x="1156" y="1356" type="line"/>
      <point x="1036" y="1154" type="line"/>
      <point x="1118" y="1065" name="inserted"/>
      <point x="1200" y="826"/>
      <point x="1200" y="674" type="qcurve" smooth="yes"/>
    </contour>
    <contour>
      <point x="696" y="651" type="line"/>
      <point x="696" y="655" name="inserted"/>
      <point x="701" y="669"/>
      <point x="707" y="678" type="qcurve"/>
      <point x="632" y="524" type="line"/>
      <point x="635" y="526" name="inserted"/>
      <point x="640" y="528"/>
      <point x="642" y="528" type="qcurve" smooth="yes"/>
      <point x="671" y="528"/>
      <point x="696" y="585"/>
      <point x="696" y="641" type="qcurve" smooth="yes"/>
    </contour>
    <contour>
      <point x="586" y="641" type="line"/>
      <point x="586" y="628" name="inserted"/>
      <point x="586" y="605"/>
      <point x="587" y="595" type="qcurve"/>
      <point x="665" y="755" type="line"/>
      <point x="661" y="758" name="inserted"/>
      <point x="649" y="762"/>
      <point x="642" y="762" type="qcurve" smooth="yes"/>
      <point x="612" y="762"/>
      <point x="586" y="707"/>
      <point x="586" y="650" type="qcurve" smooth="yes"/>
    </contour>
  </outline>
</glyph>
<glyph name="Thorn" format="1">
  <advance width="1123"/>
  <unicode hex="00DE"/>
  <outline>
    <contour>
      <point x="380" y="1310" type="line"/>
      <point x="380" y="1068" type="line"/>
      <point x="586" y="1068" type="line"/>
      <point x="732" y="1067"/>
      <point x="949" y="968"/>
      <point x="1007" y="876" type="qcurve" smooth="yes" name="inserted"/>
      <point x="1036" y="830" name="inserted"/>
      <point x="1064" y="724"/>
      <point x="1064" y="664" type="qcurve" smooth="yes"/>
      <point x="1064" y="481"/>
      <point x="806" y="262"/>
      <point x="584" y="260" type="qcurve" smooth="yes"/>
      <point x="380" y="260" type="line"/>
      <point x="380" y="0" type="line"/>
      <point x="119" y="0" type="line"/>
      <point x="119" y="1310" type="line"/>
    </contour>
    <contour>
      <point x="380" y="865" type="line"/>
      <point x="380" y="463" type="line"/>
      <point x="581" y="463" type="line"/>
      <point x="685" y="463"/>
      <point x="804" y="570"/>
      <point x="804" y="662" type="qcurve" smooth="yes"/>
      <point x="804" y="756"/>
      <point x="685" y="865"/>
      <point x="584" y="865" type="qcurve" smooth="yes"/>
    </contour>
  </outline>
</glyph>
<glyph name="germandbls" format="1">
  <advance width="1164"/>
  <unicode hex="00DF"/>
  <outline>
    <contour>
      <point x="382" y="-2" type="line"/>
      <point x="122" y="-2" type="line"/>
      <point x="122" y="991" type="line"/>
      <point x="122" y="1186"/>
      <point x="345" y="1401"/>
      <point x="549" y="1401" type="qcurve" smooth="yes"/>
      <point x="721" y="1401"/>
      <point x="928" y="1223"/>
      <point x="928" y="1071" type="qcurve" smooth="yes"/>
      <point x="928" y="970"/>
      <point x="833" y="818"/>
      <point x="833" y="745" type="qcurve" smooth="yes"/>
      <point x="833" y="711"/>
      <point x="885" y="643"/>
      <point x="963" y="572" type="qcurve" smooth="yes" name="inserted"/>
      <point x="1035" y="509"/>
      <point x="1103" y="382"/>
      <point x="1103" y="314" type="qcurve" smooth="yes"/>
      <point x="1103" y="154"/>
      <point x="892" y="-20"/>
      <point x="701" y="-20" type="qcurve" smooth="yes"/>
      <point x="631" y="-20"/>
      <point x="486" y="9"/>
      <point x="450" y="32" type="qcurve"/>
      <point x="498" y="231" type="line"/>
      <point x="538" y="209"/>
      <point x="642" y="182"/>
      <point x="696" y="182" type="qcurve" smooth="yes"/>
      <point x="763" y="182"/>
      <point x="845" y="250"/>
      <point x="845" y="310" type="qcurve" smooth="yes"/>
      <point x="845" y="349"/>
      <point x="793" y="422"/>
      <point x="717" y="485" type="qcurve" smooth="yes" name="inserted"/>
      <point x="640" y="548"/>
      <point x="574" y="666"/>
      <point x="574" y="734" type="qcurve" smooth="yes"/>
      <point x="574" y="823"/>
      <point x="672" y="985"/>
      <point x="672" y="1058" type="qcurve" smooth="yes"/>
      <point x="672" y="1121"/>
      <point x="593" y="1199"/>
      <point x="530" y="1199" type="qcurve" smooth="yes"/>
      <point x="453" y="1199" name="inserted"/>
      <point x="382" y="1093"/>
      <point x="382" y="987" type="qcurve" smooth="yes"/>
    </contour>
  </outline>
</glyph>
<glyph name="ae" format="1">
  <advance width="1557"/>
  <unicode hex="00E6"/>
  <outline>
    <contour>
      <point x="1121" y="-20" type="qcurve" smooth="yes"/>
      <point x="1010" y="-20" name="inserted"/>
      <point x="837" y="47"/>
      <point x="774" y="114" type="qcurve"/>
      <point x="715" y="49"/>
      <point x="530" y="-20"/>
      <point x="421" y="-20" type="qcurve" smooth="yes"/>
      <point x="251" y="-20"/>
      <point x="60" y="142"/>
      <point x="60" y="284" type="qcurve" smooth="yes"/>
      <point x="60" y="426"/>
      <point x="284" y="581"/>
      <point x="503" y="582" type="qcurve" smooth="yes"/>
      <point x="654" y="582" type="line"/>
      <point x="654" y="635" type="line"/>
      <point x="654" y="706"/>
      <point x="581" y="788"/>
      <point x="512" y="788" type="qcurve" smooth="yes"/>
      <point x="437" y="788"/>
      <point x="349" y="720"/>
      <point x="349" y="670" type="qcurve"/>
      <point x="91" y="687" type="line"/>
      <point x="91" y="820"/>
      <point x="324" y="990"/>
      <point x="514" y="990" type="qcurve" smooth="yes"/>
      <point x="609" y="990"/>
      <point x="757" y="938"/>
      <point x="807" y="886" type="qcurve"/>
      <point x="864" y="938"/>
      <point x="1012" y="991"/>
      <point x="1101" y="990" type="qcurve" smooth="yes"/>
      <point x="1292" y="990"/>
      <point x="1510" y="753"/>
      <point x="1510" y="547" type="qcurve" smooth="yes"/>
      <point x="1510" y="408" type="line"/>
      <point x="908" y="408" type="line"/>
      <point x="919" y="296"/>
      <point x="1044" y="182"/>
      <point x="1150" y="182" type="qcurve" smooth="yes"/>
      <point x="1209" y="182" name="inserted"/>
      <point x="1316" y="205"/>
      <point x="1363" y="228" type="qcurve" smooth="yes"/>
      <point x="1415" y="254" type="line"/>
      <point x="1483" y="89" type="line"/>
      <point x="1419" y="39" name="inserted"/>
      <point x="1225" y="-20"/>
    </contour>
    <contour>
      <point x="470" y="165" type="qcurve" smooth="yes"/>
      <point x="518" y="165"/>
      <point x="616" y="206"/>
      <point x="654" y="241" type="qcurve"/>
      <point x="654" y="417" type="line"/>
      <point x="503" y="417" type="line"/>
      <point x="422" y="416"/>
      <point x="319" y="340"/>
      <point x="319" y="280" type="qcurve" smooth="yes"/>
      <point x="319" y="225"/>
      <point x="396" y="165"/>
    </contour>
    <contour>
      <point x="1101" y="788" type="qcurve" smooth="yes"/>
      <point x="1019" y="788"/>
      <point x="922" y="679"/>
      <point x="910" y="577" type="qcurve"/>
      <point x="1255" y="577" type="line"/>
      <point x="1255" y="603" type="line"/>
      <point x="1255" y="691"/>
      <point x="1176" y="788"/>
    </contour>
  </outline>
</glyph>
<glyph name="divide" format="1">
  <advance width="1050"/>
  <unicode hex="00F7"/>
  <outline>
    <contour>
      <point x="983" y="533" type="line"/>
      <point x="57" y="533" type="line"/>
      <point x="57" y="736" type="line"/>
      <point x="983" y="736" type="line"/>
    </contour>
    <contour>
      <point x="653" y="893" type="line"/>
      <point x="389" y="893" type="line"/>
      <point x="389" y="1101" type="line"/>
      <point x="653" y="1101" type="line"/>
    </contour>
    <contour>
      <point x="653" y="165" type="line"/>
      <point x="389" y="165" type="line"/>
      <point x="389" y="374" type="line"/>
      <point x="653" y="374" type="line"/>
    </contour>
  </outline>
</glyph>
<glyph name="oslash" format="1">
  <advance width="1039"/>
  <unicode hex="00F8"/>
  <outline>
    <contour>
      <point x="0" y="0" type="line"/>
      <point x="1039" y="0" type="line"/>
      <point x="1039" y="20" type="line"/>
      <point x="0" y="20" type="line"/>
    </contour>
  </outline>
</glyph>
<glyph name="thorn" format="1">
  <advance width="1098"/>
  <unicode hex="00FE"/>
  <outline>
    <contour>
      <point x="996" y="434" type="line"/>
      <point x="996" y="214"/>
      <point x="787" y="-60"/>
      <point x="611" y="-60" type="qcurve" smooth="yes"/>
      <point x="537" y="-60"/>
      <point x="419" y="-25"/>
      <point x="368" y="15" type="qcurve"/>
      <point x="368" y="-416" type="line"/>
      <point x="121" y="-416" type="line"/>
      <point x="121" y="1341" type="line"/>
      <point x="368" y="1341" type="line"/>
      <point x="368" y="880" type="line"/>
      <point x="418" y="918"/>
      <point x="535" y="950"/>
      <point x="607" y="950" type="qcurve" smooth="yes"/>
      <point x="785" y="950"/>
      <point x="996" y="685"/>
      <point x="996" y="449" type="qcurve" smooth="yes"/>
    </contour>
    <contour>
      <point x="750" y="452" type="qcurve" smooth="yes"/>
      <point x="750" y="586"/>
      <point x="628" y="746"/>
      <point x="523" y="746" type="qcurve" smooth="yes"/>
      <point x="480" y="746"/>
      <point x="405" y="720"/>
      <point x="368" y="688" type="qcurve"/>
      <point x="368" y="216" type="line"/>
      <point x="405" y="172"/>
      <point x="480" y="135"/>
      <point x="525" y="135" type="qcurve" smooth="yes"/>
      <point x="625" y="135"/>
      <point x="750" y="292"/>
    </contour>
  </outline>
</glyph>
<glyph name="Dcroat" format="1">
  <advance width="1225"/>
  <unicode hex="0110"/>
  <outline>
    <contour>
      <point x="143" y="0" type="line"/>
      <point x="143" y="581" type="line"/>
      <point x="-8" y="581" type="line"/>
      <point x="-8" y="740" type="line"/>
      <point x="143" y="740" type="line"/>
      <point x="143" y="1310" type="line"/>
      <point x="548" y="1310" type="line"/>
      <point x="721" y="1310"/>
      <point x="994" y="1155"/>
      <point x="1070" y="1013" type="qcurve" smooth="yes" name="inserted"/>
      <point x="1108" y="942" name="inserted"/>
      <point x="1146" y="781"/>
      <point x="1147" y="692" type="qcurve" smooth="yes"/>
      <point x="1147" y="623" type="line"/>
      <point x="1147" y="441"/>
      <point x="998" y="158"/>
      <point x="860" y="80" type="qcurve" smooth="yes" name="inserted"/>
      <point x="792" y="40" name="inserted"/>
      <point x="638" y="0"/>
      <point x="552" y="0" type="qcurve" smooth="yes"/>
    </contour>
    <contour>
      <point x="622" y="581" type="line"/>
      <point x="413" y="581" type="line"/>
      <point x="413" y="210" type="line"/>
      <point x="546" y="210" type="line"/>
      <point x="703" y="210"/>
      <point x="873" y="421"/>
      <point x="873" y="622" type="qcurve" smooth="yes"/>
      <point x="873" y="688" type="line"/>
      <point x="873" y="889"/>
      <point x="707" y="1099"/>
      <point x="550" y="1100" type="qcurve" smooth="yes"/>
      <point x="413" y="1100" type="line"/>
      <point x="413" y="740" type="line"/>
      <point x="622" y="740" type="line"/>
    </contour>
  </outline>
</glyph>
<glyph name="dcroat" format="1">
  <advance width="1088"/>
  <unicode hex="0111"/>
  <outline>
    <contour>
      <point x="1127" y="1081" type="line"/>
      <point x="941" y="1081" type="line"/>
      <point x="941" y="-2" type="line"/>
      <point x="718" y="-2" type="line"/>
      <point x="705" y="67" type="line"/>
      <point x="654" y="21"/>
      <point x="538" y="-20"/>
      <point x="463" y="-20" type="qcurve" smooth="yes"/>
      <point x="294" y="-20"/>
      <point x="70" y="263"/>
      <point x="70" y="479" type="qcurve" smooth="yes"/>
      <point x="70" y="492" type="line"/>
      <point x="70" y="710"/>
      <point x="293" y="990"/>
      <point x="465" y="990" type="qcurve" smooth="yes"/>
      <point x="533" y="990"/>
      <point x="648" y="958"/>
      <point x="696" y="927" type="qcurve"/>
      <point x="696" y="1081" type="line"/>
      <point x="526" y="1081" type="line"/>
      <point x="526" y="1275" type="line"/>
      <point x="696" y="1275" type="line"/>
      <point x="696" y="1380" type="line"/>
      <point x="941" y="1380" type="line"/>
      <point x="941" y="1275" type="line"/>
      <point x="1127" y="1275" type="line"/>
    </contour>
    <contour>
      <point x="314" y="473" type="qcurve" smooth="yes"/>
      <point x="314" y="336"/>
      <point x="433" y="183"/>
      <point x="533" y="183" type="qcurve" smooth="yes"/>
      <point x="585" y="183"/>
      <point x="662" y="230"/>
      <point x="696" y="281" type="qcurve"/>
      <point x="696" y="721" type="line"/>
      <point x="661" y="754" name="inserted"/>
      <point x="582" y="787"/>
      <point x="535" y="787" type="qcurve" smooth="yes"/>
      <point x="431" y="787"/>
      <point x="314" y="630"/>
    </contour>
  </outline>
</glyph>
<glyph name="Eogonek" format="1">
  <advance width="1034"/>
  <unicode hex="0118"/>
  <outline>
    <contour>
      <point x="908" y="530" type="line"/>
      <point x="385" y="530" type="line"/>
      <point x="385" y="170" type="line"/>
      <point x="998" y="170" type="line"/>
      <point x="998" y="-42" type="line"/>
      <point x="842" y="-42" type="line"/>
      <point x="767" y="-84"/>
      <point x="706" y="-153"/>
      <point x="706" y="-199" type="qcurve" smooth="yes"/>
      <point x="706" y="-229" name="inserted"/>
      <point x="735" y="-259"/>
      <point x="764" y="-259" type="qcurve" smooth="yes"/>
      <point x="779" y="-259" name="inserted"/>
      <point x="814" y="-249"/>
      <point x="832" y="-240" type="qcurve"/>
      <point x="863" y="-373" type="line"/>
      <point x="832" y="-393" name="inserted"/>
      <point x="759" y="-413"/>
      <point x="720" y="-413" type="qcurve" smooth="yes"/>
      <point x="627" y="-413"/>
      <point x="515" y="-316"/>
      <point x="515" y="-230" type="qcurve" smooth="yes"/>
      <point x="515" y="-176" name="inserted"/>
      <point x="565" y="-81"/>
      <point x="616" y="-42" type="qcurve"/>
      <point x="112" y="-42" type="line"/>
      <point x="112" y="1269" type="line"/>
      <point x="1000" y="1269" type="line"/>
      <point x="1000" y="1057" type="line"/>
      <point x="385" y="1057" type="line"/>
      <point x="385" y="734" type="line"/>
      <point x="908" y="734" type="line"/>
    </contour>
  </outline>
</glyph>
<glyph name="Lslash" format="1">
  <advance width="1027"/>
  <unicode hex="0141"/>
  <outline>
    <contour>
      <point x="417" y="802" type="line"/>
      <point x="611" y="858" type="line"/>
      <point x="611" y="714" type="line"/>
      <point x="417" y="657" type="line"/>
      <point x="417" y="210" type="line"/>
      <point x="990" y="210" type="line"/>
      <point x="990" y="0" type="line"/>
      <point x="147" y="0" type="line"/>
      <point x="147" y="580" type="line"/>
      <point x="26" y="546" type="line"/>
      <point x="26" y="690" type="line"/>
      <point x="147" y="725" type="line"/>
      <point x="147" y="1310" type="line"/>
      <point x="417" y="1310" type="line"/>
    </contour>
  </outline>
</glyph>
<glyph name="lslash" format="1">
  <advance width="564"/>
  <unicode hex="0142"/>
  <outline>
    <contour>
      <point x="407" y="816" type="line"/>
      <point x="535" y="859" type="line"/>
      <point x="535" y="714" type="line"/>
      <point x="407" y="671" type="line"/>
      <point x="407" y="0" type="line"/>
      <point x="147" y="0" type="line"/>
      <point x="147" y="586" type="line"/>
      <point x="26" y="546" type="line"/>
      <point x="26" y="691" type="line"/>
      <point x="147" y="732" type="line"/>
      <point x="147" y="1382" type="line"/>
      <point x="407" y="1382" type="line"/>
    </contour>
  </outline>
</glyph>
<glyph name="OE" format="1">
  <advance width="1783"/>
  <unicode hex="0152"/>
  <outline>
    <contour>
      <point x="1692" y="-2" type="line"/>
      <point x="892" y="-2" type="line"/>
      <point x="816" y="-11" name="inserted"/>
      <point x="685" y="-20"/>
      <point x="632" y="-20" type="qcurve" smooth="yes"/>
      <point x="473" y="-20"/>
      <point x="224" y="115"/>
      <point x="155" y="237" type="qcurve" smooth="yes" name="inserted"/>
      <point x="121" y="298" name="inserted"/>
      <point x="87" y="437"/>
      <point x="87" y="515" type="qcurve" smooth="yes"/>
      <point x="87" y="790" type="line"/>
      <point x="87" y="946"/>
      <point x="223" y="1191"/>
      <point x="348" y="1259" type="qcurve" smooth="yes" name="inserted"/>
      <point x="410" y="1293" name="inserted"/>
      <point x="551" y="1326"/>
      <point x="630" y="1326" type="qcurve" smooth="yes"/>
      <point x="685" y="1326" name="inserted"/>
      <point x="817" y="1317"/>
      <point x="892" y="1308" type="qcurve"/>
      <point x="1690" y="1308" type="line"/>
      <point x="1690" y="1098" type="line"/>
      <point x="1081" y="1098" type="line"/>
      <point x="1081" y="774" type="line"/>
      <point x="1601" y="774" type="line"/>
      <point x="1601" y="570" type="line"/>
      <point x="1081" y="570" type="line"/>
      <point x="1081" y="208" type="line"/>
      <point x="1692" y="208" type="line"/>
    </contour>
    <contour>
      <point x="632" y="182" type="qcurve" smooth="yes"/>
      <point x="679" y="182" name="inserted"/>
      <point x="769" y="187"/>
      <point x="812" y="193" type="qcurve"/>
      <point x="812" y="1112" type="line"/>
      <point x="765" y="1119" name="inserted"/>
      <point x="674" y="1124"/>
      <point x="630" y="1124" type="qcurve" smooth="yes"/>
      <point x="498" y="1124"/>
      <point x="347" y="956"/>
      <point x="346" y="794" type="qcurve"/>
      <point x="346" y="516" type="line"/>
      <point x="346" y="352"/>
      <point x="498" y="182"/>
    </contour>
  </outline>
</glyph>
<glyph name="uogonek" format="1">
  <advance width="1035"/>
  <unicode hex="0173"/>
  <outline>
    <contour>
      <point x="910" y="-42" type="line"/>
      <point x="835" y="-84"/>
      <point x="772" y="-153"/>
      <point x="772" y="-199" type="qcurve" smooth="yes"/>
      <point x="772" y="-229" name="inserted"/>
      <point x="802" y="-259"/>
      <point x="831" y="-259" type="qcurve" smooth="yes"/>
      <point x="847" y="-259" name="inserted"/>
      <point x="881" y="-249"/>
      <point x="899" y="-240" type="qcurve"/>
      <point x="931" y="-373" type="line"/>
      <point x="899" y="-393" name="inserted"/>
      <point x="827" y="-413"/>
      <point x="787" y="-413" type="qcurve" smooth="yes"/>
      <point x="694" y="-413"/>
      <point x="583" y="-316"/>
      <point x="583" y="-230" type="qcurve" smooth="yes"/>
      <point x="583" y="-172" name="inserted"/>
      <point x="638" y="-74"/>
      <point x="695" y="-33" type="qcurve"/>
      <point x="688" y="73" type="line"/>
      <point x="641" y="8"/>
      <point x="505" y="-60"/>
      <point x="416" y="-60" type="qcurve" smooth="yes"/>
      <point x="256" y="-60"/>
      <point x="92" y="127"/>
      <point x="92" y="302" type="qcurve" smooth="yes"/>
      <point x="92" y="932" type="line"/>
      <point x="353" y="932" type="line"/>
      <point x="353" y="300" type="line"/>
      <point x="354" y="223"/>
      <point x="427" y="144"/>
      <point x="499" y="144" type="qcurve" smooth="yes"/>
      <point x="565" y="144"/>
      <point x="656" y="198"/>
      <point x="678" y="249" type="qcurve"/>
      <point x="678" y="932" type="line"/>
      <point x="942" y="932" type="line"/>
      <point x="942" y="-42" type="line"/>
    </contour>
  </outline>
</glyph>
<glyph name="florin" format="1">
  <advance width="664"/>
  <unicode hex="0192"/>
  <outline>
    <contour>
      <point x="615" y="746" type="line"/>
      <point x="426" y="746" type="line"/>
      <point x="425" y="-92" type="line"/>
      <point x="424" y="-256"/>
      <point x="253" y="-437"/>
      <point x="96" y="-437" type="qcurve" smooth="yes"/>
      <point x="60" y="-437" name="inserted"/>
      <point x="-5" y="-429"/>
      <point x="-34" y="-422" type="qcurve"/>
      <point x="-20" y="-224" type="line"/>
      <point x="-5" y="-229" name="inserted"/>
      <point x="36" y="-235"/>
      <point x="61" y="-235" type="qcurve" smooth="yes"/>
      <point x="115" y="-235"/>
      <point x="165" y="-167"/>
      <point x="165" y="-93" type="qcurve" smooth="yes"/>
      <point x="165" y="746" type="line"/>
      <point x="21" y="746" type="line"/>
      <point x="21" y="930" type="line"/>
      <point x="165" y="930" type="line"/>
      <point x="165" y="1018" type="line"/>
      <point x="166" y="1180"/>
      <point x="352" y="1358"/>
      <point x="525" y="1358" type="qcurve" smooth="yes"/>
      <point x="554" y="1358" name="inserted"/>
      <point x="626" y="1348"/>
      <point x="668" y="1339" type="qcurve"/>
      <point x="646" y="1145" type="line"/>
      <point x="627" y="1149" name="inserted"/>
      <point x="582" y="1154"/>
      <point x="556" y="1154" type="qcurve" smooth="yes"/>
      <point x="492" y="1154"/>
      <point x="426" y="1085"/>
      <point x="426" y="1016" type="qcurve" smooth="yes"/>
      <point x="426" y="930" type="line"/>
      <point x="615" y="930" type="line"/>
    </contour>
  </outline>
</glyph>
<glyph name="circumflex" format="1">
  <advance width="910"/>
  <unicode hex="02C6"/>
  <outline>
    <contour>
      <point x="798" y="1256" type="line"/>
      <point x="798" y="1245" type="line"/>
      <point x="592" y="1245" type="line"/>
      <point x="451" y="1377" type="line"/>
      <point x="311" y="1245" type="line"/>
      <point x="108" y="1245" type="line"/>
      <point x="108" y="1259" type="line"/>
      <point x="377" y="1507" type="line"/>
      <point x="527" y="1507" type="line"/>
    </contour>
  </outline>
</glyph>
<glyph name="caron" format="1">
  <advance width="865"/>
  <unicode hex="02C7"/>
  <outline>
    <contour>
      <point x="430" y="1376" type="line"/>
      <point x="563" y="1508" type="line"/>
      <point x="784" y="1508" type="line"/>
      <point x="784" y="1498" type="line"/>
      <point x="512" y="1246" type="line"/>
      <point x="347" y="1246" type="line"/>
      <point x="75" y="1499" type="line"/>
      <point x="75" y="1508" type="line"/>
      <point x="297" y="1508" type="line"/>
    </contour>
  </outline>
</glyph>
<glyph name="breve" format="1">
  <advance width="819"/>
  <unicode hex="02D8"/>
  <outline>
    <contour>
      <point x="720" y="1494" type="line"/>
      <point x="720" y="1376"/>
      <point x="549" y="1230"/>
      <point x="408" y="1230" type="qcurve" smooth="yes"/>
      <point x="266" y="1230"/>
      <point x="95" y="1376"/>
      <point x="95" y="1494" type="qcurve"/>
      <point x="278" y="1494" type="line"/>
      <point x="278" y="1437"/>
      <point x="346" y="1374"/>
      <point x="408" y="1374" type="qcurve" smooth="yes"/>
      <point x="468" y="1374"/>
      <point x="536" y="1436"/>
      <point x="536" y="1494" type="qcurve"/>
    </contour>
  </outline>
</glyph>
<glyph name="dotaccent" format="1">
  <advance width="488"/>
  <unicode hex="02D9"/>
  <outline>
    <contour>
      <point x="106" y="1361" type="qcurve" smooth="yes"/>
      <point x="106" y="1414"/>
      <point x="179" y="1482"/>
      <point x="239" y="1482" type="qcurve" smooth="yes" name="inserted"/>
      <point x="298" y="1482"/>
      <point x="371" y="1414"/>
      <point x="371" y="1361" type="qcurve" smooth="yes" name="inserted"/>
      <point x="371" y="1309"/>
      <point x="298" y="1242"/>
      <point x="239" y="1242" type="qcurve" smooth="yes" name="inserted"/>
      <point x="179" y="1242"/>
      <point x="106" y="1309"/>
    </contour>
  </outline>
</glyph>
<glyph name="ring" format="1">
  <advance width="610"/>
  <unicode hex="02DA"/>
  <outline>
    <contour>
      <point x="233" y="1311" type="qcurve" smooth="yes"/>
      <point x="233" y="1338"/>
      <point x="276" y="1375"/>
      <point x="307" y="1375" type="qcurve" smooth="yes" name="inserted"/>
      <point x="336" y="1375"/>
      <point x="380" y="1338"/>
      <point x="380" y="1311" type="qcurve" smooth="yes"/>
      <point x="380" y="1285"/>
      <point x="337" y="1251"/>
      <point x="307" y="1251" type="qcurve" smooth="yes" name="inserted"/>
      <point x="275" y="1251"/>
      <point x="233" y="1285"/>
    </contour>
    <contour>
      <point x="273" y="1248" type="qcurve" smooth="yes"/>
      <point x="302" y="1234"/>
      <point x="355" y="1251"/>
      <point x="369" y="1277" type="qcurve" smooth="yes" name="inserted"/>
      <point x="383" y="1304"/>
      <point x="370" y="1362"/>
      <point x="341" y="1376" type="qcurve" smooth="yes"/>
      <point x="311" y="1390"/>
      <point x="258" y="1373"/>
      <point x="243" y="1346" type="qcurve" smooth="yes" name="inserted"/>
      <point x="229" y="1319"/>
      <point x="243" y="1262"/>
    </contour>
  </outline>
</glyph>
<glyph name="ogonek" format="1">
  <advance width="555"/>
  <unicode hex="02DB"/>
  <outline>
    <contour>
      <point x="357" y="-42" type="line"/>
      <point x="282" y="-82"/>
      <point x="219" y="-151"/>
      <point x="219" y="-197" type="qcurve" smooth="yes"/>
      <point x="219" y="-228" name="inserted"/>
      <point x="249" y="-257"/>
      <point x="278" y="-257" type="qcurve" smooth="yes"/>
      <point x="294" y="-257" name="inserted"/>
      <point x="328" y="-248"/>
      <point x="346" y="-238" type="qcurve"/>
      <point x="378" y="-372" type="line"/>
      <point x="346" y="-392" name="inserted"/>
      <point x="274" y="-412"/>
      <point x="234" y="-412" type="qcurve" smooth="yes"/>
      <point x="141" y="-412"/>
      <point x="30" y="-314"/>
      <point x="30" y="-228" type="qcurve" smooth="yes"/>
      <point x="30" y="-155" name="inserted"/>
      <point x="120" y="-37"/>
      <point x="210" y="7" type="qcurve"/>
    </contour>
  </outline>
</glyph>
<glyph name="tilde" format="1">
  <advance width="882"/>
  <unicode hex="02DC"/>
  <outline>
    <contour>
      <point x="0" y="0" type="line"/>
      <point x="882" y="0" type="line"/>
      <point x="882" y="20" type="line"/>
      <point x="0" y="20" type="line"/>
    </contour>
  </outline>
</glyph>
<glyph name="hungarumlaut" format="1">
  <advance width="760"/>
  <unicode hex="02DD"/>
  <outline>
    <contour>
      <point x="575" y="1505" type="line"/>
      <point x="804" y="1505" type="line"/>
      <point x="563" y="1234" type="line"/>
      <point x="370" y="1234" type="line"/>
    </contour>
    <contour>
      <point x="222" y="1505" type="line"/>
      <point x="450" y="1505" type="line"/>
      <point x="242" y="1234" type="line"/>
      <point x="52" y="1234" type="line"/>
    </contour>
  </outline>
</glyph>
<glyph name="pi" format="1">
  <advance width="1190"/>
  <unicode hex="03C0"/>
  <outline>
    <contour>
      <point x="1133" y="781" type="line"/>
      <point x="976" y="781" type="line"/>
      <point x="976" y="299" type="line"/>
      <point x="976" y="244"/>
      <point x="1018" y="195"/>
      <point x="1077" y="195" type="qcurve" smooth="yes"/>
      <point x="1099" y="195" name="inserted"/>
      <point x="1137" y="199"/>
      <point x="1153" y="202" type="qcurve"/>
      <point x="1153" y="12" type="line"/>
      <point x="1116" y="0" name="inserted"/>
      <point x="1037" y="-11"/>
      <point x="996" y="-11" type="qcurve" smooth="yes"/>
      <point x="854" y="-11"/>
      <point x="716" y="132"/>
      <point x="716" y="276" type="qcurve" smooth="yes"/>
      <point x="716" y="781" type="line"/>
      <point x="467" y="781" type="line"/>
      <point x="467" y="-1" type="line"/>
      <point x="209" y="-1" type="line"/>
      <point x="209" y="781" type="line"/>
      <point x="48" y="781" type="line"/>
      <point x="48" y="973" type="line"/>
      <point x="1133" y="973" type="line"/>
    </contour>
  </outline>
</glyph>
<glyph name="udeva" format="1">
  <advance width="987"/>
  <unicode hex="0909"/>
  <outline>
    <contour>
      <point x="-30" y="1096" type="line"/>
      <point x="-30" y="1288" type="line"/>
      <point x="1017" y="1288" type="line"/>
      <point x="1017" y="1096" type="line"/>
    </contour>
    <contour>
      <point x="215" y="579" type="line"/>
      <point x="215" y="785" type="line"/>
      <point x="248" y="785" type="line"/>
      <point x="421" y="785"/>
      <point x="528" y="881"/>
      <point x="528" y="956" type="qcurve" smooth="yes"/>
      <point x="528" y="1017"/>
      <point x="443" y="1096"/>
      <point x="359" y="1096" type="qcurve" smooth="yes"/>
      <point x="163" y="1096" type="line"/>
      <point x="142" y="1260" type="line"/>
      <point x="382" y="1260" type="line"/>
      <point x="571" y="1260"/>
      <point x="785" y="1091"/>
      <point x="785" y="943" type="qcurve" smooth="yes"/>
      <point x="785" y="790"/>
      <point x="530" y="579"/>
      <point x="259" y="579" type="qcurve" smooth="yes"/>
    </contour>
    <contour>
      <point x="425" y="793" type="line"/>
      <point x="609" y="796"/>
      <point x="871" y="570"/>
      <point x="871" y="408" type="qcurve" smooth="yes"/>
      <point x="871" y="229"/>
      <point x="641" y="33"/>
      <point x="444" y="33" type="qcurve" smooth="yes"/>
      <point x="341" y="33"/>
      <point x="163" y="72"/>
      <point x="67" y="122" type="qcurve"/>
      <point x="98" y="328" type="line"/>
      <point x="180" y="283"/>
      <point x="318" y="247"/>
      <point x="388" y="247" type="qcurve" smooth="yes"/>
      <point x="497" y="247"/>
      <point x="612" y="340"/>
      <point x="612" y="418" type="qcurve" smooth="yes"/>
      <point x="612" y="489"/>
      <point x="495" y="599"/>
      <point x="377" y="599" type="qcurve"/>
    </contour>
    <contour>
      <point x="431" y="1288" type="move" name="top"/>
    </contour>
  </outline>
</glyph>
<glyph name="uudeva" format="1">
  <advance width="1451"/>
  <unicode hex="090A"/>
  <outline>
    <contour>
      <point x="704" y="1096" type="line"/>
      <point x="704" y="1288" type="line"/>
      <point x="1481" y="1288" type="line"/>
      <point x="1481" y="1096" type="line"/>
    </contour>
    <contour>
      <point x="613" y="730" type="line"/>
      <point x="659" y="769"/>
      <point x="856" y="835"/>
      <point x="966" y="835" type="qcurve" smooth="yes"/>
      <point x="1135" y="835"/>
      <point x="1367" y="622"/>
      <point x="1367" y="449" type="qcurve" smooth="yes"/>
      <point x="1367" y="360"/>
      <point x="1307" y="182"/>
      <point x="1241" y="99" type="qcurve"/>
      <point x="991" y="148" type="line"/>
      <point x="1042" y="219"/>
      <point x="1105" y="371"/>
      <point x="1105" y="449" type="qcurve" smooth="yes"/>
      <point x="1105" y="527"/>
      <point x="1013" y="620"/>
      <point x="941" y="620" type="qcurve" smooth="yes"/>
      <point x="885" y="620"/>
      <point x="771" y="565"/>
      <point x="720" y="516" type="qcurve"/>
    </contour>
    <component base="udeva"/>
    <contour>
      <point x="482" y="1288" type="move" name="top"/>
    </contour>
  </outline>
</glyph>
<glyph name="edeva" format="1">
  <advance width="1163"/>
  <unicode hex="090F"/>
  <outline>
    <contour>
      <point x="983" y="1141" type="line"/>
      <point x="983" y="798" type="line"/>
      <point x="983" y="671"/>
      <point x="875" y="471"/>
      <point x="757" y="416" type="qcurve"/>
      <point x="597" y="564" type="line"/>
      <point x="655" y="603"/>
      <point x="720" y="734"/>
      <point x="720" y="824" type="qcurve" smooth="yes"/>
      <point x="720" y="1141" type="line"/>
    </contour>
    <contour>
      <point x="-30" y="1096" type="line"/>
      <point x="-30" y="1288" type="line"/>
      <point x="1193" y="1288" type="line"/>
      <point x="1193" y="1096" type="line"/>
    </contour>
    <contour>
      <point x="142" y="1141" type="line"/>
      <point x="404" y="1141" type="line"/>
      <point x="404" y="718" type="line"/>
      <point x="404" y="446"/>
      <point x="672" y="205"/>
      <point x="950" y="205" type="qcurve"/>
      <point x="902" y="-2" type="line"/>
      <point x="539" y="-2"/>
      <point x="142" y="385"/>
      <point x="142" y="697" type="qcurve" smooth="yes"/>
    </contour>
    <contour>
      <point x="-37" y="8" type="move" name="x44"/>
    </contour>
  </outline>
</glyph>
<glyph name="gadeva" format="1">
  <advance width="1265"/>
  <unicode hex="0917"/>
  <outline>
    <contour>
      <point x="807" y="1134" type="line"/>
      <point x="1069" y="1134" type="line"/>
      <point x="1069" y="0" type="line"/>
      <point x="807" y="0" type="line"/>
    </contour>
    <contour>
      <point x="1295" y="1096" type="line"/>
      <point x="-30" y="1096" type="line"/>
      <point x="-30" y="1288" type="line"/>
      <point x="1295" y="1288" type="line"/>
    </contour>
    <contour>
      <point x="494" y="1131" type="line"/>
      <point x="494" y="491" type="line"/>
      <point x="494" y="416"/>
      <point x="415" y="334"/>
      <point x="343" y="334" type="qcurve" smooth="yes"/>
      <point x="238" y="334"/>
      <point x="50" y="506"/>
      <point x="50" y="607" type="qcurve" smooth="yes"/>
      <point x="50" y="667"/>
      <point x="128" y="742"/>
      <point x="198" y="742" type="qcurve" smooth="yes"/>
      <point x="272" y="742" type="line"/>
      <point x="232" y="637" type="line"/>
      <point x="232" y="1131" type="line"/>
    </contour>
    <contour>
      <point x="813" y="1288" type="move" name="top"/>
    </contour>
  </outline>
</glyph>
<glyph name="chadeva" format="1">
  <advance width="1478"/>
  <unicode hex="091B"/>
  <outline>
    <contour>
      <point x="1508" y="1096" type="line"/>
      <point x="-30" y="1096" type="line"/>
      <point x="-30" y="1288" type="line"/>
      <point x="1508" y="1288" type="line"/>
    </contour>
    <contour>
      <point x="601" y="647" type="line"/>
      <point x="512" y="647" type="line"/>
      <point x="337" y="647"/>
      <point x="121" y="837"/>
      <point x="121" y="978" type="qcurve" smooth="yes"/>
      <point x="121" y="1118"/>
      <point x="308" y="1285"/>
      <point x="471" y="1285" type="qcurve" smooth="yes"/>
      <point x="602" y="1285" type="line"/>
      <point x="602" y="1096" type="line"/>
      <point x="539" y="1096" type="line"/>
      <point x="467" y="1096"/>
      <point x="396" y="1021"/>
      <point x="396" y="955" type="qcurve" smooth="yes"/>
      <point x="396" y="889"/>
      <point x="478" y="796"/>
      <point x="544" y="796" type="qcurve" smooth="yes"/>
      <point x="601" y="796" type="line"/>
    </contour>
    <contour>
      <point x="1375" y="546" type="qcurve" smooth="yes"/>
      <point x="1374" y="328"/>
      <point x="1021" y="11"/>
      <point x="722" y="9" type="qcurve" smooth="yes"/>
      <point x="444" y="6"/>
      <point x="135" y="249"/>
      <point x="135" y="436" type="qcurve" smooth="yes"/>
      <point x="135" y="604"/>
      <point x="385" y="796"/>
      <point x="552" y="796" type="qcurve" smooth="yes"/>
      <point x="670" y="796" type="line"/>
      <point x="687" y="593" type="line"/>
      <point x="591" y="593" type="line"/>
      <point x="509" y="593"/>
      <point x="418" y="501"/>
      <point x="418" y="424" type="qcurve" smooth="yes"/>
      <point x="418" y="335"/>
      <point x="576" y="219"/>
      <point x="710" y="220" type="qcurve" smooth="yes"/>
      <point x="892" y="222"/>
      <point x="1121" y="415"/>
      <point x="1121" y="556" type="qcurve" smooth="yes"/>
      <point x="1121" y="647"/>
      <point x="1046" y="731"/>
      <point x="1001" y="731" type="qcurve" smooth="yes"/>
      <point x="960" y="731"/>
      <point x="891" y="710"/>
      <point x="852" y="687" type="qcurve"/>
      <point x="794" y="869" type="line"/>
      <point x="847" y="903"/>
      <point x="965" y="938"/>
      <point x="1034" y="938" type="qcurve" smooth="yes"/>
      <point x="1190" y="938"/>
      <point x="1376" y="722"/>
    </contour>
    <contour>
      <point x="1020" y="1143" type="line"/>
      <point x="1283" y="1143" type="line"/>
      <point x="1283" y="766" type="line"/>
      <point x="1020" y="766" type="line"/>
    </contour>
    <contour>
      <point x="585" y="8" type="move" name="btm"/>
    </contour>
    <contour>
      <point x="933" y="1288" type="move" name="top"/>
    </contour>
  </outline>
</glyph>
<glyph name="jadeva" format="1">
  <advance width="1431"/>
  <unicode hex="091C"/>
  <outline>
    <contour>
      <point x="-30" y="1096" type="line"/>
      <point x="-30" y="1288" type="line"/>
      <point x="1461" y="1288" type="line"/>
      <point x="1461" y="1096" type="line"/>
    </contour>
    <contour>
      <point x="544" y="757" type="line"/>
      <point x="637" y="728"/>
      <point x="769" y="555"/>
      <point x="769" y="434" type="qcurve" smooth="yes"/>
      <point x="769" y="275"/>
      <point x="571" y="70"/>
      <point x="385" y="70" type="qcurve" smooth="yes"/>
      <point x="294" y="70"/>
      <point x="130" y="106"/>
      <point x="42" y="145" type="qcurve"/>
      <point x="84" y="342" type="line"/>
      <point x="154" y="310"/>
      <point x="267" y="284"/>
      <point x="322" y="284" type="qcurve" smooth="yes"/>
      <point x="402" y="285"/>
      <point x="504" y="376"/>
      <point x="504" y="467" type="qcurve" smooth="yes"/>
      <point x="504" y="549"/>
      <point x="354" y="674"/>
      <point x="231" y="674" type="qcurve" smooth="yes"/>
      <point x="172" y="674" type="line"/>
      <point x="172" y="875" type="line"/>
      <point x="1057" y="875" type="line"/>
      <point x="1057" y="671" type="line"/>
      <point x="544" y="671" type="line"/>
    </contour>
    <contour>
      <point x="977" y="1134" type="line"/>
      <point x="1236" y="1134" type="line"/>
      <point x="1236" y="0" type="line"/>
      <point x="977" y="0" type="line"/>
    </contour>
    <contour>
      <point x="977" y="1288" type="move" name="top"/>
    </contour>
  </outline>
</glyph>
<glyph name="tthadeva" format="1">
  <advance width="1227"/>
  <unicode hex="0920"/>
  <outline>
    <contour>
      <point x="1257" y="1096" type="line"/>
      <point x="-30" y="1096" type="line"/>
      <point x="-30" y="1288" type="line"/>
      <point x="1257" y="1288" type="line"/>
    </contour>
    <contour>
      <point x="899" y="696" type="line"/>
      <point x="631" y="696" type="line"/>
      <point x="477" y="696"/>
      <point x="323" y="574"/>
      <point x="323" y="476" type="qcurve" smooth="yes"/>
      <point x="323" y="366"/>
      <point x="475" y="246"/>
      <point x="587" y="246" type="qcurve" smooth="yes"/>
      <point x="713" y="246"/>
      <point x="866" y="371"/>
      <point x="866" y="478" type="qcurve" smooth="yes"/>
      <point x="866" y="563"/>
      <point x="787" y="692"/>
      <point x="716" y="718" type="qcurve"/>
      <point x="928" y="861" type="line"/>
      <point x="1019" y="800"/>
      <point x="1122" y="596"/>
      <point x="1123" y="467" type="qcurve" smooth="yes"/>
      <point x="1123" y="277"/>
      <point x="849" y="35"/>
      <point x="610" y="34" type="qcurve" smooth="yes"/>
      <point x="355" y="33"/>
      <point x="55" y="287"/>
      <point x="55" y="494" type="qcurve" smooth="yes"/>
      <point x="55" y="675"/>
      <point x="350" y="899"/>
      <point x="587" y="899" type="qcurve" smooth="yes"/>
      <point x="830" y="899" type="line"/>
      <point x="769" y="836" type="line"/>
      <point x="769" y="1137" type="line"/>
      <point x="1032" y="1137" type="line"/>
      <point x="1032" y="696" type="line"/>
    </contour>
    <contour>
      <point x="500" y="17" type="move" name="btm"/>
    </contour>
    <contour>
      <point x="705" y="1288" type="move" name="top"/>
    </contour>
  </outline>
</glyph>
<glyph name="ddhadeva" format="1">
  <advance width="1119"/>
  <unicode hex="0922"/>
  <outline>
    <contour>
      <point x="1149" y="1096" type="line"/>
      <point x="-30" y="1096" type="line"/>
      <point x="-30" y="1288" type="line"/>
      <point x="1149" y="1288" type="line"/>
    </contour>
    <contour>
      <point x="661" y="1128" type="line"/>
      <point x="924" y="1128" type="line"/>
      <point x="924" y="711" type="line"/>
      <point x="607" y="711" type="line"/>
      <point x="454" y="711"/>
      <point x="313" y="579"/>
      <point x="313" y="472" type="qcurve" smooth="yes"/>
      <point x="313" y="344"/>
      <point x="488" y="203"/>
      <point x="627" y="203" type="qcurve" smooth="yes"/>
      <point x="727" y="203"/>
      <point x="821" y="275"/>
      <point x="821" y="322" type="qcurve" smooth="yes"/>
      <point x="821" y="361"/>
      <point x="764" y="407"/>
      <point x="708" y="407" type="qcurve" smooth="yes"/>
      <point x="664" y="407"/>
      <point x="563" y="365"/>
      <point x="513" y="327" type="qcurve"/>
      <point x="427" y="486" type="line"/>
      <point x="481" y="533"/>
      <point x="637" y="599"/>
      <point x="728" y="599" type="qcurve" smooth="yes"/>
      <point x="885" y="599"/>
      <point x="1055" y="438"/>
      <point x="1055" y="318" type="qcurve" smooth="yes"/>
      <point x="1055" y="184"/>
      <point x="841" y="16"/>
      <point x="626" y="16" type="qcurve" smooth="yes"/>
      <point x="377" y="16"/>
      <point x="57" y="277"/>
      <point x="57" y="494" type="qcurve" smooth="yes"/>
      <point x="57" y="680"/>
      <point x="321" y="912"/>
      <point x="567" y="912" type="qcurve" smooth="yes"/>
      <point x="712" y="912" type="line"/>
      <point x="661" y="859" type="line"/>
    </contour>
    <contour>
      <point x="469" y="17" type="move" name="btm"/>
    </contour>
    <contour>
      <point x="627" y="1288" type="move" name="top"/>
    </contour>
  </outline>
</glyph>
<glyph name="nnadeva" format="1">
  <advance width="1569"/>
  <unicode hex="0923"/>
  <outline>
    <contour>
      <point x="616" y="1137" type="line"/>
      <point x="878" y="1137" type="line"/>
      <point x="878" y="742" type="line"/>
      <point x="878" y="550"/>
      <point x="669" y="348"/>
      <point x="497" y="348" type="qcurve" smooth="yes"/>
      <point x="333" y="348"/>
      <point x="107" y="552"/>
      <point x="107" y="748" type="qcurve" smooth="yes"/>
      <point x="107" y="1137" type="line"/>
      <point x="369" y="1137" type="line"/>
      <point x="369" y="732" type="line"/>
      <point x="369" y="651"/>
      <point x="433" y="564"/>
      <point x="490" y="564" type="qcurve" smooth="yes"/>
      <point x="551" y="564"/>
      <point x="616" y="647"/>
      <point x="616" y="732" type="qcurve" smooth="yes"/>
    </contour>
    <contour>
      <point x="-30" y="1288" type="line"/>
      <point x="1599" y="1288" type="line"/>
      <point x="1599" y="1096" type="line"/>
      <point x="-30" y="1096" type="line"/>
    </contour>
    <contour>
      <point x="1111" y="1134" type="line"/>
      <point x="1374" y="1134" type="line"/>
      <point x="1374" y="0" type="line"/>
      <point x="1111" y="0" type="line"/>
    </contour>
    <contour>
      <point x="995" y="1288" type="move" name="top"/>
    </contour>
  </outline>
</glyph>
<glyph name="tadeva" format="1">
  <advance width="1177"/>
  <unicode hex="0924"/>
  <outline>
    <contour>
      <point x="790" y="896" type="line"/>
      <point x="790" y="680" type="line"/>
      <point x="585" y="680" type="line"/>
      <point x="457" y="680"/>
      <point x="332" y="549"/>
      <point x="332" y="451" type="qcurve" smooth="yes"/>
      <point x="332" y="364"/>
      <point x="408" y="175"/>
      <point x="489" y="69" type="qcurve"/>
      <point x="274" y="-9" type="line"/>
      <point x="176" y="111"/>
      <point x="72" y="377"/>
      <point x="72" y="500" type="qcurve" smooth="yes"/>
      <point x="73" y="671"/>
      <point x="297" y="896"/>
      <point x="519" y="896" type="qcurve" smooth="yes"/>
    </contour>
    <contour>
      <point x="-30" y="1288" type="line"/>
      <point x="1207" y="1288" type="line"/>
      <point x="1207" y="1096" type="line"/>
      <point x="-30" y="1096" type="line"/>
    </contour>
    <contour>
      <point x="719" y="1134" type="line"/>
      <point x="981" y="1134" type="line"/>
      <point x="981" y="0" type="line"/>
      <point x="719" y="0" type="line"/>
    </contour>
    <contour>
      <point x="723" y="1288" type="move" name="top"/>
    </contour>
  </outline>
</glyph>
<glyph name="thadeva" format="1">
  <advance width="1347"/>
  <unicode hex="0925"/>
  <outline>
    <contour>
      <point x="312" y="898" type="qcurve"/>
      <point x="115" y="877" type="line"/>
      <point x="99" y="911"/>
      <point x="83" y="984"/>
      <point x="84" y="1029" type="qcurve" smooth="yes"/>
      <point x="85" y="1130"/>
      <point x="245" y="1280"/>
      <point x="399" y="1280" type="qcurve" smooth="yes"/>
      <point x="556" y="1280"/>
      <point x="739" y="1092"/>
      <point x="739" y="950" type="qcurve" smooth="yes"/>
      <point x="739" y="772"/>
      <point x="472" y="551"/>
      <point x="252" y="556" type="qcurve"/>
      <point x="299" y="678" type="line"/>
      <point x="319" y="535"/>
      <point x="516" y="396"/>
      <point x="638" y="396" type="qcurve" smooth="yes"/>
      <point x="739" y="396"/>
      <point x="919" y="478"/>
      <point x="954" y="531" type="qcurve"/>
      <point x="954" y="250" type="line"/>
      <point x="916" y="225"/>
      <point x="757" y="187"/>
      <point x="658" y="187" type="qcurve" smooth="yes"/>
      <point x="431" y="187"/>
      <point x="100" y="433"/>
      <point x="30" y="680" type="qcurve"/>
      <point x="35" y="715" type="line"/>
      <point x="326" y="730"/>
      <point x="510" y="868"/>
      <point x="510" y="956" type="qcurve" smooth="yes"/>
      <point x="510" y="1020"/>
      <point x="445" y="1086"/>
      <point x="397" y="1086" type="qcurve" smooth="yes"/>
      <point x="351" y="1086"/>
      <point x="298" y="1023"/>
      <point x="298" y="979" type="qcurve" smooth="yes"/>
      <point x="298" y="956"/>
      <point x="305" y="920"/>
    </contour>
    <contour>
      <point x="889" y="1134" type="line"/>
      <point x="1152" y="1134" type="line"/>
      <point x="1152" y="0" type="line"/>
      <point x="889" y="0" type="line"/>
    </contour>
    <contour>
      <point x="1377" y="1096" type="line"/>
      <point x="825" y="1096" type="line"/>
      <point x="825" y="1288" type="line"/>
      <point x="1377" y="1288" type="line"/>
    </contour>
    <contour>
      <point x="895" y="1288" type="move" name="top"/>
    </contour>
  </outline>
</glyph>
<glyph name="dadeva" format="1">
  <advance width="1086"/>
  <unicode hex="0926"/>
  <outline>
    <contour>
      <point x="1116" y="1096" type="line"/>
      <point x="-30" y="1096" type="line"/>
      <point x="-30" y="1288" type="line"/>
      <point x="1116" y="1288" type="line"/>
    </contour>
    <contour>
      <point x="589" y="213" type="line"/>
      <point x="801" y="278" type="line"/>
      <point x="982" y="-143" type="line"/>
      <point x="744" y="-191" type="line"/>
    </contour>
    <contour>
      <point x="64" y="527" type="qcurve" smooth="yes"/>
      <point x="64" y="698"/>
      <point x="309" y="898"/>
      <point x="553" y="898" type="qcurve" smooth="yes"/>
      <point x="680" y="898" type="line"/>
      <point x="628" y="850" type="line"/>
      <point x="628" y="1133" type="line"/>
      <point x="891" y="1133" type="line"/>
      <point x="891" y="695" type="line"/>
      <point x="606" y="695" type="line"/>
      <point x="449" y="695"/>
      <point x="325" y="587"/>
      <point x="325" y="502" type="qcurve" smooth="yes"/>
      <point x="325" y="413"/>
      <point x="458" y="307"/>
      <point x="560" y="307" type="qcurve" smooth="yes"/>
      <point x="584" y="307"/>
      <point x="643" y="313"/>
      <point x="679" y="319" type="qcurve"/>
      <point x="576" y="238" type="line"/>
      <point x="565" y="274"/>
      <point x="550" y="318"/>
      <point x="550" y="353" type="qcurve" smooth="yes"/>
      <point x="551" y="413"/>
      <point x="644" y="499"/>
      <point x="740" y="499" type="qcurve" smooth="yes"/>
      <point x="846" y="499"/>
      <point x="990" y="376"/>
      <point x="990" y="304" type="qcurve" smooth="yes"/>
      <point x="990" y="219"/>
      <point x="803" y="102"/>
      <point x="601" y="102" type="qcurve" smooth="yes"/>
      <point x="373" y="102"/>
      <point x="64" y="333"/>
    </contour>
    <contour>
      <point x="753" y="-148" type="move" name="btm"/>
    </contour>
    <contour>
      <point x="594" y="1288" type="move" name="top"/>
    </contour>
  </outline>
</glyph>
<glyph name="nadeva" format="1">
  <advance width="1175"/>
  <unicode hex="0928"/>
  <outline>
    <contour>
      <point x="759" y="831" type="line"/>
      <point x="759" y="611" type="line"/>
      <point x="313" y="611" type="line"/>
      <point x="408" y="663" type="line"/>
      <point x="408" y="449" type="line"/>
      <point x="408" y="383"/>
      <point x="346" y="307"/>
      <point x="285" y="307" type="qcurve" smooth="yes"/>
      <point x="192" y="307"/>
      <point x="45" y="525"/>
      <point x="45" y="647" type="qcurve" smooth="yes"/>
      <point x="45" y="733"/>
      <point x="145" y="831"/>
      <point x="254" y="831" type="qcurve" smooth="yes"/>
    </contour>
    <contour>
      <point x="-30" y="1288" type="line"/>
      <point x="1205" y="1288" type="line"/>
      <point x="1205" y="1096" type="line"/>
      <point x="-30" y="1096" type="line"/>
    </contour>
    <contour>
      <point x="717" y="1134" type="line"/>
      <point x="979" y="1134" type="line"/>
      <point x="979" y="0" type="line"/>
      <point x="717" y="0" type="line"/>
    </contour>
    <contour>
      <point x="723" y="1288" type="move" name="top"/>
    </contour>
  </outline>
</glyph>
<glyph name="padeva" format="1">
  <advance width="1134"/>
  <unicode hex="092A"/>
  <outline>
    <contour>
      <point x="1164" y="1096" type="line"/>
      <point x="-30" y="1096" type="line"/>
      <point x="-30" y="1288" type="line"/>
      <point x="1164" y="1288" type="line"/>
    </contour>
    <contour>
      <point x="362" y="1138" type="line"/>
      <point x="362" y="759" type="line"/>
      <point x="362" y="663"/>
      <point x="440" y="576"/>
      <point x="508" y="576" type="qcurve" smooth="yes"/>
      <point x="565" y="576"/>
      <point x="666" y="623"/>
      <point x="704" y="686" type="qcurve"/>
      <point x="704" y="416" type="line"/>
      <point x="662" y="393"/>
      <point x="578" y="371"/>
      <point x="512" y="371" type="qcurve" smooth="yes"/>
      <point x="332" y="371"/>
      <point x="99" y="597"/>
      <point x="99" y="825" type="qcurve" smooth="yes"/>
      <point x="99" y="1138" type="line"/>
    </contour>
    <contour>
      <point x="676" y="1134" type="line"/>
      <point x="938" y="1134" type="line"/>
      <point x="938" y="0" type="line"/>
      <point x="676" y="0" type="line"/>
    </contour>
    <contour>
      <point x="681" y="1288" type="move" name="top"/>
    </contour>
  </outline>
</glyph>
<glyph name="phadeva" format="1">
  <advance width="1609"/>
  <unicode hex="092B"/>
  <outline>
    <contour>
      <point x="1003" y="1288" type="line"/>
      <point x="1639" y="1288" type="line"/>
      <point x="1639" y="1096" type="line"/>
      <point x="1003" y="1096" type="line"/>
    </contour>
    <contour>
      <point x="880" y="839" type="line"/>
      <point x="920" y="857"/>
      <point x="1039" y="889"/>
      <point x="1123" y="889" type="qcurve" smooth="yes"/>
      <point x="1292" y="889"/>
      <point x="1524" y="676"/>
      <point x="1524" y="503" type="qcurve" smooth="yes"/>
      <point x="1524" y="414"/>
      <point x="1464" y="235"/>
      <point x="1398" y="152" type="qcurve"/>
      <point x="1148" y="202" type="line"/>
      <point x="1199" y="272"/>
      <point x="1262" y="424"/>
      <point x="1262" y="503" type="qcurve" smooth="yes"/>
      <point x="1262" y="580"/>
      <point x="1169" y="673"/>
      <point x="1097" y="673" type="qcurve" smooth="yes"/>
      <point x="1045" y="673"/>
      <point x="931" y="622"/>
      <point x="880" y="576" type="qcurve"/>
    </contour>
    <component base="padeva"/>
    <contour>
      <point x="697" y="0" type="move" name="btm"/>
    </contour>
    <contour>
      <point x="694" y="1288" type="move" name="top"/>
    </contour>
  </outline>
</glyph>
<glyph name="badeva" format="1">
  <advance width="1156"/>
  <unicode hex="092C"/>
  <outline>
    <contour>
      <point x="682" y="371" type="line"/>
      <point x="579" y="292" type="line"/>
      <point x="290" y="819" type="line"/>
      <point x="392" y="894" type="line"/>
    </contour>
    <component base="vadeva"/>
    <contour>
      <point x="755" y="1291" type="move" name="top"/>
    </contour>
  </outline>
</glyph>
<glyph name="bhadeva" format="1">
  <advance width="1208"/>
  <unicode hex="092D"/>
  <outline>
    <contour>
      <point x="750" y="1134" type="line"/>
      <point x="1012" y="1134" type="line"/>
      <point x="1012" y="0" type="line"/>
      <point x="750" y="0" type="line"/>
    </contour>
    <contour>
      <point x="318" y="706" type="line"/>
      <point x="921" y="706" type="line"/>
      <point x="921" y="494" type="line"/>
      <point x="318" y="494" type="line"/>
    </contour>
    <contour>
      <point x="1238" y="1096" type="line"/>
      <point x="679" y="1096" type="line"/>
      <point x="679" y="1288" type="line"/>
      <point x="1238" y="1288" type="line"/>
    </contour>
    <contour>
      <point x="476" y="963" type="qcurve" smooth="yes"/>
      <point x="476" y="432" type="line"/>
      <point x="476" y="373"/>
      <point x="412" y="306"/>
      <point x="351" y="306" type="qcurve" smooth="yes"/>
      <point x="242" y="306"/>
      <point x="49" y="475"/>
      <point x="49" y="573" type="qcurve" smooth="yes"/>
      <point x="49" y="633"/>
      <point x="131" y="706"/>
      <point x="195" y="706" type="qcurve" smooth="yes"/>
      <point x="254" y="706" type="line"/>
      <point x="213" y="601" type="line"/>
      <point x="213" y="951" type="line"/>
      <point x="213" y="1032"/>
      <point x="156" y="1103"/>
      <point x="112" y="1102" type="qcurve" smooth="yes"/>
      <point x="77" y="1102"/>
      <point x="27" y="1085"/>
      <point x="-9" y="1061" type="qcurve"/>
      <point x="-35" y="1246" type="line"/>
      <point x="-3" y="1273"/>
      <point x="104" y="1308"/>
      <point x="172" y="1308" type="qcurve" smooth="yes"/>
      <point x="315" y="1308"/>
      <point x="476" y="1128"/>
    </contour>
    <contour>
      <point x="756" y="1288" type="move" name="top"/>
    </contour>
  </outline>
</glyph>
<glyph name="yadeva" format="1">
  <advance width="1243"/>
  <unicode hex="092F"/>
  <outline>
    <contour>
      <point x="-30" y="1288" type="line"/>
      <point x="1273" y="1288" type="line"/>
      <point x="1273" y="1096" type="line"/>
      <point x="-30" y="1096" type="line"/>
    </contour>
    <contour>
      <point x="150" y="1129" type="qcurve"/>
      <point x="459" y="1129" type="line"/>
      <point x="509" y="1092"/>
      <point x="578" y="960"/>
      <point x="578" y="886" type="qcurve" smooth="yes"/>
      <point x="578" y="757"/>
      <point x="395" y="589"/>
      <point x="263" y="586" type="qcurve"/>
      <point x="305" y="690" type="line"/>
      <point x="346" y="566"/>
      <point x="511" y="454"/>
      <point x="603" y="454" type="qcurve" smooth="yes"/>
      <point x="683" y="454"/>
      <point x="797" y="510"/>
      <point x="837" y="561" type="qcurve"/>
      <point x="837" y="287" type="line"/>
      <point x="796" y="267"/>
      <point x="691" y="245"/>
      <point x="611" y="244" type="qcurve" smooth="yes"/>
      <point x="421" y="243"/>
      <point x="101" y="474"/>
      <point x="31" y="694" type="qcurve"/>
      <point x="36" y="727" type="line"/>
      <point x="177" y="740"/>
      <point x="318" y="839"/>
      <point x="318" y="919" type="qcurve" smooth="yes"/>
      <point x="318" y="982"/>
      <point x="243" y="1090"/>
    </contour>
    <contour>
      <point x="785" y="1134" type="line"/>
      <point x="1048" y="1134" type="line"/>
      <point x="1048" y="0" type="line"/>
      <point x="785" y="0" type="line"/>
    </contour>
    <contour>
      <point x="791" y="1288" type="move" name="top"/>
    </contour>
  </outline>
</glyph>
<glyph name="radeva" format="1">
  <advance width="884"/>
  <unicode hex="0930"/>
  <outline>
    <contour>
      <point x="778" y="100" type="line"/>
      <point x="590" y="-35" type="line"/>
      <point x="-33" y="708" type="line"/>
      <point x="148" y="849" type="line"/>
      <point x="328" y="684" type="line"/>
      <point x="328" y="639" type="line"/>
    </contour>
    <contour>
      <point x="291" y="692" type="line"/>
      <point x="367" y="692"/>
      <point x="439" y="773"/>
      <point x="439" y="869" type="qcurve" smooth="yes"/>
      <point x="439" y="1149" type="line"/>
      <point x="702" y="1149" type="line"/>
      <point x="702" y="865" type="line"/>
      <point x="702" y="663"/>
      <point x="510" y="443"/>
      <point x="291" y="443" type="qcurve"/>
    </contour>
    <contour>
      <point x="-30" y="1096" type="line"/>
      <point x="-30" y="1288" type="line"/>
      <point x="914" y="1288" type="line"/>
      <point x="914" y="1096" type="line"/>
    </contour>
    <contour>
      <point x="375" y="34" type="move" name="btm"/>
    </contour>
    <contour>
      <point x="479" y="1289" type="move" name="top"/>
    </contour>
  </outline>
</glyph>
<glyph name="rradeva" format="1">
  <advance width="888"/>
  <unicode hex="0931"/>
  <outline>
    <component base="radeva"/>
    <component base="nuktadeva" xOffset="966"/>
    <contour>
      <point x="375" y="-5" type="move" name="btm"/>
    </contour>
    <contour>
      <point x="493" y="1279" type="move" name="top"/>
    </contour>
  </outline>
</glyph>
<glyph name="lladeva" format="1">
  <advance width="1629"/>
  <unicode hex="0933"/>
  <outline>
    <contour>
      <point x="1659" y="1096" type="line"/>
      <point x="-30" y="1096" type="line"/>
      <point x="-30" y="1288" type="line"/>
      <point x="1659" y="1288" type="line"/>
    </contour>
    <contour>
      <point x="1433" y="769" type="line"/>
      <point x="1170" y="773" type="line"/>
      <point x="1170" y="1141" type="line"/>
      <point x="1433" y="1141" type="line"/>
    </contour>
    <contour>
      <point x="646" y="479" type="qcurve" smooth="yes"/>
      <point x="646" y="605"/>
      <point x="551" y="714"/>
      <point x="467" y="714" type="qcurve" smooth="yes"/>
      <point x="395" y="714"/>
      <point x="300" y="599"/>
      <point x="300" y="477" type="qcurve" smooth="yes"/>
      <point x="300" y="359"/>
      <point x="399" y="244"/>
      <point x="471" y="244" type="qcurve" smooth="yes"/>
      <point x="549" y="244"/>
      <point x="646" y="359"/>
    </contour>
    <contour>
      <point x="877" y="608" type="qcurve"/>
      <point x="739" y="597" type="line"/>
      <point x="776" y="749"/>
      <point x="990" y="915"/>
      <point x="1127" y="915" type="qcurve" smooth="yes"/>
      <point x="1336" y="915"/>
      <point x="1541" y="657"/>
      <point x="1541" y="481" type="qcurve" smooth="yes"/>
      <point x="1541" y="285"/>
      <point x="1335" y="44"/>
      <point x="1147" y="44" type="qcurve" smooth="yes"/>
      <point x="1022" y="44"/>
      <point x="805" y="173"/>
      <point x="751" y="302" type="qcurve"/>
      <point x="861" y="314" type="line"/>
      <point x="838" y="199"/>
      <point x="641" y="47"/>
      <point x="478" y="46" type="qcurve" smooth="yes"/>
      <point x="297" y="44"/>
      <point x="63" y="287"/>
      <point x="63" y="483" type="qcurve" smooth="yes"/>
      <point x="63" y="680"/>
      <point x="276" y="913"/>
      <point x="460" y="913" type="qcurve" smooth="yes"/>
      <point x="625" y="913"/>
      <point x="848" y="731"/>
    </contour>
    <contour>
      <point x="973" y="489" type="qcurve" smooth="yes"/>
      <point x="973" y="363"/>
      <point x="1069" y="249"/>
      <point x="1144" y="249" type="qcurve" smooth="yes"/>
      <point x="1217" y="249"/>
      <point x="1307" y="370"/>
      <point x="1307" y="487" type="qcurve" smooth="yes"/>
      <point x="1307" y="601"/>
      <point x="1214" y="715"/>
      <point x="1138" y="715" type="qcurve" smooth="yes"/>
      <point x="1069" y="715"/>
      <point x="973" y="601"/>
    </contour>
    <contour>
      <point x="1048" y="2" type="move" name="btm"/>
    </contour>
    <contour>
      <point x="1151" y="1288" type="move" name="top"/>
    </contour>
  </outline>
</glyph>
<glyph name="ssadeva" format="1">
  <advance width="1134"/>
  <unicode hex="0937"/>
  <outline>
    <contour>
      <point x="729" y="591" type="line"/>
      <point x="625" y="512" type="line"/>
      <point x="273" y="1150" type="line"/>
      <point x="376" y="1225" type="line"/>
    </contour>
    <component base="padeva"/>
    <contour>
      <point x="725" y="1291" type="move" name="top"/>
    </contour>
  </outline>
</glyph>
<glyph name="sadeva" format="1">
  <advance width="1412"/>
  <unicode hex="0938"/>
  <outline>
    <contour>
      <point x="-30" y="1096" type="line"/>
      <point x="-30" y="1288" type="line"/>
      <point x="1442" y="1288" type="line"/>
      <point x="1442" y="1096" type="line"/>
    </contour>
    <contour>
      <point x="438" y="696" type="line"/>
      <point x="1000" y="696" type="line"/>
      <point x="1000" y="485" type="line"/>
      <point x="349" y="485" type="line"/>
    </contour>
    <contour>
      <point x="954" y="1134" type="line"/>
      <point x="1217" y="1134" type="line"/>
      <point x="1217" y="0" type="line"/>
      <point x="954" y="0" type="line"/>
    </contour>
    <contour>
      <point x="714" y="87" type="line"/>
      <point x="511" y="-28" type="line"/>
      <point x="-23" y="724" type="line"/>
      <point x="160" y="855" type="line"/>
      <point x="308" y="697" type="line"/>
      <point x="308" y="665" type="line"/>
    </contour>
    <contour>
      <point x="253" y="690" type="line"/>
      <point x="330" y="690"/>
      <point x="402" y="773"/>
      <point x="402" y="869" type="qcurve" smooth="yes"/>
      <point x="402" y="1149" type="line"/>
      <point x="665" y="1149" type="line"/>
      <point x="665" y="844" type="line"/>
      <point x="665" y="643"/>
      <point x="473" y="443"/>
      <point x="253" y="443" type="qcurve"/>
    </contour>
    <contour>
      <point x="961" y="1288" type="move" name="top"/>
    </contour>
  </outline>
</glyph>
<glyph name="hadeva" format="1">
  <advance width="1116"/>
  <unicode hex="0939"/>
  <outline>
    <contour>
      <point x="434" y="942" type="qcurve" smooth="yes"/>
      <point x="712" y="942" type="line"/>
      <point x="657" y="884" type="line"/>
      <point x="657" y="1137" type="line"/>
      <point x="920" y="1137" type="line"/>
      <point x="920" y="738" type="line"/>
      <point x="488" y="738" type="line"/>
      <point x="415" y="738"/>
      <point x="350" y="686"/>
      <point x="350" y="642" type="qcurve" smooth="yes"/>
      <point x="350" y="595"/>
      <point x="427" y="531"/>
      <point x="492" y="521" type="qcurve"/>
      <point x="364" y="362" type="line"/>
      <point x="233" y="411"/>
      <point x="88" y="579"/>
      <point x="88" y="685" type="qcurve" smooth="yes"/>
      <point x="88" y="800"/>
      <point x="265" y="942"/>
    </contour>
    <contour>
      <point x="998" y="235" type="qcurve" smooth="yes"/>
      <point x="998" y="190"/>
      <point x="986" y="132"/>
      <point x="969" y="86" type="qcurve"/>
      <point x="727" y="109" type="line"/>
      <point x="736" y="144"/>
      <point x="743" y="179"/>
      <point x="743" y="212" type="qcurve" smooth="yes"/>
      <point x="743" y="279"/>
      <point x="655" y="368"/>
      <point x="577" y="366" type="qcurve" smooth="yes"/>
      <point x="488" y="364"/>
      <point x="389" y="254"/>
      <point x="389" y="171" type="qcurve" smooth="yes"/>
      <point x="389" y="56"/>
      <point x="611" y="-79"/>
      <point x="882" y="-79" type="qcurve"/>
      <point x="851" y="-280" type="line"/>
      <point x="489" y="-280"/>
      <point x="126" y="-22"/>
      <point x="126" y="191" type="qcurve" smooth="yes"/>
      <point x="126" y="350"/>
      <point x="368" y="572"/>
      <point x="567" y="572" type="qcurve" smooth="yes"/>
      <point x="768" y="572"/>
      <point x="998" y="373"/>
    </contour>
    <contour>
      <point x="1146" y="1096" type="line"/>
      <point x="-30" y="1096" type="line"/>
      <point x="-30" y="1288" type="line"/>
      <point x="1146" y="1288" type="line"/>
    </contour>
    <contour>
      <point x="661" y="1288" type="move" name="top"/>
    </contour>
  </outline>
</glyph>
<glyph name="aavowelsigndeva" format="1">
  <advance width="599"/>
  <unicode hex="093E"/>
  <outline>
    <contour>
      <point x="141" y="1134" type="line"/>
      <point x="404" y="1134" type="line"/>
      <point x="404" y="0" type="line"/>
      <point x="141" y="0" type="line"/>
    </contour>
    <contour>
      <point x="629" y="1096" type="line"/>
      <point x="-30" y="1096" type="line"/>
      <point x="-30" y="1288" type="line"/>
      <point x="629" y="1288" type="line"/>
    </contour>
  </outline>
</glyph>
<glyph name="uvowelsigndeva" format="1">
  <unicode hex="0941"/>
  <outline>
    <contour>
      <point x="-618" y="-25" type="line"/>
      <point x="-570" y="6"/>
      <point x="-424" y="46"/>
      <point x="-347" y="46" type="qcurve" smooth="yes"/>
      <point x="-172" y="46"/>
      <point x="17" y="-132"/>
      <point x="17" y="-259" type="qcurve" smooth="yes"/>
      <point x="17" y="-392"/>
      <point x="-189" y="-560"/>
      <point x="-362" y="-560" type="qcurve" smooth="yes"/>
      <point x="-491" y="-560"/>
      <point x="-767" y="-456"/>
      <point x="-903" y="-340" type="qcurve"/>
      <point x="-826" y="-155" type="line"/>
      <point x="-683" y="-279"/>
      <point x="-467" y="-362"/>
      <point x="-388" y="-362" type="qcurve" smooth="yes"/>
      <point x="-302" y="-362"/>
      <point x="-214" y="-301"/>
      <point x="-214" y="-247" type="qcurve" smooth="yes"/>
      <point x="-214" y="-197"/>
      <point x="-289" y="-140"/>
      <point x="-361" y="-140" type="qcurve" smooth="yes"/>
      <point x="-414" y="-140"/>
      <point x="-509" y="-165"/>
      <point x="-559" y="-193" type="qcurve"/>
    </contour>
    <contour>
      <point x="-441" y="0" type="move" name="_btm"/>
    </contour>
  </outline>
</glyph>
<glyph name="uuvowelsigndeva" format="1">
  <unicode hex="0942"/>
  <outline>
    <contour>
      <point x="-159" y="-556" type="line"/>
      <point x="-196" y="-569"/>
      <point x="-278" y="-577"/>
      <point x="-322" y="-577" type="qcurve" smooth="yes"/>
      <point x="-491" y="-577"/>
      <point x="-710" y="-400"/>
      <point x="-710" y="-258" type="qcurve" smooth="yes"/>
      <point x="-710" y="-131"/>
      <point x="-519" y="35"/>
      <point x="-348" y="35" type="qcurve" smooth="yes"/>
      <point x="-196" y="35"/>
      <point x="99" y="-153"/>
      <point x="238" y="-371" type="qcurve"/>
      <point x="103" y="-513" type="line"/>
      <point x="-35" y="-304"/>
      <point x="-245" y="-167"/>
      <point x="-335" y="-167" type="qcurve" smooth="yes"/>
      <point x="-406" y="-167"/>
      <point x="-480" y="-232"/>
      <point x="-480" y="-279" type="qcurve" smooth="yes"/>
      <point x="-480" y="-336"/>
      <point x="-389" y="-393"/>
      <point x="-326" y="-393" type="qcurve" smooth="yes"/>
      <point x="-278" y="-393"/>
      <point x="-222" y="-386"/>
      <point x="-180" y="-379" type="qcurve"/>
    </contour>
    <contour>
      <point x="-441" y="0" type="move" name="_btm"/>
    </contour>
  </outline>
</glyph>
<glyph name="ecandravowelsigndeva" format="1">
  <unicode hex="0945"/>
  <outline>
    <contour>
      <point x="-564" y="1581" type="qcurve" smooth="yes"/>
      <point x="-470" y="1581"/>
      <point x="-294" y="1635"/>
      <point x="-221" y="1700" type="qcurve"/>
      <point x="-184" y="1521" type="line"/>
      <point x="-240" y="1458"/>
      <point x="-437" y="1384"/>
      <point x="-563" y="1384" type="qcurve" smooth="yes"/>
      <point x="-674" y="1384"/>
      <point x="-886" y="1460"/>
      <point x="-962" y="1525" type="qcurve"/>
      <point x="-926" y="1707" type="line"/>
      <point x="-847" y="1643"/>
      <point x="-659" y="1581"/>
    </contour>
    <contour>
      <point x="-371" y="1291" type="move" name="_top"/>
    </contour>
  </outline>
</glyph>
<glyph name="prishthaevowelsign" format="1">
  <advance width="586"/>
  <unicode hex="094E"/>
  <outline>
    <contour>
      <point x="140" y="1134" type="line"/>
      <point x="399" y="1134" type="line"/>
      <point x="399" y="0" type="line"/>
      <point x="140" y="0" type="line"/>
    </contour>
    <contour>
      <point x="615" y="1096" type="line"/>
      <point x="140" y="1096" type="line"/>
      <point x="140" y="1288" type="line"/>
      <point x="615" y="1288" type="line"/>
    </contour>
  </outline>
</glyph>
<glyph name="awvowelsigndevaKSH" format="1">
  <advance width="599"/>
  <unicode hex="094F"/>
  <outline>
    <contour>
      <point x="218" y="1213" type="line"/>
      <point x="218" y="1480" type="line"/>
      <point x="218" y="1526"/>
      <point x="173" y="1573"/>
      <point x="141" y="1573" type="qcurve" smooth="yes"/>
      <point x="107" y="1573"/>
      <point x="18" y="1547"/>
      <point x="-36" y="1547" type="qcurve" smooth="yes"/>
      <point x="-110" y="1547"/>
      <point x="-231" y="1601"/>
      <point x="-285" y="1649" type="qcurve"/>
      <point x="-225" y="1794" type="line"/>
      <point x="-169" y="1752"/>
      <point x="-72" y="1721"/>
      <point x="-34" y="1721" type="qcurve" smooth="yes"/>
      <point x="16" y="1721"/>
      <point x="147" y="1765"/>
      <point x="198" y="1765" type="qcurve" smooth="yes"/>
      <point x="285" y="1765"/>
      <point x="404" y="1642"/>
      <point x="404" y="1515" type="qcurve" smooth="yes"/>
      <point x="404" y="1213" type="line"/>
    </contour>
    <contour>
      <point x="137" y="1186" type="line"/>
      <point x="71" y="1290" type="line"/>
      <point x="48" y="1326"/>
      <point x="3" y="1359"/>
      <point x="-28" y="1359" type="qcurve" smooth="yes"/>
      <point x="-66" y="1359"/>
      <point x="-159" y="1332"/>
      <point x="-217" y="1332" type="qcurve" smooth="yes"/>
      <point x="-276" y="1332"/>
      <point x="-389" y="1378"/>
      <point x="-435" y="1412" type="qcurve"/>
      <point x="-383" y="1563" type="line"/>
      <point x="-343" y="1532"/>
      <point x="-257" y="1501"/>
      <point x="-213" y="1501" type="qcurve" smooth="yes"/>
      <point x="-170" y="1501"/>
      <point x="-38" y="1539"/>
      <point x="14" y="1539" type="qcurve" smooth="yes"/>
      <point x="96" y="1539"/>
      <point x="217" y="1435"/>
      <point x="269" y="1340" type="qcurve" smooth="yes"/>
      <point x="354" y="1186" type="line"/>
    </contour>
    <component base="aavowelsigndeva" yOffset="1"/>
  </outline>
</glyph>
<glyph name="omdeva" format="1">
  <advance width="1868"/>
  <unicode hex="0950"/>
  <outline>
    <contour>
      <point x="1264" y="242" type="qcurve"/>
      <point x="1287" y="419" type="line"/>
      <point x="1318" y="413"/>
      <point x="1365" y="408"/>
      <point x="1398" y="408" type="qcurve" smooth="yes"/>
      <point x="1455" y="408"/>
      <point x="1529" y="508"/>
      <point x="1529" y="610" type="qcurve" smooth="yes"/>
      <point x="1529" y="712"/>
      <point x="1462" y="799"/>
      <point x="1411" y="799" type="qcurve" smooth="yes"/>
      <point x="1361" y="799"/>
      <point x="1287" y="702"/>
      <point x="1265" y="581" type="qcurve" smooth="yes"/>
      <point x="1233" y="415"/>
      <point x="1067" y="271"/>
      <point x="917" y="271" type="qcurve" smooth="yes"/>
      <point x="858" y="271"/>
      <point x="790" y="287"/>
      <point x="758" y="295" type="qcurve"/>
      <point x="758" y="495" type="line"/>
      <point x="798" y="480"/>
      <point x="841" y="466"/>
      <point x="893" y="466" type="qcurve" smooth="yes"/>
      <point x="946" y="466"/>
      <point x="1009" y="532"/>
      <point x="1030" y="626" type="qcurve" smooth="yes"/>
      <point x="1070" y="817"/>
      <point x="1253" y="997"/>
      <point x="1397" y="997" type="qcurve" smooth="yes"/>
      <point x="1560" y="997"/>
      <point x="1763" y="770"/>
      <point x="1763" y="604" type="qcurve" smooth="yes"/>
      <point x="1763" y="429"/>
      <point x="1574" y="219"/>
      <point x="1413" y="219" type="qcurve" smooth="yes"/>
      <point x="1369" y="219"/>
      <point x="1308" y="230"/>
    </contour>
    <contour>
      <point x="252" y="592" type="qcurve"/>
      <point x="252" y="796" type="line"/>
      <point x="422" y="796"/>
      <point x="556" y="901"/>
      <point x="556" y="971" type="qcurve" smooth="yes"/>
      <point x="556" y="1024"/>
      <point x="483" y="1098"/>
      <point x="417" y="1098" type="qcurve" smooth="yes"/>
      <point x="370" y="1098"/>
      <point x="278" y="1069"/>
      <point x="215" y="1041" type="qcurve"/>
      <point x="179" y="1235" type="line"/>
      <point x="243" y="1268"/>
      <point x="371" y="1300"/>
      <point x="460" y="1300" type="qcurve" smooth="yes"/>
      <point x="620" y="1300"/>
      <point x="820" y="1128"/>
      <point x="820" y="984" type="qcurve" smooth="yes"/>
      <point x="820" y="809"/>
      <point x="524" y="592"/>
    </contour>
    <contour>
      <point x="453" y="784" type="line"/>
      <point x="602" y="784"/>
      <point x="853" y="604"/>
      <point x="853" y="433" type="qcurve" smooth="yes"/>
      <point x="853" y="258"/>
      <point x="641" y="62"/>
      <point x="477" y="62" type="qcurve" smooth="yes"/>
      <point x="374" y="62"/>
      <point x="210" y="100"/>
      <point x="120" y="144" type="qcurve"/>
      <point x="158" y="345" type="line"/>
      <point x="240" y="311"/>
      <point x="359" y="277"/>
      <point x="424" y="277" type="qcurve" smooth="yes"/>
      <point x="500" y="277"/>
      <point x="590" y="369"/>
      <point x="590" y="443" type="qcurve" smooth="yes"/>
      <point x="590" y="509"/>
      <point x="505" y="606"/>
      <point x="408" y="611" type="qcurve"/>
    </contour>
    <component base="candrabindudeva" xOffset="1760" yOffset="-311"/>
  </outline>
</glyph>
<glyph name="anudattadeva" format="1">
  <unicode hex="0952"/>
  <outline>
    <contour>
      <point x="-932" y="-247" type="line"/>
      <point x="-932" y="-64" type="line"/>
      <point x="-190" y="-64" type="line"/>
      <point x="-190" y="-247" type="line"/>
    </contour>
    <contour>
      <point x="-370" y="12" type="move" name="_btm"/>
    </contour>
  </outline>
</glyph>
<glyph name="uni0954" format="1">
  <unicode hex="0954"/>
  <outline>
    <contour>
      <point x="-301" y="1801" type="line"/>
      <point x="1" y="1801" type="line"/>
      <point x="-215" y="1420" type="line"/>
      <point x="-439" y="1420" type="line"/>
    </contour>
    <contour>
      <point x="10" y="-9" type="move" name="x4"/>
    </contour>
  </outline>
</glyph>
<glyph name="llvocalicdeva" format="1">
  <advance width="1483"/>
  <unicode hex="0961"/>
  <outline>
    <contour>
      <point x="1024" y="1134" type="line"/>
      <point x="1288" y="1134" type="line"/>
      <point x="1288" y="712" type="line"/>
      <point x="1024" y="712" type="line"/>
    </contour>
    <contour>
      <point x="-30" y="1096" type="line"/>
      <point x="-30" y="1288" type="line"/>
      <point x="1513" y="1288" type="line"/>
      <point x="1513" y="1096" type="line"/>
    </contour>
    <contour>
      <point x="808" y="587" type="qcurve"/>
      <point x="615" y="426" type="line"/>
      <point x="614" y="541"/>
      <point x="517" y="662"/>
      <point x="452" y="662" type="qcurve" smooth="yes"/>
      <point x="390" y="662"/>
      <point x="310" y="562"/>
      <point x="310" y="468" type="qcurve" smooth="yes"/>
      <point x="310" y="376"/>
      <point x="390" y="197"/>
      <point x="467" y="93" type="qcurve"/>
      <point x="258" y="17" type="line"/>
      <point x="175" y="113"/>
      <point x="59" y="372"/>
      <point x="59" y="502" type="qcurve" smooth="yes"/>
      <point x="59" y="687"/>
      <point x="257" y="892"/>
      <point x="413" y="892" type="qcurve" smooth="yes"/>
      <point x="577" y="892"/>
      <point x="786" y="704"/>
    </contour>
    <contour>
      <point x="1283" y="276" type="line"/>
      <point x="1199" y="276"/>
      <point x="1144" y="237"/>
      <point x="1144" y="205" type="qcurve" smooth="yes"/>
      <point x="1144" y="171"/>
      <point x="1202" y="134"/>
      <point x="1251" y="134" type="qcurve" smooth="yes"/>
      <point x="1286" y="134"/>
      <point x="1360" y="146"/>
      <point x="1389" y="153" type="qcurve"/>
      <point x="1421" y="21" type="line"/>
      <point x="1392" y="6"/>
      <point x="1294" y="-13"/>
      <point x="1245" y="-13" type="qcurve" smooth="yes"/>
      <point x="1099" y="-13"/>
      <point x="943" y="123"/>
      <point x="943" y="221" type="qcurve" smooth="yes"/>
      <point x="943" y="310"/>
      <point x="1091" y="424"/>
      <point x="1224" y="424" type="qcurve" smooth="yes"/>
      <point x="1285" y="424" type="line"/>
      <point x="1142" y="358" type="line"/>
      <point x="1145" y="376"/>
      <point x="1151" y="440"/>
      <point x="1151" y="483" type="qcurve" smooth="yes"/>
      <point x="1151" y="574"/>
      <point x="1082" y="671"/>
      <point x="1018" y="671" type="qcurve" smooth="yes"/>
      <point x="950" y="671"/>
      <point x="866" y="542"/>
      <point x="866" y="414" type="qcurve" smooth="yes"/>
      <point x="866" y="271" type="line"/>
      <point x="610" y="271" type="line"/>
      <point x="610" y="432" type="line"/>
      <point x="610" y="632"/>
      <point x="824" y="892"/>
      <point x="998" y="892" type="qcurve" smooth="yes"/>
      <point x="1190" y="892"/>
      <point x="1400" y="660"/>
      <point x="1400" y="482" type="qcurve" smooth="yes"/>
      <point x="1400" y="433"/>
      <point x="1382" y="325"/>
      <point x="1368" y="276" type="qcurve"/>
    </contour>
    <contour>
      <point x="1442" y="-220" type="line"/>
      <point x="1409" y="-238"/>
      <point x="1315" y="-259"/>
      <point x="1269" y="-259" type="qcurve" smooth="yes"/>
      <point x="1146" y="-259"/>
      <point x="1011" y="-143"/>
      <point x="1011" y="-52" type="qcurve" smooth="yes"/>
      <point x="1011" y="21"/>
      <point x="1128" y="121"/>
      <point x="1232" y="121" type="qcurve" smooth="yes"/>
      <point x="1299" y="121" type="line"/>
      <point x="1299" y="3" type="line"/>
      <point x="1293" y="3" type="line"/>
      <point x="1234" y="3"/>
      <point x="1185" y="-34"/>
      <point x="1185" y="-65" type="qcurve" smooth="yes"/>
      <point x="1185" y="-94"/>
      <point x="1229" y="-129"/>
      <point x="1272" y="-129" type="qcurve" smooth="yes"/>
      <point x="1311" y="-129"/>
      <point x="1388" y="-111"/>
      <point x="1416" y="-98" type="qcurve"/>
    </contour>
  </outline>
</glyph>
<glyph name="lvocalicvowelsigndeva" format="1">
  <unicode hex="0962"/>
  <outline>
    <contour>
      <point x="47" y="-104" type="qcurve" smooth="yes"/>
      <point x="47" y="-131"/>
      <point x="37" y="-193"/>
      <point x="28" y="-217" type="qcurve"/>
      <point x="-10" y="-217" type="line"/>
      <point x="-50" y="-217"/>
      <point x="-80" y="-238"/>
      <point x="-80" y="-256" type="qcurve" smooth="yes"/>
      <point x="-80" y="-276"/>
      <point x="-42" y="-295"/>
      <point x="-19" y="-295" type="qcurve" smooth="yes"/>
      <point x="3" y="-295"/>
      <point x="45" y="-287"/>
      <point x="62" y="-283" type="qcurve"/>
      <point x="75" y="-362" type="line"/>
      <point x="58" y="-368"/>
      <point x="4" y="-376"/>
      <point x="-22" y="-376" type="qcurve" smooth="yes"/>
      <point x="-108" y="-376"/>
      <point x="-207" y="-307"/>
      <point x="-207" y="-253" type="qcurve" smooth="yes"/>
      <point x="-207" y="-200"/>
      <point x="-113" y="-139"/>
      <point x="-58" y="-139" type="qcurve" smooth="yes"/>
      <point x="-19" y="-139" type="line"/>
      <point x="-103" y="-165" type="line"/>
      <point x="-102" y="-154"/>
      <point x="-99" y="-130"/>
      <point x="-99" y="-114" type="qcurve" smooth="yes"/>
      <point x="-99" y="-90"/>
      <point x="-136" y="-59"/>
      <point x="-162" y="-59" type="qcurve" smooth="yes"/>
      <point x="-200" y="-59"/>
      <point x="-238" y="-111"/>
      <point x="-238" y="-148" type="qcurve" smooth="yes"/>
      <point x="-238" y="-214" type="line"/>
      <point x="-419" y="-214" type="line"/>
      <point x="-419" y="-129" type="line"/>
      <point x="-419" y="-63"/>
      <point x="-265" y="75"/>
      <point x="-164" y="75" type="qcurve" smooth="yes"/>
      <point x="-68" y="75"/>
      <point x="47" y="-32"/>
    </contour>
    <contour>
      <point x="-419" y="-150" type="line"/>
      <point x="-419" y="-116"/>
      <point x="-466" y="-61"/>
      <point x="-504" y="-61" type="qcurve" smooth="yes"/>
      <point x="-532" y="-61"/>
      <point x="-566" y="-95"/>
      <point x="-566" y="-124" type="qcurve" smooth="yes"/>
      <point x="-566" y="-160"/>
      <point x="-516" y="-245"/>
      <point x="-458" y="-301" type="qcurve"/>
      <point x="-589" y="-347" type="line"/>
      <point x="-648" y="-302"/>
      <point x="-724" y="-172"/>
      <point x="-724" y="-104" type="qcurve" smooth="yes"/>
      <point x="-724" y="-25"/>
      <point x="-614" y="75"/>
      <point x="-525" y="75" type="qcurve" smooth="yes"/>
      <point x="-409" y="75"/>
      <point x="-264" y="-58"/>
      <point x="-264" y="-127" type="qcurve"/>
    </contour>
    <contour>
      <point x="-370" y="12" type="move" name="_btm"/>
    </contour>
  </outline>
</glyph>
<glyph name="llvocalicvowelsigndeva" format="1">
  <unicode hex="0963"/>
  <outline>
    <contour>
      <point x="-415" y="-150" type="line"/>
      <point x="-415" y="-116"/>
      <point x="-463" y="-61"/>
      <point x="-501" y="-61" type="qcurve" smooth="yes"/>
      <point x="-529" y="-61"/>
      <point x="-563" y="-95"/>
      <point x="-563" y="-124" type="qcurve" smooth="yes"/>
      <point x="-563" y="-161"/>
      <point x="-513" y="-245"/>
      <point x="-454" y="-301" type="qcurve"/>
      <point x="-586" y="-347" type="line"/>
      <point x="-645" y="-302"/>
      <point x="-720" y="-172"/>
      <point x="-720" y="-104" type="qcurve" smooth="yes"/>
      <point x="-720" y="-25"/>
      <point x="-610" y="75"/>
      <point x="-521" y="75" type="qcurve" smooth="yes"/>
      <point x="-405" y="75"/>
      <point x="-261" y="-58"/>
      <point x="-261" y="-128" type="qcurve"/>
    </contour>
    <contour>
      <point x="-7" y="-199" type="line"/>
      <point x="-47" y="-199"/>
      <point x="-76" y="-215"/>
      <point x="-76" y="-231" type="qcurve" smooth="yes"/>
      <point x="-76" y="-249"/>
      <point x="-41" y="-264"/>
      <point x="-18" y="-264" type="qcurve" smooth="yes"/>
      <point x="3" y="-264"/>
      <point x="42" y="-257"/>
      <point x="59" y="-254" type="qcurve"/>
      <point x="72" y="-321" type="line"/>
      <point x="55" y="-327"/>
      <point x="3" y="-335"/>
      <point x="-23" y="-335" type="qcurve" smooth="yes"/>
      <point x="-111" y="-335"/>
      <point x="-202" y="-274"/>
      <point x="-202" y="-230" type="qcurve" smooth="yes"/>
      <point x="-202" y="-187"/>
      <point x="-121" y="-136"/>
      <point x="-56" y="-136" type="qcurve" smooth="yes"/>
      <point x="-16" y="-136" type="line"/>
      <point x="-100" y="-165" type="line"/>
      <point x="-99" y="-154"/>
      <point x="-96" y="-131"/>
      <point x="-96" y="-114" type="qcurve" smooth="yes"/>
      <point x="-96" y="-90"/>
      <point x="-132" y="-59"/>
      <point x="-159" y="-59" type="qcurve" smooth="yes"/>
      <point x="-197" y="-59"/>
      <point x="-235" y="-111"/>
      <point x="-235" y="-148" type="qcurve" smooth="yes"/>
      <point x="-235" y="-214" type="line"/>
      <point x="-415" y="-214" type="line"/>
      <point x="-415" y="-129" type="line"/>
      <point x="-415" y="-64"/>
      <point x="-261" y="75"/>
      <point x="-161" y="75" type="qcurve" smooth="yes"/>
      <point x="-65" y="75"/>
      <point x="50" y="-32"/>
      <point x="50" y="-104" type="qcurve" smooth="yes"/>
      <point x="50" y="-131"/>
      <point x="40" y="-175"/>
      <point x="31" y="-199" type="qcurve"/>
    </contour>
    <contour>
      <point x="87" y="-436" type="line"/>
      <point x="70" y="-441"/>
      <point x="18" y="-450"/>
      <point x="-10" y="-450" type="qcurve" smooth="yes"/>
      <point x="-83" y="-450"/>
      <point x="-155" y="-402"/>
      <point x="-155" y="-361" type="qcurve" smooth="yes"/>
      <point x="-155" y="-328"/>
      <point x="-84" y="-282"/>
      <point x="-28" y="-282" type="qcurve" smooth="yes"/>
      <point x="21" y="-282" type="line"/>
      <point x="11" y="-332" type="line"/>
      <point x="8" y="-332" type="line"/>
      <point x="-21" y="-332"/>
      <point x="-51" y="-346"/>
      <point x="-51" y="-360" type="qcurve" smooth="yes"/>
      <point x="-51" y="-375"/>
      <point x="-22" y="-390"/>
      <point x="-4" y="-390" type="qcurve" smooth="yes"/>
      <point x="19" y="-390"/>
      <point x="54" y="-383"/>
      <point x="71" y="-378" type="qcurve"/>
    </contour>
    <contour>
      <point x="-370" y="12" type="move" name="_btm"/>
    </contour>
  </outline>
</glyph>
<glyph name="twodeva" format="1">
  <advance width="942"/>
  <unicode hex="0968"/>
  <outline>
    <contour>
      <point x="497" y="547" type="line"/>
      <point x="850" y="101" type="line"/>
      <point x="641" y="-15" type="line"/>
      <point x="310" y="433" type="line"/>
    </contour>
    <contour>
      <point x="272" y="342" type="qcurve" smooth="yes"/>
      <point x="194" y="342"/>
      <point x="89" y="424"/>
      <point x="89" y="517" type="qcurve" smooth="yes"/>
      <point x="89" y="603"/>
      <point x="203" y="737"/>
      <point x="281" y="737" type="qcurve" smooth="yes"/>
      <point x="344" y="737"/>
      <point x="442" y="669"/>
      <point x="487" y="598" type="qcurve"/>
      <point x="258" y="588" type="line"/>
      <point x="389" y="596"/>
      <point x="599" y="757"/>
      <point x="599" y="876" type="qcurve" smooth="yes"/>
      <point x="599" y="962"/>
      <point x="469" y="1072"/>
      <point x="375" y="1072" type="qcurve" smooth="yes"/>
      <point x="307" y="1072"/>
      <point x="182" y="1042"/>
      <point x="116" y="1016" type="qcurve"/>
      <point x="90" y="1219" type="line"/>
      <point x="145" y="1244"/>
      <point x="298" y="1278"/>
      <point x="375" y="1278" type="qcurve" smooth="yes"/>
      <point x="601" y="1278"/>
      <point x="858" y="1043"/>
      <point x="858" y="872" type="qcurve" smooth="yes"/>
      <point x="858" y="654"/>
      <point x="485" y="342"/>
    </contour>
  </outline>
</glyph>
<glyph name="fourdeva" format="1">
  <advance width="1050"/>
  <unicode hex="096A"/>
  <outline>
    <contour>
      <point x="599" y="738" type="qcurve" smooth="yes"/>
      <point x="746" y="653"/>
      <point x="903" y="464"/>
      <point x="903" y="367" type="qcurve" smooth="yes"/>
      <point x="903" y="233"/>
      <point x="697" y="76"/>
      <point x="542" y="76" type="qcurve" smooth="yes"/>
      <point x="391" y="76"/>
      <point x="173" y="248"/>
      <point x="173" y="377" type="qcurve" smooth="yes"/>
      <point x="173" y="485"/>
      <point x="334" y="664"/>
      <point x="462" y="734" type="qcurve" smooth="yes"/>
      <point x="654" y="840"/>
      <point x="755" y="981"/>
      <point x="755" y="1060" type="qcurve" smooth="yes"/>
      <point x="755" y="1104"/>
      <point x="746" y="1165"/>
      <point x="724" y="1225" type="qcurve"/>
      <point x="967" y="1253" type="line"/>
      <point x="991" y="1189"/>
      <point x="1010" y="1109"/>
      <point x="1010" y="1060" type="qcurve" smooth="yes"/>
      <point x="1010" y="890"/>
      <point x="768" y="649"/>
      <point x="591" y="557" type="qcurve" smooth="yes"/>
      <point x="500" y="510"/>
      <point x="422" y="428"/>
      <point x="422" y="380" type="qcurve" smooth="yes"/>
      <point x="422" y="327"/>
      <point x="495" y="270"/>
      <point x="543" y="270" type="qcurve" smooth="yes"/>
      <point x="595" y="270"/>
      <point x="662" y="327"/>
      <point x="662" y="373" type="qcurve" smooth="yes"/>
      <point x="662" y="416"/>
      <point x="594" y="494"/>
      <point x="459" y="568" type="qcurve" smooth="yes"/>
      <point x="334" y="638"/>
      <point x="68" y="898"/>
      <point x="68" y="1069" type="qcurve" smooth="yes"/>
      <point x="68" y="1125"/>
      <point x="89" y="1209"/>
      <point x="112" y="1261" type="qcurve"/>
      <point x="356" y="1216" type="line"/>
      <point x="337" y="1171"/>
      <point x="322" y="1095"/>
      <point x="322" y="1058" type="qcurve" smooth="yes"/>
      <point x="322" y="958"/>
      <point x="480" y="807"/>
    </contour>
  </outline>
</glyph>
<glyph name="fivedeva" format="1">
  <advance width="1023"/>
  <unicode hex="096B"/>
  <outline>
    <contour>
      <point x="511" y="562" type="qcurve" smooth="yes"/>
      <point x="549" y="562"/>
      <point x="608" y="576"/>
      <point x="656" y="591" type="qcurve"/>
      <point x="550" y="506" type="line"/>
      <point x="534" y="549"/>
      <point x="523" y="602"/>
      <point x="523" y="636" type="qcurve" smooth="yes"/>
      <point x="523" y="699"/>
      <point x="618" y="790"/>
      <point x="710" y="790" type="qcurve" smooth="yes"/>
      <point x="815" y="790"/>
      <point x="948" y="678"/>
      <point x="948" y="598" type="qcurve" smooth="yes"/>
      <point x="948" y="508"/>
      <point x="737" y="354"/>
      <point x="535" y="354" type="qcurve" smooth="yes"/>
      <point x="328" y="354"/>
      <point x="52" y="578"/>
      <point x="52" y="767" type="qcurve" smooth="yes"/>
      <point x="52" y="922"/>
      <point x="259" y="1210"/>
      <point x="450" y="1298" type="qcurve"/>
      <point x="625" y="1149" type="line"/>
      <point x="454" y="1059"/>
      <point x="315" y="861"/>
      <point x="315" y="762" type="qcurve" smooth="yes"/>
      <point x="315" y="669"/>
      <point x="434" y="562"/>
    </contour>
    <contour>
      <point x="573" y="474" type="line"/>
      <point x="785" y="541" type="line"/>
      <point x="1027" y="74" type="line"/>
      <point x="801" y="0" type="line"/>
    </contour>
  </outline>
</glyph>
